<?xml version="1.0" encoding="utf-8"?>
<!-- Generator: Adobe Illustrator 23.0.1, SVG Export Plug-In . SVG Version: 6.00 Build 0)  -->
<svg version="1.1" id="圖層_1" xmlns="http://www.w3.org/2000/svg" xmlns:xlink="http://www.w3.org/1999/xlink" x="0px" y="0px"
	 viewBox="0 0 880 369" style="enable-background:new 0 0 880 369;" xml:space="preserve">
<style type="text/css">
	.st0{fill:#D2D2D3;}
	.st1{fill:#C8C9CA;}
	.st2{fill:#B7956B;}
	.st3{fill:#FFFFFF;}
	.st4{fill:#F7F7F7;}
</style>
<path class="st0" d="M407.2,285.5l3.2,3.2v3.2h-3.8v-1.5l-1.1-1.1h-2.2l-1.1,1.1v10.4l1.1,1.1h2.2l1.1-1.1v-1.5h3.8v3.2l-3.2,3.2
	h-5.7l-3.2-3.2v-13.9l3.2-3.2H407.2z M422.5,285.5l3.2,3.2v6.3l-3.2,3.2h-5v7.5h-3.8v-20.2H422.5z M421.9,290.4l-1.1-1.1h-3.3v5h3.3
	l1.1-1.1V290.4z M431.7,285.5l-3.2,3.2v13.9l3.2,3.2h5.7l3.2-3.2v-3.2h-3.8v1.5l-1.1,1.1h-2.2l-1.1-1.1v-10.4l1.1-1.1h2.2l1.1,1.1
	v1.5h3.8v-3.2l-3.2-3.2H431.7z M411.4,332.2L411.4,332.2h2.1l5.1-5.1h-2.1L411.4,332.2z M440.7,332.2v-2l-2,2H440.7z M406.9,332.2
	L406.9,332.2h2.1l5.1-5.1h-2.1L406.9,332.2z M398.4,332.2h1.5l5.1-5.1h-2.1l-4.5,4.5V332.2z M398.4,329.2l2-2h-2V329.2z
	 M404.4,332.2l5.1-5.1h-2.1l-5.1,5.1h0H404.4z M440.7,327.1h-1.5l-5.1,5.1h2.1l4.5-4.5V327.1z M418,332.2l5.1-5.1H421l-5.1,5.1H418z
	 M431.6,332.2l5.1-5.1h-2.1l-5.1,5.1H431.6z M422.6,332.2l5.1-5.1h-2.1l-5.1,5.1H422.6z M427.1,332.2l5.1-5.1h-2.1l-5.1,5.1h0H427.1
	z M398.4,324h2v-12.6h-2V324z M404.6,315.8l3.3,8.2h1.8v-12.6h-1.8v8.5l-3.4-8.5h-1.7V324h1.9V315.8z M416.5,321.9
	c-0.3,0.2-0.6,0.3-1.1,0.3c-0.5,0-0.9-0.1-1.1-0.4c-0.2-0.3-0.4-0.6-0.4-1.2h-2c0,0.8,0.1,1.4,0.4,1.9c0.3,0.5,0.6,0.9,1.1,1.2
	c0.5,0.3,1.2,0.4,1.9,0.4c0.7,0,1.3-0.1,1.8-0.4c0.5-0.3,0.9-0.6,1.2-1.1c0.3-0.5,0.4-1.1,0.4-1.7v-0.9c0-0.7-0.1-1.2-0.4-1.6
	c-0.2-0.4-0.5-0.7-0.9-0.9c-0.4-0.2-0.8-0.4-1.3-0.7c0,0,0,0-0.1,0c0,0,0,0-0.1,0c0,0-0.1,0-0.1-0.1c0,0-0.1,0-0.1,0
	c-0.4-0.2-0.7-0.3-1-0.4c-0.2-0.1-0.4-0.3-0.6-0.5c-0.2-0.2-0.2-0.5-0.2-0.8v-0.7c0-0.4,0.1-0.7,0.4-0.9c0.2-0.2,0.6-0.3,1.1-0.3
	c0.4,0,0.7,0.1,1,0.4c0.2,0.2,0.3,0.6,0.3,1.1h1.9c0-0.8-0.1-1.4-0.4-1.9c-0.2-0.5-0.6-0.9-1.1-1.1c-0.5-0.3-1.1-0.4-1.8-0.4
	c-0.7,0-1.3,0.1-1.8,0.4c-0.5,0.2-0.9,0.6-1.2,1.1c-0.3,0.5-0.4,1-0.4,1.7v0.6c0,0.7,0.1,1.2,0.4,1.7c0.3,0.4,0.6,0.8,1,1
	c0.4,0.2,0.8,0.5,1.4,0.7l0.1,0.1c0,0,0,0,0,0c0,0,0,0,0,0c0.4,0.2,0.8,0.3,1,0.4c0.2,0.1,0.4,0.3,0.6,0.5c0.2,0.2,0.2,0.4,0.2,0.7
	v0.9C416.9,321.3,416.8,321.7,416.5,321.9 M423.2,311.4h-2V324h2V311.4z M427.5,311.4h1.5c0.7,0,1.3,0.1,1.7,0.4
	c0.5,0.2,0.8,0.6,1.1,1.1c0.3,0.5,0.4,1,0.4,1.7v6.4c0,0.6-0.1,1.2-0.4,1.7c-0.3,0.5-0.6,0.8-1.1,1.1c-0.5,0.2-1.1,0.4-1.7,0.4h-1.5
	h-0.7h-1.3v-12.6h1.3H427.5z M427.5,313.3v8.8h1.4c0.4,0,0.7-0.1,0.9-0.3c0.2-0.2,0.3-0.5,0.3-1v-6.2c0-0.4-0.1-0.7-0.3-1
	c-0.2-0.2-0.5-0.3-0.9-0.3H427.5z M440.7,313.3v-1.9h-4.1h-1.1h-0.9V324h0.9h1.1h4.1v-1.9h-4.1v-3.4h3.6v-1.9h-3.6v-3.5H440.7z
	 M451.7,269h-2h-61.3h-2h-2v11.1h4v-7.3h61.3v7.3h4V269H451.7z M449.7,344.6h-61.3v-7.3h-4v11.1h2h2h61.3h2h2v-11.1h-4V344.6z"/>
<path class="st0" d="M298.2,285.9H297V283h1.2c0.2,0,0.3,0,0.4,0.1c0.1,0.1,0.2,0.2,0.3,0.3c0.1,0.1,0.1,0.3,0.1,0.5v1
	c0,0.2,0,0.4-0.1,0.5c-0.1,0.1-0.2,0.3-0.3,0.3C298.5,285.9,298.4,285.9,298.2,285.9 M298.8,302.2c0.2-0.1,0.2-0.3,0.2-0.6v-1
	c0-0.2,0-0.4-0.1-0.5c-0.1-0.1-0.2-0.3-0.3-0.3c-0.1-0.1-0.3-0.1-0.5-0.1H297v2.8h1.1C298.4,302.4,298.6,302.3,298.8,302.2
	 M304,289.5c0.2,0.1,0.4,0.1,0.6,0.1c0.2,0,0.4,0,0.6-0.1c0.2-0.1,0.3-0.2,0.4-0.4c0.1-0.2,0.1-0.4,0.1-0.6v-4.4
	c0-0.2,0-0.4-0.1-0.6c-0.1-0.2-0.2-0.3-0.4-0.4c-0.2-0.1-0.4-0.1-0.6-0.1c-0.2,0-0.4,0-0.6,0.1c-0.2,0.1-0.3,0.2-0.4,0.4
	c-0.1,0.2-0.1,0.4-0.1,0.6v4.4c0,0.2,0,0.4,0.1,0.6C303.7,289.3,303.9,289.4,304,289.5 M327.5,285.5c0.1-0.1,0.2-0.2,0.3-0.3
	c0.1-0.1,0.1-0.3,0.1-0.5V284c0-0.2,0-0.4-0.1-0.5c-0.1-0.1-0.2-0.2-0.3-0.3c-0.1-0.1-0.3-0.1-0.5-0.1h-1.2v2.6h1.2
	C327.2,285.6,327.3,285.6,327.5,285.5 M316.7,316.6v5.5h3.6l1.2-1.2v-3.1l-1.2-1.2H316.7z M298.7,298c0.1-0.2,0.2-0.4,0.2-0.7v-0.8
	c0-0.2-0.1-0.4-0.2-0.6c-0.1-0.1-0.3-0.2-0.6-0.2H297v2.5h1.1C298.3,298.3,298.5,298.2,298.7,298 M339.9,283h-1v6.5h1
	c0.3,0,0.5-0.1,0.7-0.3c0.2-0.2,0.2-0.4,0.2-0.7V284c0-0.3-0.1-0.5-0.2-0.7C340.4,283.1,340.2,283,339.9,283 M352.2,348.4h-67.8V269
	h67.8V348.4z M331.2,291h0.7h0.8h3v-1.4h-3V287h2.6v-1.4h-2.6V283h3v-1.4h-3h-0.8h-0.7V291z M329.7,294.4l-9.3,9.3h2.2l9.3-9.3
	H329.7z M326.9,294.4L326.9,294.4h-2.2l-9.3,9.3h2.2L326.9,294.4z M324.3,291h1.5V287h0.9l1.4,3.9h1.6l-1.6-4.2c0,0,0.1,0,0.1,0
	c0.4-0.2,0.6-0.4,0.8-0.8c0.2-0.3,0.3-0.8,0.3-1.2v-0.9c0-0.5-0.1-0.9-0.3-1.2c-0.2-0.3-0.5-0.6-0.8-0.8c-0.4-0.2-0.8-0.3-1.3-0.3
	h-1.1H325h-0.7V291z M318.1,291h0.7h0.8h3v-1.4h-3V287h2.6v-1.4h-2.6V283h3v-1.4h-3h-0.8h-0.7V291z M308.5,281.6l1.4,9.3h1.5
	l1.2-6.2l1.1,6.2h1.5l1.4-9.3h-1.5l-0.8,6.8l-1.2-6.8h-1.1l-1.2,6.8l-0.8-6.8H308.5z M312.1,294.4h-2.2v2.2L312.1,294.4z M302,288.6
	c0,0.5,0.1,1,0.3,1.3c0.2,0.4,0.5,0.7,0.9,0.9c0.4,0.2,0.8,0.3,1.4,0.3c0.5,0,1-0.1,1.4-0.3c0.4-0.2,0.7-0.5,0.9-0.9
	c0.2-0.4,0.3-0.8,0.3-1.3V284c0-0.5-0.1-1-0.3-1.3c-0.2-0.4-0.5-0.7-0.9-0.9c-0.4-0.2-0.8-0.3-1.4-0.3c-0.5,0-1,0.1-1.4,0.3
	c-0.4,0.2-0.7,0.5-0.9,0.9c-0.2,0.4-0.3,0.8-0.3,1.3V288.6z M301.9,294.4l2,5.6v3.7h1.5v-3.7l2-5.6h-1.5l-1.2,4l-1.2-4H301.9z
	 M295.5,291h1.5v-3.6h1.2c0.5,0,0.9-0.1,1.2-0.3c0.3-0.2,0.6-0.4,0.8-0.8c0.2-0.3,0.3-0.7,0.3-1.2v-1.2c0-0.5-0.1-0.9-0.3-1.2
	c-0.2-0.3-0.4-0.6-0.8-0.8c-0.3-0.2-0.8-0.3-1.2-0.3H297h-0.7h-0.7V291z M295.5,303.8h0.8h0.6h1.3c0.5,0,0.8-0.1,1.2-0.2
	c0.3-0.2,0.6-0.4,0.7-0.7c0.2-0.3,0.3-0.7,0.3-1.1v-1c0-0.3-0.1-0.6-0.2-0.9c-0.1-0.3-0.3-0.5-0.5-0.6c-0.2-0.2-0.5-0.3-0.8-0.3
	c0.3-0.1,0.5-0.2,0.7-0.3c0.2-0.2,0.4-0.3,0.5-0.6c0.1-0.2,0.2-0.5,0.2-0.8v-0.8c0-0.4-0.1-0.8-0.3-1.1c-0.2-0.3-0.4-0.5-0.7-0.7
	c-0.3-0.2-0.7-0.2-1.2-0.2H297h-0.6h-0.8V303.8z M308.9,315.9l-3.5-3.5H299l-3.5,3.5v15.4l3.5,3.5h6.3l3.5-3.5v-3.6h-4.2v1.6
	l-1.2,1.2H301l-1.2-1.2v-11.5l1.2-1.2h2.4l1.2,1.2v1.6h4.2V315.9z M309.9,301.6l7.2-7.2h-2.2l-4.9,4.9V301.6z M310.4,303.8h2.2
	l9.3-9.3h-2.2L310.4,303.8z M325.7,315.9l-3.5-3.5h-9.8v22.4h4.2v-8.4h5.6l3.5-3.5V315.9z M327.5,303.8l9.3-9.3h-2.2l-9.3,9.3H327.5
	z M330.2,303.8h2.2l9.3-9.3h-2.2L330.2,303.8z M342.3,315.9l-3.5-3.5h-6.3l-3.5,3.5v15.4l3.5,3.5h6.3l3.5-3.5v-3.6h-4.2v1.6
	l-1.2,1.2h-2.4l-1.2-1.2v-11.5l1.2-1.2h2.4l1.2,1.2v1.6h4.2V315.9z M342.3,301.6l-2.2,2.2h2.2V301.6z M342.3,296.6l-7.2,7.2h2.2
	l4.9-4.9V296.6z M342.3,283.9c0-0.5-0.1-0.9-0.3-1.2c-0.2-0.3-0.5-0.6-0.8-0.8c-0.4-0.2-0.8-0.3-1.3-0.3h-1.1h-0.5h-0.9v9.3h0.9h0.5
	h1.1c0.5,0,0.9-0.1,1.3-0.3c0.4-0.2,0.6-0.4,0.8-0.8c0.2-0.3,0.3-0.8,0.3-1.2V283.9z"/>
<path class="st1" d="M31.6,47h-5.9V33.6h5.9l2.1,2.1v3.8l-0.8,0.8l0.8,0.8v3.8L31.6,47z M31.2,36.9l-0.7-0.7h-2.2v2.9h2.2l0.7-0.7
	V36.9z M31.2,43.8v-1.4l-0.7-0.7h-2.2v2.9h2.2L31.2,43.8z"/>
<path class="st1" d="M40.4,47l-0.2-0.9h-2.5L37.6,47H35l2.7-13.4h2.7L43,47H40.4z M39.7,43.6L39,39.9l-0.7,3.7H39.7z"/>
<polygon class="st1" points="50.3,36.2 47.9,36.2 47.9,47 45.4,47 45.4,36.2 43,36.2 43,33.6 50.3,33.6 "/>
<polygon class="st1" points="59.1,36.2 56.7,36.2 56.7,47 54.2,47 54.2,36.2 51.8,36.2 51.8,33.6 59.1,33.6 "/>
<path class="st1" d="M76.2,41.3l1.6,5.7h-2.6l-1.5-5.4h-1V47h-2.5V33.6H76l2.1,2.1v3.8L76.2,41.3z M75.6,38.3v-1.4l-0.7-0.7h-2.2
	v2.9h2.2L75.6,38.3z"/>
<polygon class="st1" points="86.9,33.6 84.2,42.8 84.2,47 81.6,47 81.6,42.8 79,33.6 81.6,33.6 82.9,38.1 84.2,33.6 "/>
<polygon class="st1" points="100.8,44.9 98.7,47 94.9,47 92.8,44.9 92.8,35.7 94.9,33.6 98.7,33.6 100.8,35.7 100.8,37.9 98.2,37.9 
	98.2,36.9 97.5,36.2 96,36.2 95.3,36.9 95.3,43.8 96,44.5 97.5,44.5 98.2,43.8 98.2,42.8 100.8,42.8 "/>
<path class="st1" d="M108.1,47h-3.8l-2.1-2.1v-9.2l2.1-2.1h3.8l2.1,2.1v9.2L108.1,47z M107.6,43.8v-6.9l-0.7-0.7h-1.5l-0.7,0.7v6.9
	l0.7,0.7h1.5L107.6,43.8z"/>
<polygon class="st1" points="119.5,47 117,47 117,41.5 115.6,45.7 114.1,41.5 114.1,47 111.6,47 111.6,33.6 114.1,33.6 115.6,37.8 
	117,33.6 119.5,33.6 "/>
<path class="st1" d="M126.9,42h-3.3v5H121V33.6h5.9l2.1,2.1v4.2L126.9,42z M126.5,38.7v-1.9l-0.7-0.7h-2.2v3.3h2.2L126.5,38.7z"/>
<path class="st1" d="M136.3,47h-3.8l-2.1-2.1v-9.2l2.1-2.1h3.8l2.1,2.1v9.2L136.3,47z M135.8,43.8v-6.9l-0.7-0.7h-1.5l-0.7,0.7v6.9
	l0.7,0.7h1.5L135.8,43.8z"/>
<polygon class="st1" points="147.8,44.9 145.7,47 141.9,47 139.8,44.9 139.8,42.8 142.3,42.8 142.3,43.8 143.1,44.5 144.5,44.5 
	145.3,43.8 145.3,42.3 144.5,41.6 141.9,41.6 139.8,39.5 139.8,35.7 141.9,33.6 145.7,33.6 147.8,35.7 147.8,37.8 145.3,37.8 
	145.3,36.9 144.5,36.2 143.1,36.2 142.3,36.9 142.3,38.3 143.1,39.1 145.7,39.1 147.8,41.1 "/>
<rect x="149.2" y="33.6" class="st1" width="2.5" height="13.4"/>
<polygon class="st1" points="160.4,36.2 158,36.2 158,47 155.5,47 155.5,36.2 153.1,36.2 153.1,33.6 160.4,33.6 "/>
<rect x="161.8" y="33.6" class="st1" width="2.5" height="13.4"/>
<path class="st1" d="M171.7,47h-3.8l-2.1-2.1v-9.2l2.1-2.1h3.8l2.1,2.1v9.2L171.7,47z M171.2,43.8v-6.9l-0.7-0.7h-1.5l-0.7,0.7v6.9
	l0.7,0.7h1.5L171.2,43.8z"/>
<polygon class="st1" points="183.1,47 180.7,47 177.8,40.4 177.8,47 175.2,47 175.2,33.6 177.7,33.6 180.6,40.2 180.6,33.6 
	183.1,33.6 "/>
<polygon class="st1" points="68.6,47 60.6,47 60.6,33.6 68.6,33.6 68.6,36.2 63.1,36.2 63.1,39.1 66.6,39.1 66.6,41.6 63.1,41.6 
	63.1,44.5 68.6,44.5 "/>
<polygon class="st2" points="206.3,156.5 204.2,158.5 200.5,158.5 198.5,156.5 198.5,154.4 201,154.4 201,155.3 201.7,156 
	203.1,156 203.8,155.3 203.8,153.9 203.1,153.2 200.6,153.2 198.5,151.1 198.5,147.5 200.5,145.4 204.2,145.4 206.3,147.5 
	206.3,149.5 203.8,149.5 203.8,148.6 203.1,147.9 201.7,147.9 201,148.6 201,150 201.7,150.7 204.2,150.7 206.3,152.8 "/>
<path class="st2" d="M214,158.5h-3.7l-2-2v-9l2-2h3.7l2.1,2v9L214,158.5z M213.6,155.3v-6.7l-0.7-0.7h-1.4l-0.7,0.7v6.7l0.7,0.7h1.4
	L213.6,155.3z"/>
<polygon class="st2" points="225.9,158.5 223.4,158.5 223.4,153.2 220.5,153.2 220.5,158.5 218.1,158.5 218.1,145.4 220.5,145.4 
	220.5,150.7 223.4,150.7 223.4,145.4 225.9,145.4 "/>
<polygon class="st2" points="237.1,150.9 234.7,152.2 234.7,150.3 237.1,148.9 237.1,148.9 239.6,150.2 242.1,148.9 242.1,150.9 
	239.6,152.2 "/>
<polygon class="st2" points="237.1,154.3 234.7,155.6 234.7,153.6 237.1,152.3 237.1,152.3 239.6,153.6 242.1,152.3 242.1,154.3 
	239.6,155.6 "/>
<path class="st2" d="M252.6,156.3l-2.2,2.2h-4.2l-2.2-2.2v-1.9h2.6v0.8l0.6,0.6h2l0.6-0.6v-2h-3.7l-2.2-2.2v-3.5l2.2-2.2h4.2
	l2.2,2.2V156.3z M246.7,150l0.7,0.7h2.6v-2l-0.6-0.6h-2l-0.6,0.6V150z"/>
<path class="st2" d="M263.1,147.6v8.8l-2.2,2.2h-4.2l-2.2-2.2v-8.8l2.2-2.2h4.2L263.1,147.6z M257.2,148.7v6.6l0.6,0.6h2l0.6-0.6
	v-6.6l-0.6-0.6h-2L257.2,148.7z"/>
<path class="st2" d="M264.9,146.9l1.2-1.3h1.9l1.2,1.3v2.8l-1.2,1.3H266l-1.2-1.3V146.9z M272.9,145.4l-5.4,13.1h-1.6l5.5-13.1
	H272.9z M266.4,149.2h1.3v-1.7h-1.3V149.2z M270.2,153.9l1.2-1.3h1.9l1.2,1.3v2.9l-1.2,1.3h-1.9l-1.2-1.3V153.9z M271.7,156.2h1.3
	v-1.8h-1.3V156.2z"/>
<polygon class="st3" points="199.6,126.7 199.6,130.2 200.1,130.7 201.7,130.7 202.4,130 203.2,130.7 202.3,131.7 199.5,131.7 
	198.5,130.7 198.5,126.2 199.5,125.2 202.2,125.2 203,126.1 202.2,126.9 201.6,126.2 200.1,126.2 "/>
<path class="st3" d="M205.5,131.6h-1.1v-6.4h3.4l1,1v2.3l-1,1h-1.9l-0.4-0.3V131.6z M207.1,126.2h-1.6v2.5h1.6l0.5-0.5v-1.5
	L207.1,126.2z"/>
<polygon class="st3" points="211.2,126.7 211.2,130.2 211.6,130.7 213.2,130.7 213.9,130 214.7,130.7 213.8,131.7 211,131.7 
	210,130.7 210,126.2 211,125.2 213.7,125.2 214.6,126.1 213.8,126.9 213.1,126.2 211.6,126.2 "/>
<polygon class="st3" points="219.4,126.6 219.4,127.5 219.8,128 221.9,128 222.9,129 222.9,130.7 221.9,131.7 219,131.7 
	218.1,130.8 218.9,130.1 219.6,130.7 221.3,130.7 221.7,130.3 221.7,129.4 221.3,128.9 219.3,128.9 218.2,127.9 218.2,126.2 
	219.2,125.2 221.9,125.2 222.7,126.1 222,126.8 221.3,126.2 219.8,126.2 "/>
<path class="st3" d="M228.8,130.7l-1,1h-2.8l-1-1v-4.5l1-1h2.8l1,1V130.7z M227.7,130.2v-3.5l-0.5-0.5h-1.5l-0.5,0.5v3.5l0.5,0.5
	h1.5L227.7,130.2z"/>
<polygon class="st3" points="231.4,129.1 231.4,131.6 230.2,131.6 230.2,125.3 234.2,125.3 234.2,126.2 231.4,126.2 231.4,128.2 
	233.9,128.2 233.9,129.1 "/>
<polygon class="st3" points="239.8,126.3 238,126.3 238,131.6 236.9,131.6 236.9,126.3 235.1,126.3 235.1,125.3 239.8,125.3 "/>
<polygon class="st3" points="199.6,136.2 199.6,139.7 200.1,140.2 201.7,140.2 202.4,139.5 203.2,140.2 202.3,141.2 199.5,141.2 
	198.5,140.2 198.5,135.7 199.5,134.7 202.2,134.7 203,135.6 202.2,136.3 201.6,135.7 200.1,135.7 "/>
<path class="st3" d="M207.7,141.1l-0.4-1.4h-1.9l-0.4,1.4h-1.1l1.9-6.4h1.3l2,6.4H207.7z M206.2,136.7l-0.6,2h1.5l-0.6-2l-0.1-0.7
	h-0.1L206.2,136.7z"/>
<path class="st3" d="M213.6,141.1l-1.4-2.4h-1v2.4H210v-6.4h3.3l1,1v1.8l-1,1l1.5,2.5H213.6z M212.8,135.7h-1.6v2.1h1.6l0.5-0.5
	v-1.1L212.8,135.7z"/>
<path class="st3" d="M220.4,137.2l-0.6,0.6l0.8,0.8v1.5l-1,1H216v-6.4h3.4l1,1V137.2z M218.8,135.7h-1.6v1.7h1.7l0.4-0.4v-0.8
	L218.8,135.7z M217.1,140.2h1.8l0.5-0.5v-0.9l-0.5-0.5h-1.8V140.2z"/>
<path class="st3" d="M226.6,140.2l-1,1h-2.8l-1-1v-4.5l1-1h2.8l1,1V140.2z M225.5,139.7v-3.5l-0.5-0.5h-1.5l-0.5,0.5v3.5l0.5,0.5
	h1.5L225.5,139.7z"/>
<polygon class="st3" points="232.7,141.1 231.2,141.1 229.3,137.1 229.1,136.4 229.1,136.4 229.1,141.1 228,141.1 228,134.8 
	229.5,134.8 231.4,138.8 231.6,139.5 231.6,139.5 231.6,134.8 232.7,134.8 "/>
<path class="st3" d="M241.5,137.2l-0.6,0.6l0.8,0.8v1.5l-1,1h-3.6v-6.4h3.4l1,1V137.2z M239.8,135.7h-1.6v1.7h1.7l0.4-0.4v-0.8
	L239.8,135.7z M238.2,140.2h1.8l0.5-0.5v-0.9l-0.5-0.5h-1.8V140.2z"/>
<path class="st3" d="M246.3,141.1l-0.4-1.4H244l-0.4,1.4h-1.1l1.9-6.4h1.3l2,6.4H246.3z M244.8,136.7l-0.6,2h1.5l-0.6-2L245,136
	h-0.1L244.8,136.7z"/>
<polygon class="st3" points="252.2,135.8 250.4,135.8 250.4,141.1 249.3,141.1 249.3,135.8 247.5,135.8 247.5,134.8 252.2,134.8 "/>
<polygon class="st3" points="257.7,135.8 255.9,135.8 255.9,141.1 254.8,141.1 254.8,135.8 253,135.8 253,134.8 257.7,134.8 "/>
<polygon class="st3" points="260,138.4 260,140.2 262.8,140.2 262.8,141.1 258.8,141.1 258.8,134.8 262.8,134.8 262.8,135.7 
	260,135.7 260,137.4 262.5,137.4 262.5,138.4 "/>
<path class="st3" d="M267.6,141.1l-1.4-2.4h-1v2.4h-1.1v-6.4h3.3l1,1v1.8l-1,1l1.5,2.5H267.6z M266.8,135.7h-1.6v2.1h1.6l0.5-0.5
	v-1.1L266.8,135.7z"/>
<polygon class="st3" points="270.6,134.8 271.7,137.2 271.9,137.9 271.9,137.9 272.1,137.2 273.2,134.8 274.4,134.8 272.4,138.8 
	272.4,141.1 271.2,141.1 271.2,138.8 269.2,134.8 "/>
<path class="st3" d="M131.5,125l-17,23.6h14v1h-15v-1.3l16.7-23.3H131.5z M130.5,129.1l1-1.4v20.8h3.5v1h-3.5v8.9h-1V129.1z"/>
<polygon class="st3" points="141.1,130.4 141.1,136.8 145,140.8 140.1,145.7 140.1,153 145.5,158.4 149.8,158.4 149.8,157.5 
	146,157.5 141.1,152.5 141.1,146.2 146,141.2 149.8,141.2 149.8,140.2 146,140.2 142.1,136.3 142.1,130.9 147,126 149.8,126 
	149.8,125 146.5,125 "/>
<polygon class="st3" points="156.5,140.8 160.4,136.8 160.4,130.4 155,125 151.8,125 151.8,126 154.5,126 159.4,130.9 159.4,136.3 
	155.5,140.2 151.8,140.2 151.8,141.2 155.5,141.2 160.4,146.2 160.4,152.5 155.5,157.5 151.8,157.5 151.8,158.5 156,158.5 
	161.4,153 161.4,145.7 "/>
<path class="st3" d="M173.9,143l0.6,1l-8.6,14.5h-1.2L173.9,143z M166.8,125l19.5,33.5h-1.2L165.6,125H166.8z M176.6,138.3l7.5-13.3
	h1.2l-8.2,14.3L176.6,138.3z"/>
<polygon class="st3" points="320.9,48.3 320.9,47.1 325.9,47.1 325.9,72.2 330.5,72.2 330.5,73.3 320.2,73.3 320.2,72.2 324.8,72.2 
	324.8,48.3 "/>
<polygon class="st3" points="334.1,51.4 334.1,69.1 338.4,73.3 341.2,73.3 341.2,72.2 338.9,72.2 335.3,68.5 335.3,61.9 338.9,58.2 
	341.2,58.2 341.2,57.1 338.5,57.1 335.3,60.3 335.3,51.9 338.9,48.3 341.2,48.3 341.2,47.1 338.4,47.1 "/>
<polygon class="st3" points="348.4,51.6 349.3,50.7 345.7,47.1 343.2,47.1 343.2,48.3 345.1,48.3 "/>
<polygon class="st3" points="345.9,57.1 343.2,57.1 343.2,58.2 345.4,58.2 349,61.9 349,68.5 345.4,72.2 343.2,72.2 343.2,73.3 
	345.9,73.3 350.1,69.1 350.1,61.3 "/>
<path class="st3" d="M361.1,62.6l-6.3,10.7h-1.3l7-11.8L361.1,62.6z M369.5,73.3l-15.3-26.2h1.3l15.3,26.2H369.5z M364,57.9
	l-0.7-1.1l5.4-9.6h1.3L364,57.9z"/>
<polygon class="st3" points="320.9,133 320.9,131.9 325.9,131.9 325.9,156.9 330.5,156.9 330.5,158.1 320.2,158.1 320.2,156.9 
	324.8,156.9 324.8,133 "/>
<path class="st3" d="M361.1,147.4l-6.3,10.7h-1.3l7-11.8L361.1,147.4z M369.5,158.1l-15.3-26.2h1.3l15.3,26.2H369.5z M364,142.6
	l-0.7-1.1l5.4-9.6h1.3L364,142.6z"/>
<polygon class="st3" points="334.1,136.1 334.1,153.8 338.4,158.1 341.2,158.1 341.2,156.9 338.9,156.9 335.3,153.3 335.3,146.6 
	338.9,143 341.2,143 341.2,141.8 338.5,141.8 335.3,145 335.3,136.7 338.9,133 341.2,133 341.2,131.9 338.4,131.9 "/>
<polygon class="st3" points="348.4,136.3 349.3,135.5 345.7,131.9 343.2,131.9 343.2,133 345.1,133 "/>
<polygon class="st3" points="345.9,141.8 343.2,141.8 343.2,143 345.4,143 349,146.6 349,153.3 345.4,156.9 343.2,156.9 
	343.2,158.1 345.9,158.1 350.1,153.8 350.1,146.1 "/>
<polygon class="st3" points="382,48.7 382,49.8 382.5,50.3 385,50.3 386.2,51.6 386.2,53.6 385,54.8 381.5,54.8 380.4,53.8 
	381.3,52.9 382.2,53.7 384.3,53.7 384.8,53.1 384.8,52.1 384.3,51.5 381.8,51.5 380.6,50.3 380.6,48.2 381.8,47 385,47 386,48 
	385.1,49 384.3,48.2 382.5,48.2 "/>
<polygon class="st3" points="390.9,54.8 389.3,49.8 389.1,49 389.1,49 389.1,54.8 387.8,54.8 387.8,47.1 389.9,47.1 391.4,52.1 
	391.6,53.1 391.7,53.1 391.9,52.1 393.4,47.1 395.4,47.1 395.4,54.8 394,54.8 394,49 393.9,49 393.8,49.8 392.2,54.8 "/>
<path class="st3" d="M398.4,54.8H397v-7.7h4.1l1.2,1.2v2.8l-1.2,1.2h-2.3l-0.4-0.3V54.8z M400.3,48.2h-2v3h2l0.6-0.6v-1.8
	L400.3,48.2z"/>
<rect x="404.1" y="50.5" class="st3" width="3.1" height="1.2"/>
<polygon class="st3" points="408.3,48.3 408.3,47.1 410.8,47.1 410.8,54.8 409.4,54.8 409.4,48.3 "/>
<path class="st3" d="M422,50l-0.7,0.7l1,1v1.9l-1.2,1.2h-4.4v-7.7h4.1l1.2,1.2V50z M420,48.2h-2v2.1h2l0.5-0.5v-1L420,48.2z
	 M418,53.7h2.2l0.6-0.6V52l-0.6-0.6H418V53.7z"/>
<path class="st3" d="M428.2,54.8l-0.5-1.8h-2.4l-0.5,1.8h-1.3l2.3-7.7h1.6l2.4,7.7H428.2z M426.3,49.5l-0.7,2.4h1.8l-0.7-2.4
	l-0.1-0.9h-0.1L426.3,49.5z"/>
<polygon class="st3" points="435.4,48.3 433.2,48.3 433.2,54.8 431.8,54.8 431.8,48.3 429.7,48.3 429.7,47.1 435.4,47.1 "/>
<polygon class="st3" points="442.5,48.3 440.4,48.3 440.4,54.8 439,54.8 439,48.3 436.8,48.3 436.8,47.1 442.5,47.1 "/>
<polygon class="st3" points="445.4,51.4 445.4,53.6 448.8,53.6 448.8,54.8 444,54.8 444,47.1 448.8,47.1 448.8,48.3 445.4,48.3 
	445.4,50.3 448.4,50.3 448.4,51.4 "/>
<path class="st3" d="M454.6,54.8l-1.7-3h-1.2v3h-1.4v-7.7h4l1.2,1.2v2.2l-1.2,1.2l1.8,3.1H454.6z M453.7,48.2h-1.9v2.5h1.9l0.6-0.6
	v-1.3L453.7,48.2z"/>
<polygon class="st3" points="458.1,47.1 459.5,50.1 459.7,50.9 459.8,50.9 460,50.1 461.3,47.1 462.7,47.1 460.4,52 460.4,54.8 
	458.9,54.8 458.9,52 456.5,47.1 "/>
<polygon class="st2" points="388.2,71 386.2,73.1 382.5,73.1 380.4,71 380.4,69 382.9,69 382.9,69.9 383.6,70.6 385,70.6 
	385.8,69.9 385.8,68.5 385,67.8 382.5,67.8 380.4,65.7 380.4,62.1 382.5,60 386.2,60 388.2,62.1 388.2,64.1 385.8,64.1 385.8,63.2 
	385,62.5 383.6,62.5 382.9,63.2 382.9,64.6 383.6,65.3 386.2,65.3 388.2,67.4 "/>
<path class="st2" d="M395.6,73.1h-3.7l-2-2v-9l2-2h3.7l2.1,2v9L395.6,73.1z M395.1,69.9v-6.7l-0.7-0.7H393l-0.7,0.7v6.7l0.7,0.7h1.4
	L395.1,69.9z"/>
<polygon class="st2" points="407,73.1 404.6,73.1 404.6,67.8 401.7,67.8 401.7,73.1 399.2,73.1 399.2,60 401.7,60 401.7,65.3 
	404.6,65.3 404.6,60 407,60 "/>
<polygon class="st2" points="388.2,156.2 386.2,158.2 382.5,158.2 380.4,156.2 380.4,154.1 382.9,154.1 382.9,155 383.6,155.8 
	385,155.8 385.8,155 385.8,153.6 385,152.9 382.5,152.9 380.4,150.9 380.4,147.2 382.5,145.1 386.2,145.1 388.2,147.2 388.2,149.3 
	385.8,149.3 385.8,148.3 385,147.6 383.6,147.6 382.9,148.3 382.9,149.7 383.6,150.5 386.2,150.5 388.2,152.5 "/>
<path class="st2" d="M395.6,158.2h-3.7l-2-2v-9l2-2h3.7l2.1,2v9L395.6,158.2z M395.1,155v-6.7l-0.7-0.7H393l-0.7,0.7v6.7l0.7,0.7
	h1.4L395.1,155z"/>
<polygon class="st2" points="407,158.2 404.6,158.2 404.6,152.9 401.7,152.9 401.7,158.2 399.2,158.2 399.2,145.1 401.7,145.1 
	401.7,150.5 404.6,150.5 404.6,145.1 407,145.1 "/>
<path class="st2" d="M421.5,153.9h1v2.6h-1v1.7h-2.6v-1.7h-4.9v-2.5l4.7-8.9h2.9V153.9z M418.9,150.3l-1.9,3.7h1.9V150.3z"/>
<path class="st2" d="M432.4,147.3v8.8l-2.2,2.2h-4.2l-2.2-2.2v-8.8l2.2-2.2h4.2L432.4,147.3z M426.5,148.4v6.6l0.6,0.6h2l0.6-0.6
	v-6.6l-0.6-0.6h-2L426.5,148.4z"/>
<polygon class="st2" points="436.8,152.5 434.4,153.8 434.4,151.8 436.8,150.5 436.8,150.5 439.3,151.8 441.8,150.5 441.8,152.5 
	439.3,153.8 "/>
<path class="st2" d="M443.9,156.1v-3.6l0.8-0.8l-0.8-0.8v-3.6l2.2-2.2h4.2l2.2,2.2v3.6l-0.8,0.8l0.8,0.8v3.6l-2.2,2.2H446
	L443.9,156.1z M449.2,150.4l0.6-0.6v-1.4l-0.6-0.6h-2l-0.6,0.6v1.4l0.6,0.6H449.2z M447.1,155.6h2l0.6-0.6v-1.4l-0.6-0.6h-2.1
	l-0.6,0.6v1.4L447.1,155.6z"/>
<path class="st2" d="M462.6,147.3v8.8l-2.2,2.2h-4.2l-2.2-2.2v-8.8l2.2-2.2h4.2L462.6,147.3z M456.7,148.4v6.6l0.6,0.6h2l0.6-0.6
	v-6.6l-0.6-0.6h-2L456.7,148.4z"/>
<path class="st2" d="M464,146.7l1.2-1.3h1.9l1.2,1.3v2.8l-1.2,1.3h-1.9l-1.2-1.3V146.7z M472,145.2l-5.4,13.1H465l5.5-13.1H472z
	 M465.5,148.9h1.3v-1.7h-1.3V148.9z M469.3,153.6l1.2-1.3h1.9l1.2,1.3v2.8l-1.2,1.3h-1.9l-1.2-1.3V153.6z M470.8,155.9h1.3v-1.8
	h-1.3V155.9z"/>
<polygon class="st2" points="419.1,65.5 416.6,66.8 416.6,64.8 419.1,63.5 419.1,63.5 421.6,64.8 424.1,63.5 424.1,65.5 421.6,66.8 
	"/>
<polygon class="st2" points="419.1,68.9 416.6,70.2 416.6,68.2 419.1,66.9 419.1,66.9 421.6,68.2 424.1,66.9 424.1,68.9 421.6,70.2 
	"/>
<path class="st2" d="M434.6,70.9l-2.2,2.2h-4.2l-2.2-2.2v-1.9h2.6v0.8l0.6,0.6h2l0.6-0.6v-2h-3.7l-2.2-2.2v-3.5l2.2-2.2h4.2l2.2,2.2
	V70.9z M428.7,64.6l0.7,0.7h2.6v-2l-0.6-0.6h-2l-0.6,0.6V64.6z"/>
<polygon class="st2" points="436.6,65.8 436.6,60 445.1,60 445.1,62.6 439.2,62.6 439.2,64.7 439.7,65.2 442.9,65.2 445.1,67.5 
	445.1,70.9 443,73.1 438.8,73.1 436.6,70.9 436.6,69.1 439.2,69.1 439.2,69.8 439.8,70.5 441.9,70.5 442.5,69.8 442.5,68.5 
	441.8,67.9 438.7,67.9 "/>
<path class="st2" d="M447,61.5l1.2-1.3h1.9l1.2,1.3v2.8l-1.2,1.3h-1.9l-1.2-1.3V61.5z M455,60l-5.4,13.1H448l5.5-13.1H455z
	 M448.4,63.8h1.3V62h-1.3V63.8z M452.3,68.4l1.2-1.3h1.9l1.2,1.3v2.8l-1.2,1.3h-1.9l-1.2-1.3V68.4z M453.8,70.8h1.3V69h-1.3V70.8z"
	/>
<polygon class="st3" points="385.2,138.4 385.2,139.6 380.4,139.6 380.4,131.9 381.8,131.9 381.8,138.4 "/>
<polygon class="st3" points="388.2,136.2 388.2,138.4 391.6,138.4 391.6,139.6 386.8,139.6 386.8,131.9 391.6,131.9 391.6,133.1 
	388.2,133.1 388.2,135.1 391.2,135.1 391.2,136.2 "/>
<path class="st3" d="M397.6,139.6l-0.5-1.8h-2.4l-0.5,1.8h-1.3l2.3-7.7h1.6l2.4,7.7H397.6z M395.7,134.3l-0.7,2.4h1.8l-0.7-2.4
	l-0.1-0.9h-0.1L395.7,134.3z"/>
<polygon class="st3" points="402,136.6 402,139.6 400.6,139.6 400.6,131.9 405.4,131.9 405.4,133.1 402,133.1 402,135.4 405,135.4 
	405,136.6 "/>
<path class="st3" d="M417.4,134.8l-0.7,0.7l1,1v1.9l-1.2,1.2h-4.4v-7.7h4.1l1.2,1.2V134.8z M415.4,133h-2v2.1h2l0.5-0.5v-1
	L415.4,133z M413.4,138.5h2.2l0.6-0.6v-1.1l-0.6-0.6h-2.2V138.5z"/>
<path class="st3" d="M423.5,139.6l-0.5-1.8h-2.4l-0.5,1.8h-1.3l2.3-7.7h1.6l2.4,7.7H423.5z M421.6,134.3l-0.7,2.4h1.8l-0.7-2.4
	l-0.1-0.9h-0.1L421.6,134.3z"/>
<polygon class="st3" points="430.7,133.1 428.5,133.1 428.5,139.6 427.1,139.6 427.1,133.1 425,133.1 425,131.9 430.7,131.9 "/>
<polygon class="st3" points="437.8,133.1 435.6,133.1 435.6,139.6 434.2,139.6 434.2,133.1 432.1,133.1 432.1,131.9 437.8,131.9 "/>
<polygon class="st3" points="440.7,136.2 440.7,138.4 444.1,138.4 444.1,139.6 439.3,139.6 439.3,131.9 444.1,131.9 444.1,133.1 
	440.7,133.1 440.7,135.1 443.8,135.1 443.8,136.2 "/>
<path class="st3" d="M450,139.6l-1.7-3h-1.2v3h-1.4v-7.7h4l1.2,1.2v2.2l-1.2,1.2l1.8,3.1H450z M449,133h-1.9v2.5h1.9l0.6-0.6v-1.3
	L449,133z"/>
<polygon class="st3" points="453.7,131.9 455,134.9 455.3,135.7 455.3,135.7 455.5,134.9 456.9,131.9 458.3,131.9 455.9,136.8 
	455.9,139.6 454.4,139.6 454.4,136.8 452.1,131.9 "/>
<path class="st1" d="M484.9,17.3H11.6H8.5v3.1V186v3.1h3.1H54c1.4-0.8,3.5-2.1,5.2-3.1H11.6V20.4h283.4v81.2v3.1V186H144.6
	c1.9,0.9,4.2,2.1,6.2,3.1h334.1h3.1V186V20.4v-3.1H484.9z M484.9,186H298v-81.2h186.8V186z M484.9,101.6H298V20.4h186.8V101.6z"/>
<polygon class="st4" points="570.7,227.8 570.7,227.7 570.8,227.5 570.9,227.4 570.8,227.1 570.8,227.1 538.8,227.1 538.8,227.9 
	570.8,227.9 "/>
<polygon class="st4" points="597.8,227.1 597.7,227.9 634.3,227.9 634.3,227.1 "/>
<polygon class="st4" points="577.6,211.4 577.6,176.7 576.7,176.7 576.7,212.4 "/>
<polygon class="st4" points="577.2,249.4 576.8,249.2 576.7,249.1 576.7,272.2 577.6,272.2 577.6,249.6 "/>
<path class="st4" d="M570.6,226l0.1,0.8l0,0h3c1.5,0,2.8-1.2,2.8-2.8v-11.3l0,0l0,0.8l-0.1,0.2l-0.4,0.3l-0.1,0.2l0,0.2l-0.1,0.1
	l-0.2,0.1l-0.2,0.1l-0.2,0.2l-0.2,0.4l-0.4,1.2l-0.3,0.6l-0.2,0.6l-0.2,0.2l-0.5,0.5l-0.1,0.2l-0.1,0.5l-0.1,0.2l-0.4,0.3l-0.1,0.1
	l-0.1,0.2l-0.5,0.6l-0.1,0.2l-0.2,0.7l-0.3,0.7l-0.4,0.6l-0.3,0.7l-0.1,0.9l0,0.4L570.6,226z"/>
<path class="st4" d="M577.9,224c0,1.5,1.2,2.8,2.8,2.8l17.3,0l0.6-3.5l0.4-0.7l0.6-3l0.5-1.3l0.3-1.2l0-0.5l0.1-0.3l0.3-0.4l0.1-0.3
	l0-0.2l-0.1-0.1l-0.1-0.1l-0.1-0.2l-0.1-0.4l0-0.4l0.1-0.3l0.6-0.8l0.2-0.9l0.2-0.5l0.2-0.2l0.5-0.4l0.1-0.1l-0.1-0.2l0.1-0.2
	l0.4-0.3l0.5-0.7l0.4-0.4l0.1-0.2v-0.1l-0.1-0.1l-0.1-0.1l-0.1-0.1l-0.1-0.1l0-0.1l0.1-0.1l0-0.1l0-0.5l0.1-0.2l0.1-0.2l0.1-0.2
	l0-0.5l0-0.2l0.5-0.6l0.5-0.3l0.2-0.2l0-0.2l-0.1-0.2l-0.1-0.2l0-0.2l0.5-0.3l0.1-0.4l-0.1-0.5l-0.2-0.4l0.1-0.1l0.2-0.1l0.2,0
	l0.2,0v-0.1l-0.6-0.1l-0.5-0.3l-0.3-0.5l0-0.6l0.1-0.3l0-0.3l-0.3-1.2l0-0.6l0-0.6l0.1-0.6l0.2-0.5l0.2-0.4l1.4-1.7l0.4-0.4l1.6-0.8
	l-0.2-0.2l-0.3-0.1l-0.3-0.1l-0.3,0l-0.5,0.1l-0.2-0.1l-0.2-0.3l-0.2-0.7l0-0.4l0-0.2l0.1-0.3l-0.2-0.2l-3.5-0.8l-0.3-0.1l-0.1-0.1
	l-0.1-0.1l-0.3-0.2l-0.1-0.1v-0.2l0.1-0.1l0.1-0.1v-0.1l-0.2-0.1l-0.2,0l-0.2,0.1l-0.1,0l-0.3-0.6l-0.8-1.1l-0.3-0.3l-0.8-0.1
	l-0.8,0.2l-0.7,0.4l-0.5,0.4l-0.2,0.4l-0.2,0.4l-0.1,0.1l-0.1,0.1l-0.1,0.1L596,190l0.2,0.1l0.4,0.4l0.3,0.4l-0.3,0.1l-0.1-0.1
	l-0.1-0.2l-0.1-0.2l-0.3-0.1h-0.2l-0.2,0l-0.1,0.1L595,191l-0.4,0.1l-2.4,0.4l-0.7,0.2l-0.4,0.2l-0.3,0.2l-0.3,0.2l-1.4,0.4
	l-0.5,0.5l-0.5,0.6l-0.8,1.3l-0.2,0.5l-0.1,0.2l0,0.1l-0.2,0.1l-0.2,0.2l-0.2,0.2l-0.1,0.2l-0.1,0.3l-0.1,0.2l-0.1,0.2l-0.1,0.2
	l0.1,0.2l0.1,0.1v0.1l-0.1,0.1l-0.2,0.2l-0.4,0.9l-0.1,0.4l-0.3,0.1l-0.1,0.1l-0.1,0.4l-0.3,0.3l-0.2,0.3l0.1,0.4l-0.5-0.1l-0.4,0.1
	l-0.4,0.3l-0.3,0.3l-0.1,0.2l-0.1,0.2l-0.1,0.2l-0.5,0.1l-0.1,0.2l-0.1,0.5l-0.4,0.8l-0.2,0.4l-0.1,0.5l-0.1,0.3l-1.6,1.7l-0.2,0.4
	l-0.2,0.8l-0.7,1.2l-0.2,0.9l-0.2,0.5l-0.1,0V224z"/>
<path class="st4" d="M580.6,228.2c-1.5,0-2.8,1.2-2.8,2.8v18.7l0.1,0l0.3,0.2l0,0.1l0.1,0.3l0.1,0l0.1,0l0.2,0.1l0.6,0.5l0.2,0.2
	l0.3,0.7l0.4,0.5l0.1,0.2l1.5,3.9l0,0.2l-0.2,0.3l0,0.2v0.8l0,0.3v0.1l0,0.2l0.4,0.7l-0.1,0.5l0,0.2l0.3,0.2l0.3,0.1l0.2-0.2l0-0.5
	l0.6,0.1l0.6,0.3l0.5,0.4l0.4,0.5l0-0.4l-0.1-0.7l0-0.6l0.3-0.3l0.3-0.2l0.2-0.5l0.1-0.6l-0.1-5l0.1-1.2l0.1-0.4l0.7-1.3l0.4-1.3
	l0.1-0.9l0.3-0.4l0.6-0.8l0.2-0.4l0.4-1l0.2-0.2l0.2-0.1l0.8-0.9l1.2-0.8l0.4-0.3l0.4-0.5l0.2-0.3l0.1-0.2l0-0.2l-0.1-0.5l0-0.2
	l0.2-0.3l1.1-0.9l0.1-0.2l0.8-1.1l0.2-0.5l0.2-1l0.4-0.6l0.1-0.4l0.1-0.2l0.2-0.2l0.4-0.3l0.2-0.2l0.4-0.8l0.1-0.7l0-0.8l0.1-0.9
	l0.2-0.5l0.2-0.4l0.5-0.7l0.2-0.4l0.3-1.9H580.6z"/>
<path class="st4" d="M576.4,231c0-1.5-1.2-2.8-2.8-2.8h-2.9l-0.1,0.1l0.3,0.6l-0.3,1l-0.1,0.1l-0.1,0l-0.1,0.1v0.3l0.2-0.1l0.2,0
	l0.1,0.1l0.1,0.2l-0.1,0l-0.2,0.2l-0.2,0.3l0,0.1l-0.2,0.1l-0.1,0.1l-0.3,0.7l0,0.2l-0.1,0.1l-0.2,0.2l-0.1,0.3l0,0.2l0.1,0.2
	l0.1,0.3l-0.1,0.2l-0.2,0.1l-0.2,0.1l-0.1,0.3l0.2,0.2l0.3,0.3l0.1,0.2h-0.6v0.1l0.7,0.2l0.1,0.1l-0.1,0.2l-0.2,0.1l-0.3,0l-0.2,0.1
	l-0.1,0.2l-0.1,0.3l0.1,0.3l0.2,0.2l0.2,0l0.1-0.2l0.2-0.2l0.3,0.1l0.1,0.2l0,0.5l0.1,0.2h0.3l0.1-0.2l0.1-0.3l0.1-0.1l0.5,0.1
	l0.1,0.4l-0.2,0.5l-0.4,0.3l0.3,0.3l0.1,0.3l0.2,1.5l0.1,0.1l0.2,0.4l0.1,0.2l0.1,0.1l0.1,0.1l0,0.1l0,0.2l-0.1,0.3v0.2l0.1,0.3
	l0.4,0.8l0.4,0.6l0.2,0.4l0.1,0.4l-0.1,0.3l-0.2,0.4l0.1,0.4l0.3,0.3l0.7,0.6l0.4,0.4l0.3,0.5l0.1,0.6l-1-1.2l0.9,1.3l1,0.8h0.2
	l0.1,0l0.1,0l0.2,0.1l0.1,0.1V231z"/>
<polygon class="st4" points="550.7,268.4 542.6,268.4 542.6,260.3 538.8,260.3 538.8,272.2 550.7,272.2 "/>
<polygon class="st4" points="622.4,180.5 630.5,180.5 630.5,188.6 634.3,188.6 634.3,176.7 622.4,176.7 "/>
<polygon class="st4" points="538.8,176.7 538.8,188.6 542.6,188.6 542.6,180.5 550.7,180.5 550.7,176.7 "/>
<polygon class="st4" points="634.3,260.3 630.5,260.3 630.5,268.4 622.4,268.4 622.4,272.2 634.3,272.2 "/>
<path class="st4" d="M540.5,330.5l3.8-4c0.9-1,1.4-1.9,1.4-2.8c0-0.5-0.1-0.9-0.4-1.3c-0.3-0.3-0.7-0.5-1.3-0.4
	c-1.2,0-1.8,0.7-2,2.1h-1.1c0.1-0.9,0.4-1.7,0.9-2.2c0.5-0.5,1.3-0.8,2.2-0.8c0.9,0,1.6,0.2,2.1,0.7c0.5,0.5,0.8,1.1,0.8,1.9
	c0,1.1-0.6,2.2-1.9,3.5l-2.6,2.6h4.6v0.9h-6.4V330.5z"/>
<path class="st4" d="M549.8,330.1c-0.6-0.5-0.9-1.2-0.9-2.1h1.1c0.1,0.6,0.3,1.1,0.6,1.4c0.4,0.4,0.9,0.5,1.6,0.5
	c0.7,0,1.3-0.2,1.6-0.5c0.4-0.3,0.5-0.8,0.5-1.3c0-1.2-0.7-1.8-2-1.8h-0.7v-1h0.7c1.2,0,1.8-0.5,1.8-1.6c0-0.5-0.1-0.9-0.4-1.2
	c-0.3-0.3-0.7-0.4-1.3-0.4c-0.6,0-1,0.2-1.4,0.5c-0.4,0.3-0.6,0.8-0.7,1.3h-1c0-0.8,0.3-1.4,0.9-1.9s1.3-0.8,2.2-0.8
	c0.9,0,1.6,0.2,2.1,0.7c0.5,0.5,0.8,1.1,0.8,1.8c0,1-0.5,1.7-1.5,2.1c0.6,0.2,1,0.4,1.3,0.8c0.3,0.4,0.5,0.9,0.5,1.6
	c0,0.9-0.3,1.5-0.9,2c-0.6,0.5-1.4,0.7-2.4,0.7C551.2,330.9,550.4,330.6,549.8,330.1"/>
<path class="st4" d="M558.5,324.8c-0.4-0.4-0.6-0.9-0.6-1.5s0.2-1.1,0.6-1.5c0.4-0.4,0.9-0.6,1.5-0.6c0.6,0,1.1,0.2,1.5,0.6
	s0.6,0.9,0.6,1.5s-0.2,1.1-0.6,1.5c-0.4,0.4-0.9,0.6-1.5,0.6C559.5,325.4,559,325.2,558.5,324.8 M559.2,324.2
	c0.2,0.3,0.5,0.4,0.9,0.4c0.4,0,0.6-0.1,0.9-0.4c0.2-0.3,0.3-0.6,0.3-1c0-0.4-0.1-0.7-0.3-1c-0.2-0.3-0.5-0.4-0.9-0.4
	c-0.4,0-0.6,0.1-0.9,0.4c-0.2,0.3-0.4,0.6-0.4,1C558.8,323.6,559,324,559.2,324.2"/>
<path class="st4" d="M564.3,330.5l3.8-4c0.9-1,1.4-1.9,1.4-2.8c0-0.5-0.1-0.9-0.4-1.3c-0.3-0.3-0.7-0.5-1.3-0.4
	c-1.2,0-1.8,0.7-2,2.1h-1.1c0.1-0.9,0.4-1.7,0.9-2.2c0.5-0.5,1.3-0.8,2.2-0.8c0.9,0,1.6,0.2,2.1,0.7c0.5,0.5,0.8,1.1,0.8,1.9
	c0,1.1-0.6,2.2-1.9,3.5l-2.6,2.6h4.6v0.9h-6.4V330.5z"/>
<path class="st4" d="M574.6,330.6c-0.5-0.2-0.9-0.5-1.2-1c-0.3-0.4-0.5-1-0.5-1.6c0-0.6,0.2-1.1,0.5-1.5c0.3-0.4,0.8-0.7,1.3-0.9
	c-0.4-0.2-0.8-0.4-1.1-0.8c-0.3-0.3-0.4-0.8-0.4-1.2c0-0.7,0.3-1.3,0.9-1.8c0.6-0.5,1.3-0.7,2-0.7s1.4,0.2,2,0.7
	c0.6,0.5,0.9,1,0.9,1.8c0,0.9-0.5,1.6-1.5,2c1.2,0.4,1.8,1.3,1.8,2.4c0,0.9-0.3,1.6-1,2.1c-0.6,0.5-1.4,0.8-2.3,0.8
	C575.6,330.9,575,330.8,574.6,330.6 M574.6,326.6c-0.4,0.3-0.6,0.8-0.6,1.4c0,0.6,0.2,1.1,0.6,1.4c0.4,0.3,0.9,0.5,1.5,0.5
	c0.6,0,1.1-0.2,1.5-0.5c0.4-0.3,0.6-0.8,0.6-1.4c0-0.6-0.2-1.1-0.6-1.4c-0.4-0.3-0.9-0.5-1.5-0.5C575.5,326.1,575,326.3,574.6,326.6
	 M574.9,324.8c0.3,0.3,0.8,0.4,1.3,0.4s0.9-0.1,1.2-0.4c0.3-0.3,0.5-0.7,0.5-1.1c0-0.5-0.2-0.9-0.5-1.1c-0.3-0.3-0.7-0.4-1.2-0.4
	s-0.9,0.1-1.3,0.4c-0.3,0.3-0.5,0.7-0.5,1.1C574.3,324.1,574.5,324.5,574.9,324.8"/>
<polygon class="st4" points="581.9,321.3 583.1,321.3 582.9,324.5 582.1,324.5 "/>
<path class="st4" d="M592.7,329.6c-0.6,0.8-1.5,1.3-2.7,1.3c-1.1,0-2.1-0.4-2.8-1.3c-0.7-0.8-1-2-1-3.3v-0.5c0-1.4,0.3-2.5,1-3.4
	c0.7-0.8,1.6-1.2,2.7-1.3c1.2,0,2.1,0.4,2.7,1.3c0.7,0.8,1,2,1,3.3v0.5C593.7,327.7,593.4,328.8,592.7,329.6 M588.1,329
	c0.5,0.6,1.1,0.9,1.9,0.9c0.8,0,1.4-0.3,1.9-0.9c0.4-0.6,0.6-1.5,0.6-2.7v-0.5c0-1.1-0.2-2-0.7-2.7c-0.4-0.7-1.1-1-1.9-1
	c-0.8,0-1.4,0.3-1.9,1c-0.4,0.6-0.7,1.5-0.7,2.7v0.5C587.4,327.5,587.7,328.4,588.1,329"/>
<path class="st4" d="M596,330.5l3.8-4c0.9-1,1.4-1.9,1.4-2.8c0-0.5-0.1-0.9-0.4-1.3c-0.3-0.3-0.7-0.5-1.3-0.4c-1.2,0-1.8,0.7-2,2.1
	h-1.1c0.1-0.9,0.4-1.7,0.9-2.2c0.5-0.5,1.3-0.8,2.2-0.8c0.9,0,1.6,0.2,2.1,0.7c0.5,0.5,0.8,1.1,0.8,1.9c0,1.1-0.6,2.2-1.9,3.5
	l-2.6,2.6h4.6v0.9H596V330.5z"/>
<path class="st4" d="M605.1,330.6c-0.2-0.2-0.3-0.4-0.3-0.6c0-0.2,0.1-0.4,0.3-0.6c0.2-0.2,0.4-0.2,0.6-0.2c0.2,0,0.4,0.1,0.6,0.2
	c0.2,0.2,0.3,0.4,0.3,0.6c0,0.2-0.1,0.4-0.3,0.6c-0.2,0.2-0.4,0.2-0.6,0.2C605.5,330.8,605.3,330.8,605.1,330.6"/>
<path class="st4" d="M614.5,329.6c-0.6,0.8-1.5,1.3-2.7,1.3c-1.1,0-2.1-0.4-2.8-1.3c-0.7-0.8-1-2-1-3.3v-0.5c0-1.4,0.3-2.5,1-3.4
	c0.7-0.8,1.6-1.2,2.7-1.3c1.2,0,2.1,0.4,2.7,1.3s1,2,1,3.3v0.5C615.5,327.7,615.2,328.8,614.5,329.6 M609.9,329
	c0.5,0.6,1.1,0.9,1.9,0.9c0.8,0,1.4-0.3,1.9-0.9c0.4-0.6,0.6-1.5,0.6-2.7v-0.5c0-1.1-0.2-2-0.7-2.7c-0.4-0.7-1.1-1-1.9-1
	c-0.8,0-1.4,0.3-1.9,1c-0.4,0.6-0.7,1.5-0.7,2.7v0.5C609.2,327.5,609.4,328.4,609.9,329"/>
<path class="st4" d="M618,321.3h1.2l-0.2,3.3h-0.8L618,321.3z M620.2,321.3h1.2l-0.2,3.3h-0.8L620.2,321.3z"/>
<polygon class="st4" points="624.5,321.3 626,321.3 630.6,329.1 630.6,321.3 631.7,321.3 631.7,330.8 630.4,330.8 625.6,322.6 
	625.6,330.8 624.5,330.8 "/>
<polygon class="st4" points="542.6,339.9 540.5,341.5 540.5,340.4 542.7,338.8 543.8,338.8 543.8,348.3 542.6,348.3 "/>
<path class="st4" d="M546,348l3.8-4c0.9-1,1.4-1.9,1.4-2.8c0-0.5-0.1-0.9-0.4-1.3c-0.3-0.3-0.7-0.5-1.3-0.4c-1.2,0-1.8,0.7-2,2.1
	h-1.1c0.1-0.9,0.4-1.7,0.9-2.2c0.5-0.5,1.3-0.8,2.2-0.8c0.9,0,1.6,0.2,2.1,0.7c0.5,0.5,0.8,1.1,0.8,1.9c0,1.1-0.6,2.2-1.9,3.5
	l-2.6,2.6h4.6v0.9H546V348z"/>
<path class="st4" d="M560.9,347.1c-0.6,0.8-1.5,1.3-2.7,1.3c-1.1,0-2.1-0.4-2.8-1.3c-0.7-0.8-1-2-1-3.3v-0.5c0-1.4,0.3-2.5,1-3.4
	c0.7-0.8,1.6-1.2,2.7-1.3c1.2,0,2.1,0.4,2.7,1.3c0.7,0.8,1,2,1,3.3v0.5C561.9,345.2,561.5,346.3,560.9,347.1 M556.3,346.5
	c0.5,0.6,1.1,0.9,1.9,0.9c0.8,0,1.4-0.3,1.9-0.9c0.4-0.6,0.6-1.5,0.6-2.7v-0.5c0-1.1-0.2-2-0.7-2.7c-0.4-0.7-1.1-1-1.9-1
	c-0.8,0-1.4,0.3-1.9,1c-0.4,0.6-0.7,1.5-0.7,2.7v0.5C555.6,345,555.8,345.9,556.3,346.5"/>
<path class="st4" d="M564.7,342.3c-0.4-0.4-0.6-0.9-0.6-1.5s0.2-1.1,0.6-1.5c0.4-0.4,0.9-0.6,1.5-0.6c0.6,0,1.1,0.2,1.5,0.6
	c0.4,0.4,0.6,0.9,0.6,1.5s-0.2,1.1-0.6,1.5c-0.4,0.4-0.9,0.6-1.5,0.6C565.6,342.9,565.1,342.7,564.7,342.3 M565.3,341.7
	c0.2,0.3,0.5,0.4,0.9,0.4c0.3,0,0.6-0.1,0.9-0.4c0.2-0.3,0.3-0.6,0.3-1c0-0.4-0.1-0.7-0.3-1c-0.2-0.3-0.5-0.4-0.9-0.4
	c-0.4,0-0.6,0.1-0.9,0.4c-0.2,0.3-0.4,0.6-0.4,1S565.1,341.5,565.3,341.7"/>
<path class="st4" d="M570.1,348l3.8-4c0.9-1,1.4-1.9,1.4-2.8c0-0.5-0.1-0.9-0.4-1.3c-0.3-0.3-0.7-0.5-1.3-0.4c-1.2,0-1.8,0.7-2,2.1
	h-1.1c0.1-0.9,0.4-1.7,0.9-2.2c0.5-0.5,1.3-0.8,2.2-0.8c0.9,0,1.6,0.2,2.1,0.7c0.5,0.5,0.8,1.1,0.8,1.9c0,1.1-0.6,2.2-1.9,3.5
	l-2.6,2.6h4.6v0.9h-6.4V348z"/>
<path class="st4" d="M579.2,347.2c-0.5-0.8-0.8-1.8-0.8-3.1v-0.2c0-1.7,0.3-2.9,1-3.8c0.7-0.9,1.6-1.3,2.7-1.3
	c0.8,0,1.4,0.2,1.9,0.6c0.5,0.4,0.8,1,0.9,1.7h-1.1c-0.1-0.5-0.3-0.8-0.6-1c-0.3-0.2-0.7-0.3-1.2-0.3c-0.7,0-1.3,0.3-1.8,1
	c-0.4,0.7-0.7,1.6-0.7,2.8c0.2-0.4,0.6-0.7,1-0.9c0.4-0.2,0.9-0.4,1.5-0.4c0.9,0,1.7,0.3,2.3,0.9c0.6,0.6,0.9,1.4,0.9,2.3
	c0,0.9-0.3,1.7-0.9,2.3c-0.6,0.6-1.4,0.9-2.4,0.9C580.6,348.4,579.7,348,579.2,347.2 M583.4,346.9c0.4-0.4,0.6-0.9,0.6-1.6
	s-0.2-1.2-0.6-1.6c-0.4-0.4-0.9-0.6-1.5-0.6s-1.2,0.2-1.6,0.6c-0.4,0.4-0.6,0.9-0.6,1.6c0,0.7,0.2,1.2,0.6,1.7
	c0.4,0.4,0.9,0.6,1.6,0.6S583,347.3,583.4,346.9"/>
<polygon class="st4" points="587.4,338.8 588.6,338.8 588.4,342 587.6,342 "/>
<path class="st4" d="M594.2,346.3h-4.8v-0.4l4.3-7.1h1.5v6.6h1.3v0.9h-1.3v2h-1.1V346.3z M594.2,339.7l-3.3,5.7h3.3V339.7z"/>
<path class="st4" d="M599.4,347.2c-0.5-0.8-0.8-1.8-0.8-3.1v-0.2c0-1.7,0.3-2.9,1-3.8c0.7-0.9,1.6-1.3,2.7-1.3
	c0.8,0,1.4,0.2,1.9,0.6c0.5,0.4,0.8,1,0.9,1.7H604c-0.1-0.5-0.3-0.8-0.6-1c-0.3-0.2-0.7-0.3-1.2-0.3c-0.7,0-1.3,0.3-1.8,1
	c-0.4,0.7-0.7,1.6-0.7,2.8c0.2-0.4,0.6-0.7,1-0.9c0.4-0.2,0.9-0.4,1.5-0.4c0.9,0,1.7,0.3,2.3,0.9c0.6,0.6,0.9,1.4,0.9,2.3
	c0,0.9-0.3,1.7-0.9,2.3c-0.6,0.6-1.4,0.9-2.4,0.9C600.8,348.4,599.9,348,599.4,347.2 M603.6,346.9c0.4-0.4,0.6-0.9,0.6-1.6
	s-0.2-1.2-0.6-1.6c-0.4-0.4-0.9-0.6-1.5-0.6c-0.6,0-1.2,0.2-1.6,0.6c-0.4,0.4-0.6,0.9-0.6,1.6c0,0.7,0.2,1.2,0.6,1.7
	c0.4,0.4,0.9,0.6,1.6,0.6C602.7,347.5,603.2,347.3,603.6,346.9"/>
<path class="st4" d="M607.8,348.1c-0.2-0.2-0.3-0.4-0.3-0.6c0-0.2,0.1-0.4,0.3-0.6c0.2-0.2,0.4-0.2,0.6-0.2c0.2,0,0.4,0.1,0.6,0.2
	c0.2,0.2,0.3,0.4,0.3,0.6c0,0.2-0.1,0.4-0.3,0.6c-0.2,0.2-0.4,0.2-0.6,0.2C608.2,348.3,608,348.3,607.8,348.1"/>
<path class="st4" d="M612.4,347.6c-0.6-0.5-0.9-1.2-0.9-2.1h1.1c0.1,0.6,0.3,1.1,0.6,1.4c0.4,0.4,0.9,0.5,1.6,0.5
	c0.7,0,1.3-0.2,1.6-0.5c0.4-0.3,0.5-0.8,0.5-1.3c0-1.2-0.7-1.8-2-1.8h-0.7v-1h0.7c1.2,0,1.8-0.5,1.8-1.6c0-0.5-0.1-0.9-0.4-1.2
	c-0.3-0.3-0.7-0.4-1.3-0.4c-0.6,0-1,0.2-1.4,0.5c-0.4,0.3-0.6,0.8-0.7,1.3h-1c0-0.8,0.3-1.4,0.9-1.9c0.6-0.5,1.3-0.8,2.2-0.8
	c0.9,0,1.6,0.2,2.1,0.7c0.5,0.5,0.8,1.1,0.8,1.8c0,1-0.5,1.7-1.5,2.1c0.6,0.2,1,0.4,1.3,0.8c0.3,0.4,0.5,0.9,0.5,1.6
	c0,0.9-0.3,1.5-0.9,2c-0.6,0.5-1.4,0.7-2.4,0.7S613,348.1,612.4,347.6"/>
<path class="st4" d="M620.5,338.8h1.2l-0.2,3.3h-0.8L620.5,338.8z M622.7,338.8h1.2l-0.2,3.3h-0.8L622.7,338.8z"/>
<polygon class="st4" points="626.7,338.8 632.2,338.8 632.2,339.7 627.8,339.7 627.8,343 631.4,343 631.4,343.9 627.8,343.9 
	627.8,347.3 632.5,347.3 632.5,348.3 626.7,348.3 "/>
<path class="st4" d="M541.5,307.3c-1.2-1.3-1.8-3-1.8-5.1v-0.2c0-2.1,0.6-3.8,1.9-5.1c1.3-1.3,2.9-2,4.8-2c1.6,0,3,0.4,4.1,1.2
	c1.1,0.8,1.7,2,1.8,3.6h-2.6c-0.3-1.9-1.4-2.8-3.3-2.8c-1.2,0-2.2,0.4-2.9,1.3c-0.7,0.9-1.1,2.1-1.1,3.7v0.2c0,1.6,0.4,2.8,1.1,3.6
	c0.7,0.9,1.7,1.3,3,1.3c1,0,1.8-0.2,2.4-0.7c0.6-0.5,1-1.2,1.1-2.2h2.5c-0.2,1.6-0.8,2.9-1.9,3.7c-1.1,0.9-2.5,1.3-4.1,1.3
	C544.3,309.2,542.7,308.6,541.5,307.3"/>
<path class="st4" d="M554.4,294.2h2.3v6.3c0.3-0.5,0.7-1,1.2-1.3c0.6-0.3,1.2-0.5,2-0.5c1.1,0,1.9,0.3,2.5,1c0.6,0.7,0.9,1.6,0.9,3
	v6.4h-2.3v-6.1c0-0.8-0.2-1.3-0.5-1.7c-0.3-0.4-0.8-0.5-1.5-0.5s-1.3,0.2-1.7,0.6c-0.4,0.4-0.7,1-0.7,1.8v6h-2.3V294.2z"/>
<path class="st4" d="M566,296.9c-0.3-0.3-0.4-0.6-0.4-1c0-0.4,0.1-0.7,0.4-1c0.3-0.3,0.6-0.4,1-0.4c0.4,0,0.7,0.1,1,0.4
	c0.3,0.3,0.4,0.6,0.4,1c0,0.4-0.1,0.7-0.4,1c-0.3,0.3-0.6,0.4-1,0.4S566.3,297.1,566,296.9 M565.8,298.9h2.3V309h-2.3V298.9z"/>
<path class="st4" d="M570.9,308.5c-0.6-0.5-0.9-1.3-0.9-2.3c0-1.1,0.5-1.8,1.4-2.4c0.9-0.5,2.2-0.8,3.8-0.8h1.3v-0.5
	c0-0.7-0.1-1.2-0.4-1.5c-0.3-0.3-0.8-0.5-1.4-0.5c-1.2,0-1.8,0.5-1.9,1.6h-2.3c0.1-1.1,0.5-2,1.3-2.5c0.8-0.6,1.8-0.8,3-0.8
	c2.7,0,4,1.2,4,3.7v6.6h-2.3v-1.2c-0.7,1-1.8,1.4-3.1,1.4C572.4,309.2,571.6,309,570.9,308.5 M575.7,307c0.5-0.4,0.7-0.9,0.7-1.5v-1
	h-1.2c-1.9,0-2.9,0.5-2.9,1.6c0,0.9,0.5,1.4,1.6,1.4C574.7,307.5,575.3,307.4,575.7,307"/>
<polygon class="st4" points="583.6,308 579.6,298.9 582.1,298.9 584.8,305.4 587.3,298.9 589.6,298.9 584.1,312.5 581.8,312.5 "/>
<path class="st4" d="M591.1,296.9c-0.3-0.3-0.4-0.6-0.4-1c0-0.4,0.1-0.7,0.4-1c0.3-0.3,0.6-0.4,1-0.4c0.4,0,0.7,0.1,1,0.4
	c0.3,0.3,0.4,0.6,0.4,1c0,0.4-0.1,0.7-0.4,1c-0.3,0.3-0.6,0.4-1,0.4C591.7,297.3,591.4,297.1,591.1,296.9 M591,298.9h2.3V309H591
	V298.9z"/>
<path class="st4" d="M601.2,307.3c-1.2-1.3-1.8-3-1.8-5.1v-0.2c0-2.1,0.6-3.8,1.9-5.1c1.3-1.3,2.9-2,4.8-2c1.6,0,3,0.4,4.1,1.2
	c1.1,0.8,1.7,2,1.9,3.6h-2.6c-0.3-1.9-1.4-2.8-3.3-2.8c-1.2,0-2.2,0.4-2.9,1.3c-0.7,0.9-1.1,2.1-1.1,3.7v0.2c0,1.6,0.4,2.8,1.1,3.6
	c0.7,0.9,1.7,1.3,3,1.3c1,0,1.8-0.2,2.4-0.7c0.6-0.5,1-1.2,1.1-2.2h2.5c-0.2,1.6-0.8,2.9-1.9,3.7c-1.1,0.9-2.5,1.3-4.1,1.3
	C604,309.2,602.3,308.6,601.2,307.3"/>
<path class="st4" d="M614.2,296.9c-0.3-0.3-0.4-0.6-0.4-1c0-0.4,0.1-0.7,0.4-1c0.3-0.3,0.6-0.4,1-0.4c0.4,0,0.7,0.1,1,0.4
	c0.3,0.3,0.4,0.6,0.4,1c0,0.4-0.1,0.7-0.4,1c-0.3,0.3-0.6,0.4-1,0.4C614.8,297.3,614.5,297.1,614.2,296.9 M614,298.9h2.3V309H614
	V298.9z"/>
<path class="st4" d="M619.9,308.4c-0.5-0.5-0.8-1.3-0.8-2.2v-5.5h-1.3v-1.8h1.3v-2.2h2.3v2.2h2.2v1.8h-2.2v5.3
	c0,0.9,0.4,1.3,1.2,1.3c0.5,0,0.8-0.1,1.1-0.2v1.9c-0.5,0.2-1,0.2-1.6,0.2C621.2,309.2,620.5,308.9,619.9,308.4"/>
<polygon class="st4" points="628.8,308 624.8,298.9 627.3,298.9 630,305.4 632.5,298.9 634.8,298.9 629.2,312.5 626.9,312.5 "/>
</svg>
