<?xml version="1.0" encoding="utf-8"?>
<!-- Generator: Adobe Illustrator 23.0.1, SVG Export Plug-In . SVG Version: 6.00 Build 0)  -->
<svg version="1.1" id="圖層_1" xmlns="http://www.w3.org/2000/svg" xmlns:xlink="http://www.w3.org/1999/xlink" x="0px" y="0px"
	 viewBox="0 0 862 484" style="enable-background:new 0 0 862 484;" xml:space="preserve">
<style type="text/css">
	.st0{opacity:0.75;}
	.st1{fill:#FFFFFF;}
</style>
<g class="st0">
	<g>
		<path class="st1" d="M388,1.4c4,0,8.1,0.1,12.5,0.2c12.4,0.4,25.3,1.9,38.4,4.3c14.7,2.7,28.8,6.5,42.2,11.1
			c15.6,5.5,30.6,12.2,44.7,20.1s27.8,17.1,40.3,27.3c4.7,3.8,9.8,8.2,15.9,13.8c4.9,4.5,9.9,9.6,15.4,15.6
			c7.6,8.2,14.7,17.2,21.4,26.5c10,13.9,18.7,28.9,26.1,44.6c6.9,14.6,12.5,30,16.7,45.6c3.4,12.5,6,25.5,7.7,38.8
			c0.7,5.4,1.2,11,1.5,16.7l0.1,2c0.3,5.7,0.7,11.6,0.6,17.4c-0.2,13.1-1,24.8-2.4,35.5c-2.6,19.8-7.3,39.3-13.8,58
			c-6.9,19.4-16,38.3-27.1,55.8c-6.9,11-14.7,21.7-23.2,31.8c-7,8.3-14.5,16.3-22.4,23.7c-12.1,11.4-25,21.7-38.7,30.6
			c-18.5,12.3-38.6,22.3-59.5,29.9c-15.5,5.6-32.1,10-49.4,13c-0.9,0.2-1.9,0.3-2.8,0.4c-0.7,0.1-1.4,0.2-2.1,0.3v-5.3
			c0-2.7,0-5.5,0-8.2c0-0.1,0-0.2,0-0.2l0,0c0,0,0.1-0.1,0.5-0.2c1.1-0.2,2.1-0.4,3.1-0.6c0.9-0.2,1.8-0.3,2.7-0.5
			c20.7-3.7,41.3-10.1,61.1-18.9c13.6-6.1,26.9-13.3,39.3-21.7c10.3-6.8,20-14.3,29-22.4c6.2-5.5,11.2-10.3,15.7-15
			c13.2-13.7,25-28.8,34.9-44.7c8.7-13.9,16.2-28.8,22.2-44.1c7.3-18.3,12.5-37.6,15.4-57.1c1.4-8.7,2.3-17.8,2.8-27.5
			c0.4-7.6,0.5-15.4,0.2-23.5c-0.4-12.2-1.7-24.5-3.8-36.6c-2.4-13.2-5.6-26.2-9.7-38.5c-9.6-28.8-24-55.8-42.9-80.2
			c-5.6-7.3-11.8-14.3-18.6-21.6c-17.1-17.8-36.6-33.3-58-45.9c-24.1-14.2-50.3-24.5-77.9-30.6c-9.9-2.3-20.4-3.9-31.2-5
			c-5.9-0.6-11.3-1-16.7-1.1c-1.4,0-2.6-0.1-4-0.1c-2.1-0.1-4.1-0.2-6.2-0.2c-0.5,0-1,0-1.5,0c-8.4,0.2-16.1,0.6-23.2,1.2
			c-15,1.3-30.2,4-45.3,8c-15.7,4.2-31.2,9.9-46,17.1c-11.4,5.5-22.5,11.7-32.8,18.6c-9.8,6.6-19.4,13.9-28.6,21.9
			c-6.7,5.8-13.3,12.3-19.7,19c-8.3,8.8-16.4,18.7-23.8,29.5c-7.5,10.7-14.3,22.1-20.2,34c-7.7,15.2-13.7,31.1-18.3,47.2
			c-3.5,12.7-6.2,25.5-7.8,38.3c-0.6,5.2-1.2,10.4-1.6,16.3c-0.5,6.9-0.9,15-0.7,23.1c0.3,11.4,1.1,21.7,2.5,31.5
			c2.5,18.1,6.7,35.8,12.7,52.9c6.4,18.3,14.7,35.7,24.8,52c7.8,12.5,16.3,24.1,25.4,34.7c5.9,6.8,10.8,12.1,15.6,16.7
			c17.1,16.6,35.7,30.7,55.5,42c16.7,9.5,34,17.1,51.8,22.8c12.6,3.9,25.1,7,37.4,8.9c0.2,0,0.4,0.1,0.6,0.1c0.3,0,0.5,0.1,0.8,0.1
			c0.4,0.1,0.6,0.1,0.5,0.7c0,1.6,0,3.1,0,4.6c0,0.7,0,1.5,0,2.2c0,0.6,0,1.1,0,1.7c0,1.5,0,2.9,0,4.4c0,0.1,0,0.2,0,0.3
			c-0.1,0-0.1,0-0.2,0l-1.4-0.2c-4-0.7-8.2-1.4-12.4-2.2c-20.1-4.1-39.7-10.3-58.3-18.5c-18.2-8-35.5-18.1-51.5-29.7
			c-9.1-6.7-18.3-14.2-27.2-22.4c-19.8-18.3-37-39.7-51-63.5c-14.4-24.3-25-50.7-31.5-78.4c-2.6-10.8-4.5-21.8-5.7-32.8
			c-1.3-11.8-1.9-22.5-1.7-32.6l0,0l0,0c-0.2-6.5,0-13.4,0.6-20.5c1.2-14.5,3.2-28.8,6.4-42.3c3.4-14.9,8-29.5,13.7-43.5
			c9.5-23.4,22.4-45.6,38.1-66.1c9.4-12.3,20.3-24.1,32.4-35.4c15.7-14.5,33.3-27.4,52.4-38.3c13.9-7.9,28.9-14.8,44.6-20.4
			c12.3-4.4,25.3-8,38.8-10.8c8.6-1.8,18-3.1,28.4-4.2C369.2,1.8,378.2,1.4,388,1.4L388,1.4 M388,0c-9.2,0-18.4,0.4-27.6,1.4
			c-9.6,1-19,2.4-28.5,4.2c-13.2,2.6-26.2,6.3-38.9,10.8c-15.5,5.6-30.5,12.4-44.8,20.5c-19,10.8-36.6,23.5-52.6,38.5
			c-11.8,11-22.8,22.8-32.6,35.5c-15.7,20.4-28.6,42.6-38.3,66.4c-5.8,14.2-10.4,28.8-13.8,43.7c-3.2,14-5.3,28.2-6.4,42.5
			c-0.6,7-0.8,13.9-0.6,20.7c-0.3,11.2,0.4,22,1.6,32.8c1.3,11.1,3.1,22.1,5.7,32.9c6.6,27.9,17.2,54.2,31.7,78.7
			c14,23.7,31,45,51.2,63.8c8.6,8,17.8,15.6,27.3,22.5c16.2,11.8,33.5,21.7,51.8,29.8c18.8,8.3,38.4,14.5,58.6,18.6
			c4.6,0.9,9.1,1.7,13.7,2.4c0.3,0.1,0.6,0.1,0.9,0.1c0.8,0,1-0.4,1-1.7c0.1-2.1,0-4.1,0-6.1c0-2.3,0-4.5,0-6.8c0-1.3-0.5-2-1.7-2.1
			c-0.4-0.1-0.9-0.2-1.3-0.2c-12.6-2.1-25-5-37.2-8.9c-18-5.7-35.1-13.2-51.5-22.6c-20.2-11.5-38.6-25.5-55.2-41.8
			c-5.4-5.3-10.5-10.9-15.5-16.6c-9.3-10.8-17.8-22.4-25.2-34.5c-10.1-16.4-18.3-33.7-24.6-51.8c-6-17.1-10.1-34.6-12.6-52.6
			c-1.4-10.4-2.2-20.8-2.4-31.3c-0.2-7.7,0.2-15.3,0.7-22.9c0.4-5.4,0.9-10.7,1.6-16.1c1.7-12.9,4.3-25.5,7.8-38.1
			c4.5-16.3,10.7-31.9,18.2-47c5.9-11.8,12.6-23,20.1-33.8c7.3-10.3,15.1-20.1,23.7-29.3c6.2-6.7,12.8-13,19.6-18.9
			c9-7.8,18.4-15.1,28.5-21.8c10.4-7,21.3-13.1,32.7-18.5c14.7-7.1,30-12.8,45.8-17c14.8-3.9,29.8-6.7,45.1-7.9
			c7.7-0.7,15.4-1,23.1-1.2c0.5,0,1,0,1.5,0c3.3,0,6.8,0.2,10.1,0.3c5.5,0.1,11.1,0.5,16.6,1.1c10.4,1.1,20.8,2.7,31,5
			c27.5,6.1,53.3,16.2,77.5,30.5c21.3,12.6,40.6,27.8,57.7,45.6c6.6,6.9,12.8,13.9,18.5,21.5c18.7,24.1,33,50.7,42.7,79.8
			c4.2,12.6,7.4,25.3,9.6,38.3c2.2,12.1,3.4,24.2,3.8,36.4c0.3,7.8,0.2,15.6-0.2,23.4c-0.5,9.1-1.4,18.3-2.7,27.4
			c-3,19.5-8.1,38.5-15.3,56.8c-6,15.3-13.4,29.9-22.1,43.9c-10,16.1-21.7,30.9-34.7,44.5c-5,5.2-10.3,10.1-15.7,14.9
			c-9.1,8-18.7,15.5-28.8,22.2c-12.5,8.2-25.5,15.5-39.2,21.6c-19.5,8.7-39.7,15-60.7,18.8c-2,0.4-3.8,0.7-5.8,1.1
			c-1,0.2-1.6,0.6-1.6,1.7c0,4.5,0,9,0,13.5c0,0.9,0.3,1.4,1.1,1.4c0.1,0,0.2,0,0.4,0c1.7-0.3,3.3-0.5,5-0.7
			c16.9-2.9,33.5-7.2,49.6-13.1c21.1-7.7,41-17.7,59.8-30c13.8-9.1,26.8-19.4,38.8-30.8c7.9-7.5,15.4-15.4,22.5-23.8
			c8.4-10.1,16.3-20.7,23.3-31.9c11.1-17.7,20.2-36.4,27.2-56.1c6.7-18.9,11.3-38.4,13.9-58.3c1.6-11.9,2.2-23.7,2.4-35.7
			c0.1-6.5-0.3-13-0.7-19.4c-0.3-5.6-0.8-11.2-1.6-16.8c-1.7-13.1-4.2-26.2-7.7-39c-4.3-15.8-9.9-31.1-16.8-45.9
			c-7.4-15.7-16.1-30.7-26.2-44.8c-6.7-9.3-13.8-18.3-21.6-26.7c-5-5.4-10.1-10.7-15.5-15.7c-5.3-4.7-10.6-9.4-16.1-13.8
			c-12.8-10.3-26.2-19.4-40.5-27.4c-14.4-8-29.4-14.7-44.9-20.2c-13.8-4.8-28-8.5-42.4-11.2c-12.8-2.4-25.6-3.8-38.6-4.3
			C396.3,0.1,392.2,0,388,0L388,0z"/>
	</g>
	<g>
		<path class="st1" d="M387.7,32.7c4.3,0,8.6,0.2,12.9,0.4l1.4,0.1c9.5,0.4,19.3,1.5,29.9,3.3c13.5,2.4,26.8,5.9,39.4,10.3
			c8.4,2.9,17.1,6.6,25.7,10.6c14.7,7,29,15.7,42.6,25.9c11.9,8.9,23.2,19,33.5,30.2c14.4,15.6,26.8,32.9,36.9,51.4
			c10.3,19,18.2,39.3,23.3,60.4c2.7,11.2,4.6,22.8,5.8,34.6c1.1,11.6,1.5,22.1,1.1,32.1c-0.6,16-2.5,31.5-5.7,45.8
			c-2.9,13.2-6.9,26.2-11.7,38.5c-5.8,14.6-13,28.8-21.3,42c-6.3,9.9-13.1,19.2-20.4,27.9c-8,9.5-16.7,18.3-25.6,26.3
			c-12,10.6-24.7,20-38.1,28c-20,12-41.5,21.1-63.8,27.1c-7.4,2-14.8,3.6-22.1,4.8c-0.1,0-0.1,0-0.2,0c-0.1,0-0.1,0-0.2,0
			c-0.2,0-0.5,0.1-0.7,0.1c0-0.2,0-0.4,0-0.8c0-0.7,0-1.3,0-2v-0.9v-2.6c0-2.2,0-4.2,0-6.4c0-0.4,0-1.1,0.1-1.4
			c0.3-0.1,1-0.2,1.3-0.3c7.9-1.5,15.4-3.2,22.7-5.4c11.2-3.2,22.5-7.5,33.3-12.5c10.6-4.9,21.1-10.7,31.1-17.3
			c8.3-5.5,16.5-11.6,24.2-18.3c6.3-5.4,12.8-11.6,19.7-19c7-7.4,13.6-15.6,19.9-24.5c7.5-10.5,14-21.6,19.5-32.9
			c9.7-19.9,16.6-40.9,20.4-62.4c1.6-8.6,2.6-17.7,3.2-26.8c0.6-8.5,0.6-17.6,0.2-26.8c-0.6-13.8-2.6-27.9-5.8-41.7
			c-3.4-14.9-8.3-29.5-14.5-43.5c-6.5-14.4-14.5-28.6-24-41.8c-8.8-12.3-19.1-24-30.5-34.8c-7.8-7.4-16.4-14.4-25.7-21
			c-11-7.8-22.8-14.7-35.2-20.6c-17.9-8.5-36.7-14.7-55.9-18.5c-8.3-1.7-17.3-2.8-26.5-3.6c-6.7-0.6-13.3-0.9-19.8-0.9
			c-2.7,0-5.6,0.1-8.3,0.2c-20.6,0.8-40.8,4.1-60.1,10c-14.7,4.4-29,10.4-42.6,17.6c-14.2,7.6-27.7,16.6-39.9,26.7
			c-7.3,6-13.3,11.7-18.8,17.2c-14.3,14.8-26.7,31.1-36.7,48.6c-8,13.9-14.6,28.8-19.6,44.1c-4.9,14.9-8.2,30.2-10,45.6
			c-1.2,10.4-1.8,19.7-1.7,28.5c0,27.7,4.8,54.8,14.1,80.6c8.3,23,20,44.4,34.8,63.8c8.1,10.7,17.2,20.6,26.9,29.5
			c14.2,13.1,29.8,24.6,46.6,34c22.2,12.4,46.2,21.1,71.3,25.9c0.9,0.2,1.8,0.3,2.1,0.5c0.1,0.3,0.1,1.2,0.1,2.1c0,3,0,6.1,0,9.1v1
			v0.4c0,0.4,0,0.7,0,1c0,0.1,0,0.2,0,0.3c-0.1,0-0.2,0-0.3,0c-2.7-0.5-5.9-1.1-8.9-1.7c-19.2-4.1-37.8-10.3-55.1-18.4
			c-19.6-9.2-38.2-21.1-55.1-35.2c-7.9-6.7-15.9-14.2-23.6-22.5c-13.1-14.1-24.6-30-34.2-47.2c-7.6-13.4-14-27.8-19-42.6
			c-5-14.8-8.7-30.2-10.8-45.8c-1.3-9.1-2-18.1-2.3-26.6c0-1.2-0.1-2.3-0.1-3.4c-0.1-2.7-0.2-5.6-0.1-8.3c0.5-19,2.6-36.3,6.5-53
			c5-21.8,13-42.9,23.6-62.6c7.8-14.4,17-28.2,27.5-40.8c7.2-8.6,14.2-16.2,21.6-23.2c14.6-13.4,30.7-25.4,47.7-35.1
			c15.7-8.9,32.1-16.2,48.7-21.4c13.6-4.3,27.7-7.5,41.7-9.4c10-1.4,19.9-2,28.4-2.3C383.8,32.7,385.7,32.7,387.7,32.7 M387.7,31.3
			c-1.9,0-3.7,0-5.6,0.1c-9.5,0.4-19,1-28.5,2.3c-14.2,2-28.3,5.1-41.9,9.4c-17.1,5.4-33.4,12.7-48.9,21.5
			c-17.5,10-33.5,22-48.2,35.7c-7.8,7.3-14.9,15.1-21.8,23.3c-10.6,12.8-19.8,26.5-27.7,41.1c-10.7,19.9-18.6,40.9-23.7,63
			c-4,17.6-6,35.3-6.5,53.2c-0.1,3.9,0.1,7.9,0.3,11.8c0.2,8.9,1,17.9,2.3,26.8c2.2,15.7,5.8,31.1,10.9,46
			c5,14.8,11.4,29.1,19.1,42.8c9.6,17.2,21.1,33,34.4,47.4c7.5,8,15.3,15.6,23.6,22.7c17,14.1,35.4,26,55.4,35.4
			c17.8,8.3,36.2,14.4,55.4,18.5c2.9,0.6,6,1.2,9,1.7c0.3,0.1,0.6,0.1,0.8,0.1c0.8,0,1.1-0.4,1.2-1.6c0-0.5,0-1,0-1.6
			c0-3.3,0-6.7,0-10c0-3.2,0-3.2-3.2-3.9c-25-4.8-48.7-13.3-70.9-25.8c-16.8-9.4-32.3-20.6-46.3-33.8c-9.7-9-18.6-18.8-26.7-29.4
			c-14.8-19.3-26.4-40.5-34.6-63.4c-9.3-25.8-13.9-52.6-14-80.1c-0.1-9.5,0.6-18.9,1.7-28.4c1.8-15.5,5.1-30.6,10-45.3
			c5-15.3,11.5-29.9,19.5-43.9c10.1-17.7,22.4-33.8,36.5-48.3c5.9-6.1,12.2-11.7,18.6-17.1c12.4-10.2,25.6-19,39.7-26.6
			c13.5-7.2,27.7-13,42.4-17.5c19.5-5.9,39.4-9.1,59.8-9.9c2.7-0.1,5.5-0.2,8.2-0.2c6.6,0,13.1,0.3,19.6,0.9
			c8.8,0.8,17.7,2,26.4,3.6c19.3,3.8,37.9,9.9,55.6,18.4c12.3,5.9,23.9,12.7,35,20.5c9,6.4,17.6,13.2,25.5,20.8
			c11.2,10.6,21.4,22.1,30.3,34.6c9.3,13.1,17.4,26.9,23.9,41.6c6.2,13.9,11.1,28.4,14.5,43.3c3.1,13.6,5.1,27.5,5.7,41.5
			c0.4,8.8,0.4,17.8-0.2,26.6c-0.6,8.9-1.7,17.9-3.1,26.7c-3.8,21.7-10.6,42.3-20.3,62.1c-5.6,11.4-12.1,22.3-19.4,32.7
			c-6.1,8.5-12.7,16.8-19.8,24.3c-6.3,6.6-12.8,13-19.6,18.9c-7.7,6.6-15.7,12.6-24,18.2c-9.9,6.5-20.2,12.3-30.9,17.2
			c-10.8,4.9-21.8,9-33.2,12.4c-7.5,2.2-14.9,3.9-22.6,5.3c-2.4,0.5-2.5,0.6-2.5,2.9c0,2.9,0,6,0,8.9c0,1,0,1.9,0,2.8
			c0,1.7,0.2,2.2,1.2,2.2c0.3,0,0.7,0,1.1-0.1c0.1,0,0.3-0.1,0.4-0.1c7.5-1.3,14.8-2.9,22.2-4.9c22.7-6.1,44.1-15.2,64.2-27.2
			c13.6-8.1,26.4-17.6,38.4-28.2c9.2-8.1,17.8-17,25.7-26.4c7.5-8.8,14.3-18.3,20.5-28.1c8.4-13.4,15.6-27.5,21.4-42.2
			c4.9-12.6,8.8-25.4,11.8-38.7c3.3-15.2,5.1-30.6,5.7-46.1c0.4-10.8-0.1-21.5-1.1-32.3c-1.2-11.8-3-23.4-5.8-34.8
			c-5.2-21.3-13-41.5-23.4-60.8c-10.2-18.8-22.6-36-37.1-51.7c-10.3-11.1-21.5-21.3-33.7-30.4c-13.4-10.1-27.7-18.8-42.9-26.1
			c-8.4-4-17-7.7-25.8-10.7c-13-4.5-26.2-7.9-39.6-10.4c-10-1.8-20-2.9-30.1-3.4C397.2,31.5,392.5,31.3,387.7,31.3L387.7,31.3z"/>
	</g>
	<g>
		<path class="st1" d="M388.3,65.1c4.3,0,8.7,0.2,13,0.4c10.5,0.5,21.2,2,32.7,4.4c15.6,3.3,30.8,8.3,45.2,14.9
			c17.6,8,34.1,18.4,49.4,31c6.8,5.6,12.6,11,17.7,16.3c13.4,14.1,24.7,29.3,33.8,45.3c9.5,17,16.7,34.9,21.3,53.3
			c2.6,10.2,4.4,20.6,5.5,31c1.1,10.8,1.5,20.6,1.2,29.9c-0.9,24.1-5.5,47.5-13.6,69.4c-6,16.1-13.9,31.5-23.5,45.6
			c-5.9,8.8-12.8,17.6-20.4,25.9c-15.1,16.6-32.8,30.8-52.4,42.2s-40.7,19.5-62.7,24.3c-0.4,0.1-0.8,0.2-1.2,0.3
			c-1.1,0.2-2.2,0.5-3.2,0.7c-0.1,0-0.2,0-0.3,0.1c0,0,0-0.1,0-0.2c0-2.8,0-5.7,0-8.4c0-1.7,0-3.2,0-4.9c0-0.4,0-0.4,0.4-0.5
			l0.5-0.1c1-0.2,2-0.4,2.9-0.7c13.9-3.2,27.4-7.9,39.8-13.6c15.6-7.2,30.4-16.4,44-27.4c7.6-6.2,14.8-13,21.6-20.3
			c10.1-11,19-23.1,26.5-35.8c9-15.4,16-32,20.7-49.4c2.7-10.1,4.7-20.7,6.1-32.2c1.2-10.2,1.5-20.8,0.9-32.5
			c-1-19-4.5-37.8-10.7-55.7c-7.8-22.6-19.3-43.7-34.4-62.5c-3.5-4.4-7.6-8.9-12.7-14.3c-10.4-10.8-22.2-20.5-34.9-28.9
			c-16.7-11-34.7-19.4-53.9-25.1c-11.5-3.4-23-5.8-34.1-7.2c-8.5-1-15.5-1.5-20.7-1.5c-0.6,0-1.2,0-1.7,0
			c-25.2,0-47.2,3.6-69.4,11.2c-22.8,7.8-44.1,19.8-63.2,35.3c-7.4,6.1-14.5,12.8-21.1,19.9c-11.8,12.8-21.9,27.1-30.2,42.6
			s-14.6,32.1-18.6,49.3c-2.2,9.1-3.7,18.5-4.7,28.8c-0.8,8-1,16.4-0.8,25.5c0.3,9.8,1.4,19.9,3.2,29.9
			c3.7,20.6,10.6,40.4,20.3,58.8c6.9,13.1,15.1,25.3,24.6,36.6c4.3,5.1,8.3,9.5,12.3,13.4c17.7,17.6,38.1,31.6,60.4,41.8
			c13.1,5.9,26.8,10.5,41,13.6c0.6,0.1,1.2,0.3,1.5,0.4c0.1,0.3,0.1,1,0.1,1.4c0,3.7,0,7.8,0,11.8c0,0.3,0,0.5,0,0.7
			c-0.2,0-0.5-0.1-0.7-0.1c-8-1.5-16.1-3.6-24.7-6.4c-12-3.8-23.6-8.8-34.7-14.7c-13.1-7-25.3-15.1-36.5-24.2
			c-5.7-4.7-10.7-9.1-15.2-13.6c-13.9-13.7-25.9-29.1-35.5-45.6c-13.9-23.9-23.2-49.8-27.4-77c-1.4-8.8-2.2-17.6-2.4-25.9
			c0-1.2-0.1-2.4-0.1-3.4c-0.1-2.1-0.2-4.2-0.1-6.3c0.5-17.8,2.4-33.6,6-48.4c4.2-17.7,10.5-34.6,18.7-50.3
			c7.7-14.8,17.1-28.8,28-41.5c5.7-6.7,12-13.1,18.6-19.3c12.1-11.1,25.4-20.9,39.8-29.1c12.7-7.2,26.1-13.1,40-17.8
			c12.9-4.2,26.1-7.3,39.5-9c7.8-1,15.5-1.5,23.4-1.8C384.5,65.1,386.3,65.1,388.3,65.1 M388.3,63.7c-1.9,0-3.7,0-5.5,0.1
			c-7.8,0.4-15.7,0.8-23.5,1.9c-13.5,1.8-26.8,4.8-39.7,9c-14,4.6-27.5,10.6-40.2,17.9c-14.5,8.2-27.9,18.1-40.1,29.3
			c-6.7,6.1-13,12.6-18.8,19.5c-11,12.9-20.4,26.8-28.2,41.7c-8.3,16.1-14.6,33-18.8,50.6c-3.8,16-5.6,32.3-6,48.7
			c-0.1,3.2,0.2,6.6,0.3,9.8c0.2,8.7,1.1,17.5,2.4,26.1c4.3,27.6,13.5,53.5,27.6,77.5c9.9,16.9,21.8,32.2,35.7,45.9
			c4.9,4.8,10,9.3,15.3,13.7c11.4,9.4,23.6,17.5,36.7,24.3c11.2,6,22.9,10.9,34.9,14.8c8.1,2.6,16.5,4.9,24.9,6.5
			c0.6,0.1,1,0.2,1.3,0.2c0.9,0,1-0.5,1-2.1c0-3.9,0-7.9,0-11.8c0-2.6-0.1-2.6-2.6-3.1c-14-3-27.7-7.6-40.8-13.5
			c-22.5-10.2-42.5-24.1-60.1-41.5c-4.3-4.2-8.3-8.7-12.3-13.3c-9.4-11.3-17.7-23.4-24.4-36.4c-9.7-18.4-16.4-37.9-20.1-58.4
			c-1.8-9.8-2.8-19.7-3.1-29.7c-0.3-8.4-0.1-16.9,0.8-25.3c1-9.6,2.5-19.2,4.7-28.7c4-17.1,10.2-33.4,18.5-48.9
			c8.2-15.4,18.3-29.4,30-42.3c6.5-7.1,13.5-13.6,21-19.8c18.8-15.4,39.7-27.2,62.8-35.1c21.5-7.5,43.7-11.1,68.9-11.2
			c0.5,0,1.1,0,1.7,0c5.7,0,13.1,0.6,20.5,1.5c11.5,1.4,22.9,3.7,34,7.1c19,5.7,36.9,14,53.5,24.9c12.7,8.3,24.2,17.9,34.7,28.8
			c4.4,4.6,8.6,9.2,12.7,14.2c15,18.7,26.5,39.3,34.2,62c6.2,18,9.7,36.4,10.6,55.3c0.5,10.8,0.4,21.6-0.9,32.3
			c-1.3,10.8-3.1,21.5-6,32c-4.7,17.3-11.6,33.6-20.6,49c-7.5,12.9-16.3,24.6-26.3,35.6c-6.7,7.3-13.8,14-21.4,20.2
			c-13.4,10.9-28,20-43.7,27.2c-12.8,5.9-26,10.3-39.6,13.5c-1.2,0.3-2.3,0.5-3.4,0.8c-1,0.2-1.5,0.8-1.5,1.9c0,4.4,0,8.9,0,13.3
			c0,1.2,0.2,1.6,1,1.6c0.3,0,0.6,0,0.9-0.1c1.5-0.3,3-0.6,4.5-1c22.3-4.8,43.4-13.1,63.1-24.4c19.7-11.4,37.4-25.5,52.7-42.4
			c7.5-8.2,14.3-16.9,20.5-26.1c9.6-14.4,17.5-29.7,23.5-45.9c8.4-22.5,12.9-45.8,13.7-69.8c0.4-10-0.1-20.1-1.2-30.1
			c-1.1-10.5-2.9-20.9-5.5-31.2c-4.7-18.8-12-36.7-21.4-53.6c-9.3-16.7-20.8-31.8-34-45.6c-5.6-5.9-11.6-11.3-17.8-16.5
			c-15.2-12.6-31.7-23-49.7-31.2c-14.6-6.7-29.8-11.7-45.5-15c-10.8-2.4-21.8-3.9-32.9-4.4C396.9,63.9,392.6,63.7,388.3,63.7
			L388.3,63.7z"/>
	</g>
	<g>
		<path class="st1" d="M391.8,109.6c-0.1,0.1-0.1,0.3-0.2,0.4c-4.5,7.8-4.6,15.7-0.3,23.6c2.2,4,4.9,8,8.7,13.1
			c4.4,5.7,9.2,11,13.8,16c7.7,8.2,11.8,18.1,12.8,30.1c0,0.1,0,0.2,0,0.3c0,0.2,0,0.3,0,0.5c0,0.8,0.1,2.3,1.7,2.9
			c0.3,0.1,0.6,0.2,0.9,0.2c1.1,0,1.8-0.7,2.2-1.2c0.1-0.1,0.2-0.2,0.3-0.3l1.3-1.1c1.8-1.6,3.6-3.1,5.4-4.7
			c5.2-4.9,8.6-11.2,10.5-19.2c0.1-0.6,0.3-1.3,0.4-1.9c0.2-0.8,0.3-1.6,0.5-2.4c0.6-2.2,1.5-4.1,2.7-5.9
			c-1.7,5.3-0.8,10.3,0.3,14.1c0.6,2.2,1.3,4.2,2.1,6.2c0.5,1.3,0.9,2.6,1.3,3.8c0.6,1.8,1.2,3.8,1.6,6c0.7,3.5,0.5,6.9-0.4,10.2
			c-0.7,2.4-1.2,4.8-1.7,7.7c-0.6,3.4,0.2,6.4,2.4,8.8c1.5,1.7,3.1,3.1,4.8,4.5c0.6,0.5,1.2,1,1.8,1.5c6.5,5.8,14.6,13.7,19.6,24.1
			c7.9,16.3,3.9,37.1-9.2,49.6c-7.6,7.1-16.6,11.1-27.9,12.3c-0.3,0-0.7,0.1-1.1,0.1c-1.2,0-2.4-0.2-3.6-0.4c0,0,0,0,0.1,0
			c0.4-0.2,0.7-0.5,1.1-0.7c4.5-3,7.9-6.5,10.3-10.4c4.3-7,5.6-14.6,3.9-22.7c-3.1-14.8-11.5-25.8-24.8-32.7
			c-1.8-0.9-2.8-1.4-3.8-1.4c-0.8,0-1.4,0.4-1.7,0.7c-0.8,0.8-1,2.2-0.9,4.6c0.2,10.8-3.2,20.8-10.4,29.8
			c-6,7.7-13.5,12.3-22.5,13.7c-2,0.3-3.9,0.5-6,0.5c-3.7,0-7.6-0.6-11.6-1.7c-10-2.8-18.5-7.9-25.6-14.8
			c-8.5-8.6-13.6-18.7-15.1-30.3c-0.1-0.8-0.2-1.6-0.4-2.3c-0.2-0.8-0.6-2.6-2.3-2.6c-0.6,0-1.2,0.3-2,0.6c-1.4,0.7-2.7,1.7-4,2.8
			c-6.1,5.5-10.3,10.6-13.2,15.9c-4.5,8.3-5.9,16.5-4.1,24.3c1.9,8.6,6.2,15.8,12.8,21.4c0.8,0.6,1.5,1.3,2.3,1.9
			c1.1,0.9,2.1,1.7,3.1,2.6c-1.7,0.4-3.3,0.6-5.1,0.6c-2,0-4-0.2-6.2-0.8c-12.1-2.7-20.7-10.1-25.7-21.9
			c-6.4-14.9-5.3-29.9,3.2-44.6c2.9-5.1,6.9-10.1,12.3-15.8c1-1.1,2.1-2.2,3.1-3.2c2.6-2.7,5.3-5.5,7.9-8.5
			c4.1-4.9,6.5-9.5,7.6-14.4c2.3-10.5-0.5-19.3-8.1-26.3c0.4-0.1,0.9-0.1,1.4-0.1c0.3,0,0.5,0,0.8,0c1.9,0,3.6,0.4,5.6,0.7l0.9,0.2
			c8.3,1.6,15.3,4.6,21.3,9.2c4.9,3.8,8.1,7.7,10.1,12.1c0,0.1,0.1,0.2,0.1,0.3c0.2,0.6,0.8,2.1,2.4,2.1c0.1,0,0.1,0,0.2,0
			c1.6-0.1,2-1.5,2.3-2.2c0-0.1,0.1-0.3,0.1-0.4c2-4.5,3.3-8.7,4-13.1c0.4-2.3,0.5-4.5,0.7-6.8v-0.1c0.2-2.8,0.4-5.7,0.5-8.4
			c0.3-4.7,0.6-9.5,1-14.2c1.3-15.3,7.2-28.2,17.7-38C387,112.6,389.1,111.1,391.8,109.6 M356.6,248.5l0.6-2.4
			c0.3-1.3,0.1-2.2-0.1-2.7v-0.1c-0.7-2.6-0.7-5.2,0.2-8.2c0.8-2.8,2.2-5.5,3.9-7.9c1.1-1.4,2.2-2.8,3.1-4.2c1.1-1.5,2.3-3,3.3-4.5
			c1.9-2.6,3.1-5,4-7.7c1.7-5,0.1-9.6-1.6-13.1c-0.4-0.9-1.2-2.5-2.8-2.5c-0.2,0-0.5,0-0.7,0.1c-1.8,0.5-1.5,2.5-1.4,3.2
			c0,0.1,0,0.3,0.1,0.4c0.3,3.6-0.8,7.1-3.3,10.5c-0.9,1.3-1.9,2.6-2.8,3.7c-0.5,0.6-0.9,1.1-1.4,1.7c-1.6,1.9-3.2,3.8-4.6,6.1
			c-3.7,6.4-4.5,13-2.4,19.7c0.8,2.6,2.5,4.5,4,6.1L356.6,248.5 M393.1,107.4c-0.3,0-0.6,0.2-0.9,0.4c-2.8,1.5-5.5,3.2-7.9,5.4
			c-11.2,10.5-16.9,23.6-18.2,38.9c-0.6,7.6-1,15.1-1.5,22.7c-0.2,2.3-0.3,4.5-0.7,6.8c-0.8,4.4-2.2,8.6-3.9,12.7
			c-0.3,0.7-0.4,1.7-1.2,1.7c0,0,0,0-0.1,0c-0.8,0-1-1-1.2-1.6c-2.4-5.2-6.2-9.1-10.6-12.6c-6.5-5-13.8-7.9-21.9-9.4
			c-2.2-0.4-4.4-0.9-6.7-0.9c-0.3,0-0.6,0-0.9,0c-1.3,0.1-2.6,0.2-3.5,1.2c0.1,0.3,0.1,0.3,0.2,0.4c0.3,0.3,0.5,0.5,0.8,0.7
			c7.8,6.8,10.2,15.4,8,25.3c-1.1,5.2-3.8,9.7-7.3,13.8c-3.4,4.1-7.3,7.9-10.9,11.7c-4.7,4.9-9,10.1-12.4,16
			c-8.6,14.7-10.1,30.1-3.3,45.9c5.1,11.9,13.8,19.8,26.7,22.7c2.2,0.5,4.3,0.8,6.5,0.8c2,0,3.9-0.2,5.9-0.8c1.6-0.4,1.8-0.9,0.5-2
			c-1.9-1.7-3.8-3.1-5.7-4.7c-6.5-5.5-10.5-12.6-12.3-20.6c-1.8-8.2,0.1-16.1,4-23.4c3.2-6.1,7.9-11,13-15.6c1.2-1,2.4-2,3.7-2.6
			c0.6-0.3,1-0.5,1.3-0.5c0.5,0,0.7,0.4,1,1.5c0.2,0.7,0.3,1.5,0.4,2.2c1.6,12.2,7,22.6,15.5,31.1c7.4,7.4,16.2,12.4,26.2,15.2
			c3.9,1.1,7.9,1.8,12,1.8c2.1,0,4.1-0.2,6.2-0.5c9.7-1.7,17.3-6.7,23.3-14.2c7.1-9,10.9-19.1,10.7-30.7c-0.1-2.7,0.1-3.9,1.2-3.9
			c0.7,0,1.7,0.5,3.2,1.3c13.1,6.8,21.1,17.5,24,31.8c1.6,7.7,0.4,14.9-3.7,21.7c-2.6,4.1-6,7.3-9.9,10c-1.1,0.7-2.3,1.3-3.1,2.2
			c0.2,0.8,0.9,0.8,1.3,0.9c1.7,0.2,3.4,0.6,5.1,0.6c0.4,0,0.8,0,1.2-0.1c10.9-1.1,20.6-5,28.7-12.6c13.6-12.9,17.7-34.2,9.5-51.1
			c-4.7-9.8-12-17.5-20-24.6c-2.2-2-4.5-3.7-6.4-5.9c-2-2.3-2.6-4.8-2.1-7.8c0.4-2.6,1-5,1.7-7.5c1-3.5,1.2-7.2,0.5-10.8
			c-0.4-2.1-1-4.1-1.7-6.1c-1.1-3.3-2.5-6.6-3.3-9.9c-1.3-4.9-1.9-9.7,0.1-14.6c0.1-0.3,0.2-0.6,0.3-0.9c0.1-0.6,0.5-1.2-0.2-1.6
			c-0.1-0.1-0.3-0.1-0.4-0.1c-0.4,0-0.8,0.4-1.1,0.8c-2.3,2.4-3.7,5-4.5,8.1c-0.4,1.4-0.6,2.8-0.9,4.3c-1.7,7.1-4.7,13.4-10.1,18.5
			c-2.2,2-4.3,3.8-6.6,5.8c-0.5,0.4-0.9,1.2-1.6,1.2c-0.1,0-0.2,0-0.4-0.1c-1-0.4-0.7-1.5-0.8-2.4c0-0.1,0-0.1,0-0.2
			c-1-11.8-5-22.2-13.1-31c-4.7-5.1-9.4-10.3-13.7-15.9c-3.1-4.1-6.2-8.3-8.6-12.9c-4.1-7.5-4-14.9,0.3-22.2c0.3-0.5,0.6-1,0.8-1.6
			c0.2-0.5,0.4-1,0-1.5C393.4,107.5,393.2,107.4,393.1,107.4L393.1,107.4z M355.9,245.7c-1.7-1.8-3-3.4-3.7-5.6
			c-2.1-6.6-1.2-12.8,2.3-18.6c1.7-2.7,3.8-5.1,5.8-7.7c1-1.3,2-2.6,2.9-3.8c2.5-3.4,3.8-7.2,3.5-11.4c-0.1-0.8-0.4-2,0.4-2.2
			c0.1,0,0.2-0.1,0.3-0.1c0.8,0,1.3,1,1.7,1.8c1.8,3.8,2.8,7.8,1.5,12c-0.9,2.6-2.3,5.1-3.8,7.3c-2.2,2.9-4.4,5.8-6.6,8.7
			c-1.9,2.6-3.2,5.3-4.1,8.3c-0.9,3-1.1,6-0.2,9C355.9,244.2,356.1,244.7,355.9,245.7L355.9,245.7z"/>
	</g>
	<g>
		<path class="st1" d="M387.6,300.9c0.6,0,1.2,0,1.8,0c0.4,0,0.6,0,0.8,0c0,0.1,0,0.3,0.1,0.7c0.3,4,0.8,4.5,4.6,5h0.2
			c12.5,1.3,25.8,2.9,38.8,6.3c9,2.4,17.5,5.8,23.8,8.5c2.6,1.2,5.3,2.3,7.9,3.4l0.9,0.4c0.2,0.1,0.7,0.3,1,0.5
			c-0.1,0.3-0.3,0.7-0.3,0.8c-2.8,6.8-5.5,12.9-7.9,18.4c-0.1,0.2-0.3,0.6-0.4,0.8c-0.3-0.1-0.6-0.2-0.9-0.4l-1.2-0.5
			c-7.1-2.9-14.3-6.1-21.7-8.5c-10.1-3.3-20.5-5.6-31-6.7c-2.6-0.3-5.3-0.5-7.9-0.6l-1.7-0.1c-0.2,0-0.4,0-0.6,0
			c-2.4,0-3.5,1.3-3.6,3.8c0,0.8,0,1.6,0,2.4l0,0v1.4v1.2c0,0.9,0,1.9,0,2.7c0,0.2,0,0.3,0,0.3l0,0c0,0-0.1,0.1-0.4,0.1h-1.2
			c-0.8,0-1.5,0-2.3,0c-1,0-1.8,0-2.6,0c-0.2,0-0.3,0-0.4,0c0-0.1,0-0.3,0-0.6c0-1.4,0-2.6,0-4c0-1,0-2,0-2.9c0-3.1-1-4.1-4.2-4.1
			c-0.2,0-0.5,0-0.7,0c-7.3,0-15.1,1-24,2.8c-13,2.8-24,6.6-34,11.4c-2.2,1.1-4.3,2-6.5,2.9l-1.2,0.5c-0.2,0.1-0.3,0.1-0.5,0.2
			c-0.1-0.1-0.1-0.3-0.2-0.5c-1.3-2.9-2.6-5.9-3.8-8.8c-0.6-1.5-1.3-2.9-1.9-4.4c-0.4-0.8-0.7-1.7-1.1-2.5c-0.5-1.1-0.9-2.1-1.4-3.1
			c-0.1-0.2-0.2-0.6-0.3-0.8c0.2-0.2,0.6-0.4,0.8-0.5c6.4-3.6,13.1-6.3,18.7-8.3c11.5-4.2,21.9-7,31.8-8.3l1.6-0.2
			c6-0.9,12.2-1.8,18.3-2.2c1-0.1,2.1-0.2,3-0.3c0.5-0.1,1.1-0.1,1.6-0.1c1.9-0.2,4-0.8,3.9-4.1c0-1.3,0.1-1.8,0.1-2
			c0.1,0,0.3,0,0.8,0c0.2,0,0.3,0,0.5,0c0.2,0,0.4,0,0.7,0h0.3h0.3C386.4,300.9,387,300.9,387.6,300.9 M316.8,337.6
			c0.8,0,1.7-0.3,2.9-0.8c9.1-3.5,16.8-6.1,24-8.1c11.6-3.2,23.1-5.1,34.3-5.6h0.7c3.8-0.2,4.3-0.8,4.3-4.7v-0.6v-0.5v-1.3V316
			c0-0.2,0-0.3,0-0.5c-0.1-1.5-0.6-2.8-2.9-2.8c-0.1,0-0.2,0-0.3,0c-0.6,0-1.3,0.1-1.9,0.2c-0.5,0.1-1,0.1-1.5,0.1
			c-8.6,0.4-17.9,1.8-28.9,4.2c-9.9,2.3-20.2,5.7-31.7,10.7l-0.2,0.1c-2,0.9-2.9,1.3-3.3,2.3c-0.4,0.9,0,1.8,0.5,2.8
			c0.1,0.3,0.3,0.7,0.5,1.1C314.5,336.2,315.1,337.6,316.8,337.6 M454.8,337.8c0.5,0,1.8-0.2,2.4-1.9c0.1-0.4,0.3-0.7,0.4-1.1
			c0.3-0.7,0.5-1.4,0.8-2.1c0.8-2.3,0.4-3.1-1.7-4.2c-0.6-0.3-1.2-0.6-1.7-0.8l-0.4-0.2c-3.1-1.5-6.5-2.6-9.6-3.7
			c-1.3-0.4-2.5-0.9-3.7-1.3c-7.6-2.7-16-5-26.6-6.9c-5.8-1.1-11.8-1.7-17.5-2.4l-1.6-0.2c-1-0.1-1.7-0.2-2.3-0.2
			c-0.5,0-2.1,0-2.7,1.5c-0.4,0.8-0.4,1.8-0.4,3.3v0.3c0,0.2,0,0.4,0,0.6c0,3.1,0.9,4,3.9,4.3c7,0.5,14.1,1.5,21.9,2.8
			c11,2,22.1,5.3,34,10.2c0.8,0.3,1.6,0.7,2.5,1l1.3,0.5C454,337.7,454.4,337.8,454.8,337.8 M387.6,299.5c-0.7,0-1.4,0-2.1,0
			c-0.1,0-0.2,0-0.3,0c-0.4,0-0.8,0-1.1,0c-1.8,0-2.4,0.3-2.3,3.4c0,2-0.7,2.6-2.6,2.6c-1.6,0.1-3,0.3-4.6,0.4
			c-6.7,0.4-13.3,1.5-19.9,2.5c-11,1.7-21.6,4.7-32.1,8.4c-6.5,2.4-13,5-18.9,8.4c-1.9,1.1-1.9,1.2-1.1,3c0.8,1.9,1.7,3.7,2.5,5.6
			c1.9,4.4,3.7,8.8,5.7,13.2c0.4,1,0.7,1.4,1.2,1.4c0.3,0,0.7-0.2,1.3-0.4c2.6-1.2,5.2-2.3,7.8-3.5c10.7-5.2,22.1-8.7,33.7-11.3
			c7.9-1.7,15.7-2.8,23.7-2.8c0.2,0,0.5,0,0.7,0c2.5,0,2.7,0.3,2.8,2.7c0,2.4,0,4.6,0,7c0,1.6,0.3,1.9,1.8,2c0.9,0,1.8,0.1,2.6,0.1
			c1.2,0,2.4,0,3.5,0c1.2,0,1.8-0.6,1.8-1.8c0-1.3,0-2.6,0-3.9l0,0c0-1.3,0-2.5,0-3.7c0.1-1.8,0.7-2.5,2.3-2.5c0.1,0,0.3,0,0.5,0
			c3.2,0.2,6.4,0.4,9.6,0.7c10.5,1.1,20.7,3.2,30.7,6.6c7.8,2.6,15.2,5.8,22.8,8.9c0.9,0.4,1.4,0.6,1.8,0.6c0.6,0,0.8-0.5,1.4-1.8
			c2.6-6.2,5.3-12.3,7.9-18.4c0.9-2,0.7-2.2-1.4-3c-2.9-1.3-5.9-2.6-8.8-3.8c-7.9-3.3-15.8-6.5-24-8.5c-12.8-3.3-25.8-5-39-6.4
			c-3.3-0.4-3.3-0.3-3.6-3.7c-0.1-1.7-0.3-2-2.2-2C388.8,299.5,388.2,299.5,387.6,299.5L387.6,299.5z M316.8,336.3
			c-0.9,0-1.2-0.7-2-2.6c-1.3-3.1-1.9-2.8,1.9-4.4c10.2-4.4,20.6-8.1,31.4-10.6c9.4-2.2,18.9-3.8,28.7-4.2c1.1,0,2.2-0.3,3.2-0.3
			c0.1,0,0.2,0,0.2,0c1.2,0,1.5,0.3,1.6,1.6c0,0.1,0,0.3,0,0.4c0,0.6,0,1.2,0,1.8c0,4,0.2,3.7-3.7,3.9c-11.8,0.5-23.3,2.5-34.6,5.6
			c-8.2,2.3-16.3,5.1-24.2,8.1C318.1,336,317.4,336.3,316.8,336.3L316.8,336.3z M454.8,336.5c-0.2,0-0.4,0-0.6-0.1
			c-1.2-0.5-2.5-1-3.6-1.5c-11.1-4.5-22.5-8.1-34.2-10.3c-7.3-1.4-14.6-2.4-22.1-2.9c-2.5-0.2-2.6-0.5-2.6-2.9c0-0.3,0-0.6,0-0.9
			c0-2.7,0.1-3.5,1.8-3.5c0.5,0,1.2,0.1,2.1,0.2c6.4,0.7,12.8,1.4,19,2.5c8.9,1.6,17.8,3.6,26.4,6.8c4.4,1.7,8.9,3,13.2,5
			c0.7,0.3,1.3,0.6,2,1c1.5,0.8,1.6,1,1,2.6c-0.4,1.1-0.8,2.1-1.2,3C455.7,336.2,455.3,336.5,454.8,336.5L454.8,336.5z"/>
	</g>
	<g>
		<path class="st1" d="M417,522c0.3,0,0.6,0,0.9,0c2.1,0.1,2.3,0.5,2.3,2.3c0,11.6,0,23,0,33.9c0,1.8-0.3,2.1-2.1,2.1
			c-0.2,0-0.4,0-0.6,0c-0.3,0-0.6,0-0.9,0c-0.3,0-0.6,0-1,0c-0.7,0-1.7,0-2.6,0.2c-2.5,0.5-3.2,1.4-3.4,3.8c0,0.4,0,0.9,0,1.3
			c0,0.5,0,0.9,0,1.4v0.1l0,0c-1.2,0-2.3,0-3.4,0c-1.4,0-2.6,0-3.8,0v-0.1v-0.7c0-0.7,0-1.4,0-2c-0.1-2.5-1.3-3.7-3.7-3.9
			c-0.3,0-0.6,0-0.9,0h-0.2h-0.2h-0.9h-6.5c-3,0-6.2,0-9.2,0c-0.6,0-1.2,0-1.8,0.1c-1.7,0.3-2.7,1.6-2.8,3.2c0,0.6,0,1.1,0,1.7
			c0,0.5,0,1,0,1.4c0,0.2,0,0.3-0.1,0.4c0,0-0.1,0-0.2,0c-1.3,0-2.6,0-3.9,0c-1.1,0-2.2,0-3.3,0c-0.1,0-0.2,0-0.2,0
			s-0.1-0.2-0.1-0.3c0-1-0.1-2-0.1-2.7c0-1.1-0.4-2.8-2.9-3.4c-1-0.2-2-0.2-2.8-0.2c-0.2,0-0.4,0-0.7,0c-0.1,0-0.3,0-0.4,0h-0.6
			h-0.5c-0.4,0-0.8,0-1.1,0c-1-0.1-1.2-0.3-1.4-1.1c-0.1-0.7-0.2-1.4-0.2-2.1c0-9.8,0-19.7,0-29.5v-2.4v-0.3c0-0.4,0-0.8,0-1.2
			c0.1-1.2,0.5-1.5,1.6-1.7c0.4-0.1,0.8-0.1,1.2-0.1h0.4h0.4c5.2,0,10.5,0,15.7,0h6.9h5.2h9h17.9h0.6L417,522 M407.1,526.9h-16.4
			h-20.2c-0.6,0-1.1,0-1.6,0c-1.5,0.1-2.4,1-2.5,2.6c-0.1,0.8-0.1,1.7,0.6,2.5c0.7,0.8,1.9,0.9,2.9,0.9c2.9,0,5.8,0,8.7,0h4.3h4.3
			h1.5h4h4h10c0.5,0,0.9,0,1.4,0h0.4c1.8,0,2.8-1.1,2.8-2.8c0-1.9-0.9-2.8-2.7-3c-0.3,0-0.6,0-0.8,0h-0.3H407.1L407.1,526.9
			 M369.2,543.8c0.1,0,0.3,0,0.4,0c0.1,0,0.2,0,0.3,0c3.4,0,7,0,10.4,0h4.3h4.3h1.2h3.8h5.1c3,0,6.2,0,9.2,0c2.1,0,2.9-0.9,2.9-2.8
			c0-1.9-0.9-2.8-2.7-3c-0.3,0-0.6,0-1,0c-0.2,0-0.3,0-0.5,0c-0.1,0-0.3,0-0.4,0h-19.2h-16.6h-0.4c-0.1,0-0.3,0-0.4,0
			c-0.3,0-0.5,0-0.8,0c-1.2,0.1-2.2,0.7-2.6,1.7c-0.5,0.9-0.4,2.1,0.1,3C367.3,543.4,368.1,543.8,369.2,543.8 M389.1,548.3h-3.8
			h-3.8h-10.6c-0.7,0-1.3,0-1.8,0c-1.6,0.1-2.6,1.2-2.6,2.8s1,2.6,2.6,2.7c0.5,0,1,0,1.4,0h18.6h18.3c0.5,0,1.1,0,1.7-0.1
			c0.7-0.1,2.5-0.5,2.4-2.9c0-1.6-1-2.6-2.5-2.6c-0.5,0-1.1,0-1.8,0h-9.9h-4L389.1,548.3 M417,520.7c-0.4,0-0.7,0-1.1,0
			c-8.9,0-18,0-26.9,0c-4,0-8,0-12,0c-5.2,0-10.5,0-15.7,0l0,0c-0.3,0-0.5,0-0.8,0c-0.5,0-0.9,0-1.4,0.1c-1.8,0.2-2.6,1.1-2.7,2.8
			c-0.1,0.5,0,1,0,1.6c0,10.6,0,21.3,0,31.9c0,0.8,0,1.6,0.2,2.4c0.3,1.5,1.1,2.1,2.6,2.2c0.4,0,0.8,0,1.1,0c0.4,0,0.7,0,1.1,0
			c0.1,0,0.3,0,0.4,0c1.1,0,2.2,0,3.2,0.2c1.2,0.2,1.8,0.9,1.8,2.1c0,1,0,1.9,0.1,2.8c0,1,0.5,1.7,1.6,1.7s2.3,0,3.3,0
			c1.3,0,2.6,0,3.9,0c1.1,0,1.6-0.7,1.6-1.7c0-1,0-2.1,0.1-3c0-1.1,0.7-1.8,1.7-2c0.5-0.1,1-0.1,1.5-0.1c3,0,6.2,0,9.2,0
			c2.5,0,4.9,0,7.4,0l0,0c0.1,0,0.2,0,0.3,0c0.3,0,0.5,0,0.8,0c1.8,0.2,2.5,0.9,2.6,2.6c0,0.9,0,1.8,0,2.6c0,0.9,0.4,1.5,1.3,1.5
			c1.3,0,2.6,0,3.9,0c1.2,0,2.4,0,3.4,0c0.9,0,1.4-0.5,1.4-1.4c0.1-0.9,0-1.8,0.1-2.6c0.1-1.9,0.4-2.3,2.3-2.6
			c0.8-0.2,1.6-0.2,2.4-0.2c0.6,0,1.3,0,1.9,0c0.2,0,0.4,0,0.6,0c2.6-0.1,3.4-0.9,3.4-3.4c0-11.3,0-22.6,0-33.9c0-2.6-1-3.5-3.6-3.6
			C417.6,520.7,417.3,520.7,417,520.7L417,520.7z M407.1,528.3c0.2,0,0.4,0,0.6,0s0.5,0,0.7,0c1.2,0.1,1.6,0.5,1.6,1.7
			c0,1-0.5,1.5-1.5,1.5c-0.6,0-1.2,0-1.8,0c-3.3,0-6.7,0-10,0c-2.6,0-5.4,0-8,0c-0.5,0-1,0-1.5,0c-2.8,0-5.7,0-8.5,0
			c-2.9,0-5.8,0-8.7,0c-1.9,0-2.3-0.4-2.2-1.9c0.1-0.8,0.4-1.2,1.2-1.3c0.5,0,1,0,1.6,0c6.8,0,13.4,0,20.2,0
			C396.2,528.3,401.7,528.3,407.1,528.3L407.1,528.3L407.1,528.3z M369.2,542.4c-0.5,0-0.9-0.1-1.3-0.6c-0.7-1.2,0-2.5,1.5-2.6
			c0.2,0,0.5,0,0.7,0c0.3,0,0.6,0,0.9,0c5.5,0,11.1,0,16.6,0c6.4,0,12.9,0,19.2,0l0,0c0.3,0,0.6,0,0.9,0c0.3,0,0.6,0,0.9,0
			c1.2,0.1,1.5,0.5,1.5,1.7s-0.3,1.5-1.6,1.5c-3,0-6.2,0-9.2,0c-3.4,0-6.8,0-10.2,0l0,0c-2.8,0-5.7,0-8.6,0c-3.4,0-7,0-10.4,0l0,0
			C369.7,542.4,369.4,542.4,369.2,542.4L369.2,542.4z M389.1,549.7c2.6,0,5.3,0,7.9,0c3.3,0,6.7,0,9.9,0c0.6,0,1.2,0,1.8,0
			c0.8,0,1.2,0.5,1.2,1.3c0,0.8-0.2,1.5-1.1,1.6c-0.5,0-1,0.1-1.6,0.1c-6.1,0-12.2,0-18.3,0c-6.2,0-12.5,0-18.6,0
			c-0.4,0-0.9,0-1.3,0c-0.9,0-1.3-0.6-1.3-1.4c0-0.9,0.3-1.4,1.3-1.5c0.6,0,1.2,0,1.8,0c3.5,0,7.1,0,10.6,0
			C383.9,549.7,386.6,549.7,389.1,549.7L389.1,549.7z"/>
	</g>
	<g>
		<path class="st1" d="M366.7,342c0.3,0,0.5,0,0.6,0c0.1,0.1,0.1,0.5,0.2,1.3c0.2,3.2,0.4,6.5,0.6,9.7c0.4,5.7,0.8,11.7,1.1,17.5
			c0.2,2.8,0.4,5.8,0.7,8.6c0.1,1.1,0.2,2.2,0.3,3.1c0.2,2.5,1.5,4,3.8,4.8c3.8,1.2,7.6,1.8,11.7,2.5c0.8,0.1,1.6,0.2,2.3,0.3
			c0.6,0.1,1.3,0.2,1.9,0.2c0.5,0.1,0.7,0.1,0.8,0.2c0,0.1,0.1,0.3,0.1,0.8c0,0.7,0,1.5,0,2.2c0,0.3,0,0.7,0,1
			c-0.3,4.3-0.4,8.7-0.4,13c0,3.3,0,6.8-0.2,10.1c-0.2,3.2-0.2,6.6-0.2,9.7c0,3.2,0,6.6-0.2,9.9c-0.2,3.8-0.2,7.8-0.2,11.5
			c0,3.6,0,7.5-0.2,11.2c-0.2,4-0.2,8-0.3,12c0,2.7,0,5.6-0.1,8.4c0,1.5-0.1,2.9-0.3,4.9c0,0.2,0,0.3,0,0.4c-0.1,0-0.2,0-0.4,0
			c-0.4,0-0.8,0-1.2,0c-0.5,0-1,0-1.5,0s-1,0-1.4,0c-0.1,0-0.2,0-0.2,0s0-0.1,0-0.3c0-0.7-0.1-1.4-0.2-2.2c-0.1-0.9-0.2-1.8-0.2-2.6
			c0-1.3-0.1-2.6-0.1-3.8c-0.1-2.5-0.1-5-0.3-7.6c-0.2-3.4-0.3-6.9-0.4-10.3c-0.1-2.7-0.1-5.7-0.3-8.4c-0.2-5.2-0.4-10.6-0.6-15.8
			c-0.1-2.8-0.2-5.6-0.3-8.4c-0.1-2.4-0.2-4.7-0.3-7c-0.2-5-0.4-10.1-0.5-15.2c0-0.6-0.1-1.2-0.1-1.7c-0.1-0.6-0.1-1.1-0.1-1.6
			c0-2-1.1-3.2-3-3.7c-1.7-0.4-3.3-0.9-4.9-1.4c-0.6-0.2-1.2-0.3-1.8-0.5c-2.2-0.6-4.2-1.4-6.3-2.1c-0.5-0.2-1-0.4-1.5-0.5
			c-2-0.7-2.9-1.9-3.1-3.9c-0.2-1.7-0.4-3.4-0.5-5.1c-0.1-1.3-0.3-2.6-0.4-3.8c-0.3-3.2-0.7-6.6-1-9.8c-0.2-2-0.4-4-0.6-6l-0.2-1.7
			c-0.6-5.8-1.2-11.7-1.7-17.5c0-0.4,0-0.5,0-0.5l0,0c0,0,0.1-0.1,0.3-0.1c3.2-0.8,6.9-1.6,10.5-1.8C366.4,342,366.6,342,366.7,342
			 M366.7,340.6c-0.2,0-0.4,0-0.6,0c-3.6,0.2-7.2,1-10.8,1.8c-1.2,0.3-1.5,1-1.4,2.1c0.6,6.4,1.3,12.8,1.9,19.1
			c0.5,5.3,1,10.6,1.6,15.9c0.3,2.9,0.7,5.9,1,8.9c0.2,2.6,1.5,4.2,4,5.1c2.6,0.9,5.2,1.9,7.9,2.6c2.3,0.6,4.5,1.3,6.8,1.9
			c1.4,0.3,2,1,2,2.4c0,1.1,0.2,2.2,0.3,3.2c0.2,7.5,0.6,14.8,0.8,22.3c0.3,8,0.6,16.1,0.9,24.2c0.3,6.3,0.3,12.6,0.6,18.7
			c0.2,3.8,0.3,7.6,0.4,11.4c0.1,1.6,0.3,3.2,0.4,4.8c0.1,1.1,0.6,1.6,1.7,1.6c1,0,2,0,2.9,0c0.4,0,0.8,0,1.3,0
			c1.4-0.1,1.7-0.3,1.8-1.7c0.2-1.7,0.3-3.3,0.3-5c0.2-6.8,0-13.5,0.4-20.3c0.4-7.6,0.1-15.1,0.5-22.7c0.3-6.6,0.1-13.1,0.4-19.6
			c0.4-7.7,0-15.4,0.6-23.2c0-1.1,0-2.2,0-3.2c-0.1-1.7-0.4-2-2.1-2.3c-1.4-0.2-2.7-0.3-4.1-0.5c-3.9-0.6-7.8-1.3-11.6-2.4
			c-1.9-0.6-2.7-1.7-2.8-3.6c-0.3-3.9-0.7-7.9-0.9-11.8c-0.5-9.1-1.1-18.2-1.7-27.2C368.7,341.1,368.4,340.6,366.7,340.6
			L366.7,340.6z"/>
	</g>
	<g>
		<path class="st1" d="M413.4,342.9c0.4,0,1.1,0.2,2,0.3h0.1l0.3,0.1c0.9,0.2,1.8,0.4,2.6,0.6c0.4,0.1,0.6,0.2,0.7,0.2
			c0,0.1,0,0.4,0,0.8c0,0.3-0.1,0.5-0.1,0.8c-0.1,0.3-0.1,0.6-0.1,0.9c-0.3,2.7,0.6,4.1,3.2,4.8c4.8,1.3,9.6,3,14.2,4.8l2,0.7
			c1.2,0.5,2.6,1.1,2.9,1.7c0.3,0.7-0.3,2.2-0.9,3.5c-2.9,7.2-7.2,13.3-12.6,18.3c-8.6,8.1-18.5,13.4-29.4,15.6
			c-0.8,0.2-1.6,0.3-2.1,0.3c-0.1,0-0.2,0-0.2,0c-0.1-0.3-0.2-1.1-0.1-2.3v-1.6c0-0.7,0-1.5,0-2.2c0-0.8,0-1.6,0-2.5v-1.1
			c0.1-4.3,0.2-8.6,0.3-12.9c0.1-3.9,0.2-8,0.3-12.1c0.1-3.7,0.2-7.4,0.4-10.9c0.2-3.3,0.5-3.6,3.8-3.6c1.6,0,3.1,0.2,4.8,0.4
			c0.6,0.1,1.2,0.2,1.7,0.2c0.2,0,0.4,0.1,0.6,0.1c0.4,0.1,0.8,0.1,1.3,0.2c0.2,0,0.4,0,0.6,0c2.5,0,3-1.5,3.3-3
			c0.1-0.2,0.1-0.5,0.1-0.7c0.1-0.3,0.1-0.6,0.1-0.9C413.3,343.5,413.3,343.1,413.4,342.9 M408.4,366.1c0.6,0,2.4-0.2,2.6-2.6
			c0.2-1.3,0.3-2.6,0.4-3.5l0.1-1.1l0,0l0,0c0.2-3,0-3.9-3-4.4c-1-0.2-2-0.3-3.1-0.4c-0.3,0-0.5,0-0.7,0c-2.3,0-2.6,2-2.6,2.7
			c-0.2,1.4-0.3,2.7-0.4,4c0,0.6-0.1,1.1-0.1,1.7c-0.1,1.7,0.8,2.9,2.5,3.1l0.7,0.1c1,0.1,2,0.3,2.9,0.5
			C407.9,366.1,408.2,366.1,408.4,366.1 M425.8,370.1c0.9,0,1.6-0.4,2.2-1.1c1.5-1.9,2.5-3.4,3.2-5.1c0.5-1,0.3-1.8,0.1-2.3
			c-0.2-0.5-0.6-1.1-1.6-1.4c-3.4-1.3-6.6-2.3-9.6-3.1c-0.3-0.1-0.5-0.1-0.8-0.1c-0.9,0-2,0.5-2.2,2.1c-0.2,1.2-0.4,2.5-0.6,3.6
			l-0.2,1.5c-0.3,1.8,0.5,3,2.2,3.5c2.3,0.7,4.2,1.4,6.2,2.1C425.2,370,425.6,370.1,425.8,370.1 M403.2,387.2c0.9,0,1.8-0.4,3.4-1.2
			c1.6-0.8,2.4-2,2.6-3.6c0.1-1.4,0.3-2.7,0.5-4c0.1-0.7,0.2-1.3,0.2-2c0.2-1.9,0.3-3.5-0.7-4.7c-1-1.2-2.7-1.3-4.6-1.3h-0.2
			c-2.2,0-3,0.9-3.1,3c0,3-0.3,6.1-0.5,8l0,0l0,0c-0.1,2.7,0,4.1,0.9,5C401.8,386.8,402.4,387.2,403.2,387.2 M415.1,381.9l2-1.5
			c0.4-0.3,0.7-0.5,1-0.7c0.7-0.5,1.3-0.9,1.8-1.4c0.1-0.1,0.3-0.2,0.5-0.3c0.7-0.4,2.2-1.4,1.7-3c-0.4-1.5-1.9-1.7-2.6-1.9
			c-0.3,0-0.5-0.1-0.7-0.1c-0.4-0.1-0.8-0.2-1.1-0.2c-1.3,0-2.2,0.9-2.4,2.3c0,0.3-0.1,0.7-0.2,1.1c-0.2,0.9-0.4,2-0.2,3.3
			L415.1,381.9 M413.2,341.6c-1.2,0-1.1,0.7-1.5,2.9c0,0.2-0.1,0.4-0.1,0.7c-0.4,1.6-0.7,2-2.1,2c-0.2,0-0.3,0-0.5,0
			c-0.6,0-1.2-0.2-1.8-0.2c-2.3-0.3-4.4-0.7-6.7-0.7c0,0,0,0-0.1,0c-4,0-5,0.9-5.2,5c-0.2,3.6-0.3,7.3-0.4,10.9
			c-0.1,8.3-0.4,16.6-0.6,24.9c0,1.2,0,2.4,0,3.5c0,1.3,0,2.5,0,3.7c0,2.6,0.2,3.6,1.7,3.6c0.6,0,1.4-0.1,2.4-0.3
			c11.6-2.4,21.5-7.9,30-16c5.7-5.3,9.8-11.6,12.9-18.7c1.8-4.3,1.5-5.4-2.8-7.1c-5.4-2-10.8-4-16.3-5.5c-2-0.5-2.5-1.3-2.3-3.3
			c0.1-0.6,0.2-1.2,0.3-1.8c0.2-1.8,0-2.1-1.7-2.5c-1-0.3-2-0.4-2.9-0.6C414.5,341.7,413.7,341.6,413.2,341.6L413.2,341.6z
			 M408.4,364.7c-0.1,0-0.3,0-0.5-0.1c-1.2-0.3-2.5-0.4-3.6-0.6c-1-0.1-1.4-0.8-1.3-1.7c0.2-1.9,0.3-3.7,0.5-5.6
			c0.1-1.2,0.4-1.5,1.3-1.5c0.2,0,0.4,0,0.6,0c1,0.1,2.1,0.2,3,0.4c2.1,0.4,2.1,0.4,1.9,2.9c-0.1,1.2-0.3,2.9-0.6,4.6
			C409.6,364.2,409.3,364.7,408.4,364.7L408.4,364.7z M425.8,368.8c-0.2,0-0.4,0-0.7-0.1c-2.1-0.7-4.1-1.4-6.2-2.1
			c-1-0.3-1.4-1-1.2-2.1c0.3-1.8,0.5-3.4,0.8-5.2c0.1-0.6,0.4-0.9,0.8-0.9c0.1,0,0.3,0,0.4,0.1c3.2,0.9,6.4,2,9.5,3
			c0.9,0.3,1,1,0.7,1.8c-0.8,1.8-1.9,3.2-3,4.7C426.6,368.6,426.3,368.8,425.8,368.8L425.8,368.8z M403.2,385.8
			c-1,0-1.1-1.2-1.1-4.2c0.2-2.3,0.4-5.2,0.5-8.1c0-1.5,0.4-1.7,1.8-1.7c0.1,0,0.1,0,0.2,0c3.8,0,4.4,0.7,4,4.5
			c-0.2,2.1-0.5,4-0.7,6.1c-0.1,1.3-0.7,2-1.8,2.5C404.7,385.4,403.8,385.8,403.2,385.8L403.2,385.8z M416.1,379.3
			c-0.2-1.8,0.3-2.9,0.4-4.2c0.1-0.7,0.4-1,1-1c0.2,0,0.4,0,0.6,0.1c0.9,0.3,2.3,0.2,2.5,1.1c0.3,1-1.1,1.4-1.7,2
			C418.1,377.9,417.3,378.5,416.1,379.3L416.1,379.3z"/>
	</g>
	<g>
		<path class="st1" d="M361,398.7C361,398.8,361,398.8,361,398.7c2.9,1.4,6,2.4,8.8,3.1c0.2,0.1,0.8,0.2,1,0.4
			c0.1,0.2,0.1,0.8,0.1,1c0.1,2.2,0.2,4.2,0.4,6.4c0.2,3.4,0.4,7,0.6,10.4c0.3,4.1,0.6,8.3,0.9,12.4c0.3,3.5,0.5,7.1,0.8,10.7
			c0.2,2.8,0.4,5.8,0.5,8.6c0.2,2.5,0.3,5,0.5,7.5c0.3,3.8,0.5,7.7,0.8,11.5c0.1,2,0.3,3.9,0.4,5.9c0,0.7,0.1,1.4,0.2,2.1
			c0.1,1.8,0.3,3.6,0.4,5.5c0,0.5,0,0.8,0,1c-0.3,0-0.9,0.1-1.1,0.1s-0.3,0-0.5,0h-0.4h-0.5c-1,0-2,0-2.3-0.1
			c-0.1-0.3-0.3-1.4-0.4-2.2c-0.5-4.4-1.1-8.7-1.6-13.1c-0.6-4.8-1.1-9.6-1.7-14.4c-0.8-6.8-1.7-13.4-2.5-20.2
			c-0.6-4.6-1.2-9.2-1.7-13.7c-0.7-5.3-1.3-10.5-1.9-15.8l-0.8-6.5C361,399.1,361,398.9,361,398.7C361,398.8,361,398.8,361,398.7
			 M360.1,397c-0.6,0-0.6,0.6-0.6,1.9c0,0.1,0,0.3,0,0.4c0.9,7.5,1.8,14.9,2.6,22.3c1.4,11.4,2.8,22.7,4.1,34
			c1.1,9.1,2.2,18.3,3.2,27.5c0.4,3.5,0.5,3.5,4,3.5l0,0c0.3,0,0.5,0,0.8,0c0.2,0,0.3,0,0.5,0c2.4,0,2.6-0.2,2.5-2.5
			c-0.1-2.6-0.3-5.1-0.5-7.7c-0.4-5.8-0.8-11.6-1.2-17.4c-0.4-5.4-0.6-10.7-1-16.1c-0.5-7.7-1.1-15.4-1.6-23.1
			c-0.4-5.6-0.7-11.2-1-16.8c-0.1-1.9-0.2-2.1-2.1-2.6c-2.9-0.9-5.8-1.9-8.6-3C360.9,397.2,360.4,397,360.1,397L360.1,397z"/>
	</g>
	<g>
		<path class="st1" d="M410.6,399.5c-0.3,2.7-0.6,5.6-1,8.3l-0.4,3.2l-0.4,3.3c-0.7,6-1.4,12.1-2.1,18.1l-1,8.8
			c-0.6,5.4-1.3,10.8-1.9,16.1c-0.4,3.8-0.9,7.7-1.3,11.5c-0.4,3-0.7,6.1-1.1,9.1l-0.1,0.6c-0.2,2-0.5,3.9-0.7,5.8
			c0,0.1-0.1,0.5-0.1,0.8c-0.2,0-0.6,0-0.8,0c-0.2,0-0.4,0-0.6,0s-0.4,0-0.5,0c-0.2,0-0.4,0-0.6,0c-0.8,0-1.7,0-2.1-0.1
			c0-0.4,0-1.1,0.1-1.9V483c0.3-2.9,0.5-5.9,0.7-8.7c0.1-1.8,0.2-3.4,0.4-5.2c0.2-2.8,0.4-5.6,0.7-8.4c0.2-1.9,0.3-3.8,0.5-5.7
			c0.1-1.5,0.2-2.9,0.3-4.4c0.1-1.2,0.2-2.5,0.3-3.6c0.2-3.1,0.5-6.3,0.7-9.3c0.5-6.1,1-12.2,1.4-18.3c0.2-3.1,0.5-6.4,0.7-9.4
			c0.1-1.7,0.2-3.2,0.3-4.9c0-0.3,0-0.5,0.1-0.8c0-0.4,0.1-0.8,0.1-1.2c0-0.7,0.2-1,1.2-1.3C406,401.1,408.4,400.5,410.6,399.5
			 M411.4,397.7c-0.3,0-0.8,0.2-1.4,0.4c-2.3,1.1-4.6,1.7-7.1,2.3c-1.4,0.3-2.2,1.1-2.3,2.6c0,0.7-0.1,1.3-0.2,2
			c-0.3,4.8-0.6,9.6-1,14.3c-0.7,9.2-1.4,18.4-2.1,27.7c-0.2,2.6-0.4,5.4-0.6,8c-0.4,4.7-0.8,9.4-1.1,14.1c-0.4,4.6-0.6,9.3-1,13.9
			c-0.3,3.5-0.4,3.5,3.3,3.6c0.4,0,0.7,0,1.1,0c0.2,0,0.4,0,0.7,0c1.8-0.1,2-0.1,2.2-2c0.3-2.2,0.6-4.3,0.8-6.5
			c0.8-6.9,1.6-13.7,2.4-20.6c1-8.3,2-16.6,2.9-24.9c0.8-7.2,1.7-14.3,2.5-21.5c0.5-3.9,0.9-7.8,1.4-11.7
			C412.1,398.3,412,397.7,411.4,397.7L411.4,397.7z"/>
	</g>
	<g>
		<path class="st1" d="M386.7,492.8c0.5,0,1.1,0,1.6,0c0.6,0,1.1,0,1.7,0h0.3c0.4,0,0.4,0,0.6,0.4c0.8,2.5,1.4,2.9,4.1,2.9
			c3.3,0,6.8,0,10.1,0h2.5h2.5c1.7,0,3.3,0,5.1,0h0.4h0.4c0.5,0,1,0,1.5,0.1c1.5,0.2,1.8,1,1.9,1.7c0.3,2.7,0.2,5.6,0.1,8.3v1.3
			c0,0.3-0.1,0.3-0.3,0.3c-1.2,0-2.4,0-3.5,0c-1.3,0-2.6,0-3.8,0c-0.2,0-0.3,0-0.3-0.4c0-0.6-0.1-1.2-0.1-1.8c0-0.3,0-0.6,0-0.8
			c-0.1-1.8-1.3-2.9-2.9-3c-0.6,0-1.2,0-1.8,0c-2,0-4.6,0-7.5,0.3l-1.5,0.2l-0.1-0.6h-1.2h-2.1h-2.1H389h-0.1h-0.5h-0.5
			c-0.4,0-0.8,0-1.3,0c-1.9-0.1-2.1-0.4-2.1-2.3c0-2,0-4,0-6.1c0-0.4,0-0.6,0-0.7c0.1,0,0.3,0,0.6,0
			C385.6,492.8,386.2,492.8,386.7,492.8 M397.6,504.4l0.6,0.4l1.4,1c1,0.7,2,1.5,2.9,2.2c1.1,0.8,2.2,1.6,3.2,2.4
			c2.5,1.8,5,3.6,7.5,5.5c0.2,0.2,0.5,0.3,0.8,0.5c0.1,0.1,0.2,0.1,0.3,0.2c-0.2,0-0.3,0-0.5,0c-0.3,0-0.5,0-0.8,0
			c-0.1,0-0.1,0-0.2,0c-0.3,0-0.6,0-0.9,0c-0.4,0-0.7,0-1.1,0s-0.8,0-1.2,0c-0.6,0-1.1,0-1.6,0c-0.2,0-0.4,0-0.6,0
			c-1.9,0-3.4-0.6-4.8-1.9c-1.1-1-2.4-2-4.2-2.2c-0.4,0-0.8-0.1-1.2-0.1c-2,0-3.4,0.6-4.6,1.7c-1.6,1.6-3.5,2.4-5.8,2.4
			c-0.4,0-0.7,0-1.1-0.1c-0.5,0-1-0.1-1.7-0.1c-0.4,0-0.8,0-1.2,0c-0.4,0-0.8,0-1.2,0h-0.2h-0.2c-0.2,0-0.4,0-0.5,0
			c0.4-0.3,0.8-0.6,1.2-0.9c0.2-0.1,0.4-0.3,0.6-0.4c3.5-2.6,7.1-5.1,10.6-7.7l3.5-2.6L397.6,504.4 M380.4,516.9L380.4,516.9
			L380.4,516.9 M386.7,491.4c-0.6,0-1.2,0-1.8,0c-1.7,0-2,0.3-2,2.2c0,2.1,0,4.1,0,6.1c0.1,2.6,0.9,3.4,3.3,3.5c0.5,0,0.9,0,1.4,0
			c0.3,0,0.7,0,1,0c0,0,0,0,0.1,0c1.1,0,2.2,0,3.2,0c1.4,0,2.7,0,4.1,0c0,0.1,0,0.3,0.1,0.4c-4.7,3.4-9.4,6.9-14.1,10.2
			c-0.8,0.6-1.7,1.2-2.5,1.9c-0.9,0.8-0.6,1.6,0.6,1.9c0.5,0.1,1,0.1,1.5,0.1c0.1,0,0.2,0,0.3,0c0.8,0,1.6,0,2.4,0
			c0.5,0,1,0,1.6,0.1c0.4,0,0.8,0.1,1.2,0.1c2.6,0,4.8-0.8,6.8-2.7c1.1-1,2.4-1.3,3.6-1.3c0.3,0,0.7,0,1,0c1.4,0.1,2.5,1,3.4,1.8
			c1.7,1.5,3.5,2.2,5.7,2.2c0.2,0,0.5,0,0.7,0c0.5,0,1,0,1.5,0c0.8,0,1.5,0,2.3,0c0.3,0,0.6,0,0.9,0h0.1c0.4,0,0.9,0.1,1.4,0.1
			c0.7,0,1.2-0.1,1.5-0.8c0.5-1.3-1.1-1.8-1.9-2.4c-3.5-2.6-7.2-5.2-10.8-7.8c-1.5-1.1-2.8-2.1-4.3-3.1c2.5-0.3,4.9-0.3,7.3-0.3
			c0.6,0,1.2,0,1.8,0c1.1,0,1.6,0.7,1.6,1.7c0,0.9,0,1.8,0.1,2.6c0.1,1,0.7,1.7,1.7,1.7c1.3,0,2.6,0,3.8,0c1.2,0,2.4,0,3.5,0
			c1,0,1.7-0.7,1.7-1.7c0.1-3.2,0.3-6.6-0.1-9.8c-0.2-1.8-1.3-2.6-3-2.9c-0.5-0.1-1.1-0.1-1.6-0.1c-0.3,0-0.5,0-0.8,0l0,0
			c-1.7,0-3.3,0-5,0c-1.7,0-3.2,0-4.9,0c-3.3,0-6.8,0-10.1,0c-2.1,0-2.2-0.1-2.7-2c-0.3-1-0.9-1.4-1.9-1.4l0,0c-0.1,0-0.2,0-0.3,0
			C388.9,491.4,387.8,491.4,386.7,491.4L386.7,491.4z"/>
	</g>
	<g>
		<path class="st1" d="M341.9,346.9c0.1,0.2,0.1,0.4,0.2,0.9c2.2,10.5,4.2,21,6.4,31.6l0.9,4.5c-2-1.3-3.7-2.8-5.2-4.6
			c-3-3.6-5.5-7.7-7.3-10.8c-2.9-5.3-5.2-9.9-7.1-14.3c-0.2-0.5-0.4-0.9-0.5-1.4c-0.1-0.2-0.2-0.6-0.3-0.8c0.3-0.1,0.6-0.3,0.9-0.4
			c3.9-1.8,7.6-3.2,11-4.3C341.4,347,341.7,346.9,341.9,346.9 M342.1,345.5c-0.4,0-0.9,0.1-1.7,0.4c-3.8,1.3-7.6,2.7-11.2,4.4
			c-2,0.9-2,1-1.3,2.9c0.2,0.5,0.4,1,0.6,1.5c2.1,5,4.5,9.7,7.2,14.4c2.2,3.9,4.5,7.7,7.4,11.1c2.1,2.5,4.5,4.4,7.6,6.1
			c0.4-1,0.3-1.6,0.2-2.1c-2.5-12.2-4.9-24.4-7.4-36.6C343.2,346,342.9,345.5,342.1,345.5L342.1,345.5z"/>
	</g>
	<g>
		<path class="st1" d="M328.2,257.8c0.1,0.7,0.2,1.4,0.2,2.1c0.5,7.6,3.3,14.7,9.1,23.2c3.6,5.3,8,10,13.3,14.1
			c-11-2.7-18.8-9.3-23.5-19.5c-2.5-5.5-2.6-11.4-0.1-17.9C327.6,259,327.9,258.5,328.2,257.8 M328.7,255.2c-0.6,0-0.8,0.7-1.1,1.1
			c-0.6,0.9-1.2,1.9-1.6,2.8c-2.4,6.4-2.6,12.8,0.2,18.9c5.3,11.7,14.4,18.4,27,20.9c0.3,0,0.5,0.1,0.8,0.1c0.3,0,0.6-0.1,1-0.4
			c-0.2-0.5-0.5-0.7-0.8-0.9c-6-4.3-11.2-9.5-15.4-15.6c-4.7-6.8-8.3-14-8.9-22.5c-0.1-1-0.2-2.1-0.3-3c-0.1-0.6,0.1-1.4-0.7-1.5
			C328.8,255.2,328.7,255.2,328.7,255.2L328.7,255.2z"/>
	</g>
	<g>
		<path class="st1" d="M437.3,263.6c1,2.7,2.2,6.3,1.9,9.7v0.1v0.1c0.3,11.3-8.1,24.1-22.8,26c-0.4,0.1-0.8,0.1-1.1,0.1
			c9.1-5.4,19.6-18.9,21.4-31.1c0-0.3,0.1-0.7,0.1-1C437,266.2,437.2,264.9,437.3,263.6 M436.6,260.2c0,0-0.1,0-0.2,0
			c-0.5,0.1-0.5,0.7-0.5,1.1c0,2.4-0.4,4.6-0.7,7c-1.8,12.7-13.3,26.9-22.7,31.1c-0.1,0.1-0.3,0.1-0.4,0.2c-0.1,0.1-0.3,0.3-0.4,0.5
			c-0.1,0.4,0.2,0.5,0.5,0.6c0.7,0.2,1.5,0.3,2.2,0.3s1.3-0.1,2-0.1c15.3-2,24.3-15.4,24-27.4c0.2-3.3-0.7-6.9-2-10.3
			c-0.3-0.8-0.7-1.5-1.1-2.2C437.3,260.6,437.1,260.2,436.6,260.2L436.6,260.2z"/>
	</g>
	<g>
		<path class="st1" d="M382.6,348c0.3,0,0.7,0,1,0c0.2,0,0.3,0,0.4,0c0,0.1,0,0.2,0.1,0.4c0,0.1,0,0.3,0,0.5c0,3,0.1,6.1,0.2,9
			c0.2,3.4,0.3,6.7,0.1,9.7l0,0l0,0c0,1.4,0,2.6,0,3.8c0,2.6,0,4.7,0,7c0,0.6,0,1.7-0.2,2c-0.1,0-0.2,0-0.4,0c-0.4,0-1-0.1-1.8-0.2
			c-1.6-0.3-1.6-0.3-1.9-2.2c-0.4-2.3-0.5-4.6-0.5-7c0-1.2-0.1-2.4-0.2-3.6c-0.3-4.7-0.4-9.6-0.5-14.3c0-1.4-0.1-2.6-0.1-4
			c0-0.6,0-0.9,0-1.1c0.3-0.1,0.9-0.1,1.1-0.1C380.9,348,381.8,348,382.6,348 M382.6,346.7c-0.9,0-1.8,0-2.6,0.1
			c-2.3,0.1-2.6,0.3-2.5,2.6c0.1,6.1,0.2,12.3,0.6,18.3c0.2,3.5,0.1,7.2,0.7,10.7c0.4,2.4,0.7,2.9,3,3.3c0.8,0.1,1.5,0.2,2,0.2
			c1.9,0,2-1,2-3.3c0.1-3.2,0-6.6,0-10.8c0.3-5.6-0.4-12.2-0.4-18.7c0-0.2,0-0.4,0-0.7c-0.1-1.4-0.4-1.6-1.8-1.7
			C383.3,346.7,383,346.7,382.6,346.7L382.6,346.7z"/>
	</g>
	<g>
		<path class="st1" d="M360.3,496.3c0.5,0,0.9,0,1.4,0s0.9,0,1.4,0c1.1,0,2.1,0,3.1,0c1,0,2.1,0,3,0c1.8,0,3.5,0,5.3,0
			c0.5,0,0.8,0,0.9,0.1c0,0.1,0.1,0.4,0.1,0.9c0,1.4,0,2.6,0,3.8c0,0.4,0,0.6-0.1,0.8c-0.2,0-0.4,0-0.8,0c-1.1,0-2.3,0-3.3,0
			c-0.8,0-1.7,0-2.5,0c-0.4,0-0.8,0-1.1,0l0,0h-1.4c-0.8,0-1.7,0-2.5,0c-0.8,0-1.7,0-2.5,0c-1.1,0-2.3,0-3.3,0c-0.4,0-0.6,0-0.7,0
			c0-0.1,0-0.3-0.1-0.7c-0.1-1.5-0.1-2.8,0-4.2c0-0.3,0-0.5,0.1-0.6c0.1,0,0.3,0,0.7-0.1C358.7,496.3,359.4,496.3,360.3,496.3
			 M360.3,494.9c-0.8,0-1.6,0-2.3,0c-1.7,0.1-2,0.4-2.1,2c-0.1,1.5-0.1,2.9,0,4.4c0.1,1.7,0.4,2,2.2,2.1c1.1,0,2.3,0,3.3,0
			c1.7,0,3.3,0,4.9,0l0,0c1.7,0,3.3,0,5,0c1.1,0,2.3,0,3.3,0c2,0,2.2-0.3,2.3-2.2c0-1.3,0-2.6,0-3.9c-0.1-2-0.3-2.3-2.4-2.3
			c-1.8,0-3.5,0-5.4,0c-2.1,0-4.1,0-6.2,0l0,0C362.2,494.9,361.2,494.9,360.3,494.9L360.3,494.9z"/>
	</g>
	<g>
		<path class="st1" d="M375.1,507.4c0.1,0.3,0.3,0.7,0.4,1c0.4,1.1,0.8,2.1,1.2,3c0.1,0.3,0.2,0.6,0.3,0.9c-0.2,0.1-0.4,0.2-0.6,0.2
			l-3.2,1.1c-4,1.4-8,2.6-12.1,4c-0.2,0.1-0.6,0.2-0.9,0.3c-0.1-0.3-0.3-0.7-0.4-0.9c-0.5-1.3-0.9-2.4-1.2-3.4
			c-0.1-0.2-0.1-0.4-0.2-0.5c0.1,0,0.3-0.1,0.5-0.2c1.6-0.6,3-1.1,4.6-1.6c0.6-0.2,1.2-0.4,1.8-0.6l2.4-0.8c2.2-0.7,4.3-1.5,6.6-2.2
			C374.4,507.6,374.8,507.5,375.1,507.4 M375.3,505.9c-0.4,0-0.9,0.2-1.6,0.4c-2.9,1-5.9,2-8.9,2.9c-2.2,0.7-4.3,1.4-6.4,2.2
			c-1.6,0.6-1.7,0.8-1.2,2.5c0.4,1.2,0.8,2.4,1.2,3.5c0.5,1.4,0.8,1.9,1.5,1.9c0.4,0,0.9-0.1,1.6-0.4c5.1-1.7,10.2-3.4,15.3-5.1
			c0.4-0.1,0.7-0.3,1-0.4c0.5-0.2,0.7-0.6,0.5-1.5c-0.4-1.1-1-2.6-1.6-4.1C376.2,506.5,376,505.9,375.3,505.9L375.3,505.9z"/>
	</g>
</g>
</svg>
