<?xml version="1.0" encoding="utf-8"?>
<!-- Generator: Adobe Illustrator 23.0.1, SVG Export Plug-In . SVG Version: 6.00 Build 0)  -->
<svg version="1.1" id="圖層_1" xmlns="http://www.w3.org/2000/svg" xmlns:xlink="http://www.w3.org/1999/xlink" x="0px" y="0px"
	 viewBox="0 0 685 256" style="enable-background:new 0 0 685 256;" xml:space="preserve">
<style type="text/css">
	.st0{fill:#FFFFFF;}
	.st1{fill:#EEEEEF;}
</style>
<g>
	<rect x="572.8" y="251.4" class="st0" width="1.9" height="2.8"/>
	<path class="st0" d="M383.6,254.8c-2.9,0-4.7-2.8-4.7-5.5v-0.1c0-2.7,1.8-5.5,4.8-5.5c2.9,0,4.7,2.8,4.7,5.5v0.1
		C388.3,252,386.5,254.8,383.6,254.8 M383.6,244.6c-2,0-3.5,2-3.5,4.6v0.1c0,2.6,1.6,4.7,3.6,4.7c2,0,3.5-2,3.5-4.6v-0.1
		C387.1,246.7,385.6,244.6,383.6,244.6 M368.3,254.6l16.3-22.1h1.1l-16.3,22.1H368.3z M370.4,243.2c-2.9,0-4.7-2.8-4.7-5.5v-0.1
		c0-2.7,1.8-5.5,4.8-5.5c2.9,0,4.7,2.8,4.7,5.5v0.1C375.2,240.4,373.4,243.2,370.4,243.2 M370.4,233c-2,0-3.5,2-3.5,4.6v0.1
		c0,2.6,1.6,4.7,3.6,4.7c2,0,3.5-2,3.5-4.6v-0.1C374,235.1,372.4,233,370.4,233"/>
	<path class="st0" d="M631.3,254.8c-2.9,0-4.7-2.8-4.7-5.5v-0.1c0-2.7,1.8-5.5,4.8-5.5c2.9,0,4.7,2.8,4.7,5.5v0.1
		C636,252,634.3,254.8,631.3,254.8 M631.3,244.6c-2,0-3.5,2-3.5,4.6v0.1c0,2.6,1.6,4.7,3.6,4.7c2,0,3.5-2,3.5-4.6v-0.1
		C634.9,246.7,633.3,244.6,631.3,244.6 M616.1,254.6l16.3-22.1h1.1l-16.3,22.1H616.1z M618.1,243.2c-2.9,0-4.7-2.8-4.7-5.5v-0.1
		c0-2.7,1.8-5.5,4.8-5.5c2.9,0,4.7,2.8,4.7,5.5v0.1C622.9,240.4,621.1,243.2,618.1,243.2 M618.1,233c-2,0-3.5,2-3.5,4.6v0.1
		c0,2.6,1.6,4.7,3.6,4.7c2,0,3.5-2,3.5-4.6v-0.1C621.7,235.1,620.2,233,618.1,233"/>
	<path class="st0" d="M1.1,250.1l0.8-0.9c2.8,2.8,6.5,4.5,10.1,4.5c8.7,0,13.6-8.6,13.6-19.5v-0.1c0-1.2-0.1-3.3-0.1-4.6
		c-0.5,5.8-6,10.4-12.4,10.4c-7.5,0-13.2-4.7-13.2-11.8V228c0-6.8,5.7-12.2,12.9-12.2c4.1,0,7.2,1.6,9.4,3.8
		c2.9,2.9,4.5,7.6,4.5,14.5v0.1c0,11.8-5.4,20.6-14.8,20.6C8,254.8,4,253,1.1,250.1 M24.8,228.2v-0.1c0-6.3-5.3-11.2-11.9-11.2
		c-6.5,0-11.7,5.1-11.7,11.1v0.1c0,6.4,5.2,10.7,12,10.7C19.5,238.8,24.8,234.1,24.8,228.2"/>
	<rect x="63.7" y="237.6" class="st0" width="13.4" height="1.1"/>
	<path class="st0" d="M167.4,254.8c-2.9,0-4.7-2.8-4.7-5.5v-0.1c0-2.7,1.8-5.5,4.8-5.5c2.9,0,4.7,2.8,4.7,5.5v0.1
		C172.2,252,170.4,254.8,167.4,254.8 M167.4,244.6c-2,0-3.5,2-3.5,4.6v0.1c0,2.6,1.6,4.7,3.6,4.7c2,0,3.5-2,3.5-4.6v-0.1
		C171,246.7,169.4,244.6,167.4,244.6 M152.2,254.6l16.3-22.1h1.1l-16.3,22.1H152.2z M154.3,243.2c-2.9,0-4.7-2.8-4.7-5.5v-0.1
		c0-2.7,1.8-5.5,4.8-5.5c2.9,0,4.7,2.8,4.7,5.5v0.1C159,240.4,157.3,243.2,154.3,243.2 M154.3,233c-2,0-3.5,2-3.5,4.6v0.1
		c0,2.6,1.6,4.7,3.6,4.7c2,0,3.5-2,3.5-4.6v-0.1C157.9,235.1,156.3,233,154.3,233"/>
	<rect x="115.5" y="172" class="st0" width="1.1" height="9.1"/>
	<polygon class="st0" points="126.1,181.1 125,181.1 120.1,173.9 120,173.9 120,181.1 118.9,181.1 118.9,172 120,172 124.9,179.2 
		125,179.2 125,172 126.1,172 	"/>
	<polygon class="st0" points="131.4,179.7 131.5,179.7 134.2,172 135.4,172 132,181.1 130.9,181.1 127.5,172 128.7,172 	"/>
	<polygon class="st0" points="136.8,172 142.3,172 142.3,173 137.9,173 137.9,176 142,176 142,177 137.9,177 137.9,180.1 
		142.4,180.1 142.4,181.1 136.8,181.1 	"/>
	<path class="st0" d="M144.1,172h3.1c2.1,0,3.1,1.2,3.1,2.8c0,1.2-0.5,2.2-1.7,2.6l2.1,3.8h-1.3l-1.9-3.6c-0.1,0-0.2,0-0.2,0h-2v3.6
		h-1.1V172z M147.2,176.5c1.5,0,2-0.7,2-1.8c0-1.1-0.6-1.8-2-1.8h-1.9v3.6H147.2z"/>
	<polygon class="st0" points="151.4,172 158.3,172 158.3,173 155.4,173 155.4,181.1 154.3,181.1 154.3,173 151.4,173 	"/>
	<polygon class="st0" points="159.8,172 165.3,172 165.3,173 160.9,173 160.9,176 165.1,176 165.1,177 160.9,177 160.9,180.1 
		165.4,180.1 165.4,181.1 159.8,181.1 	"/>
	<path class="st0" d="M167.1,172h3.1c2.1,0,3.1,1.2,3.1,2.8c0,1.2-0.5,2.2-1.7,2.6l2.1,3.8h-1.3l-1.9-3.6c-0.1,0-0.2,0-0.2,0h-2v3.6
		h-1.1V172z M170.2,176.5c1.5,0,2-0.7,2-1.8c0-1.1-0.6-1.8-2-1.8h-1.9v3.6H170.2z"/>
	<polygon class="st0" points="104,187 109.5,187 109.5,188 105.1,188 105.1,191.1 109.2,191.1 109.2,192.1 105.1,192.1 105.1,195.2 
		109.6,195.2 109.6,196.1 104,196.1 	"/>
	<polygon class="st0" points="111.3,187 116.7,187 116.7,188 112.4,188 112.4,191.1 116.3,191.1 116.3,192.1 112.4,192.1 
		112.4,196.1 111.3,196.1 	"/>
	<polygon class="st0" points="118.4,187 123.9,187 123.9,188 119.5,188 119.5,191.1 123.5,191.1 123.5,192.1 119.5,192.1 
		119.5,196.1 118.4,196.1 	"/>
	<rect x="125.5" y="187" class="st0" width="1.1" height="9.1"/>
	<path class="st0" d="M135.1,189.9c-0.3-1.3-1.4-1.9-2.6-1.9c-1.7,0-3,1.3-3,3.6s1.3,3.6,3,3.6c1.2,0,2.3-0.7,2.6-1.9h1.1
		c-0.3,1.9-1.8,3-3.7,3c-2.3,0-4-1.8-4-4.7c0-2.9,1.7-4.7,4-4.7c1.8,0,3.3,1.1,3.7,3H135.1z"/>
	<rect x="138" y="187" class="st0" width="1.1" height="9.1"/>
	<polygon class="st0" points="141.4,187 146.9,187 146.9,188 142.5,188 142.5,191.1 146.6,191.1 146.6,192.1 142.5,192.1 
		142.5,195.2 147,195.2 147,196.1 141.4,196.1 	"/>
	<polygon class="st0" points="155.9,196.1 154.9,196.1 149.9,189 149.8,189 149.8,196.1 148.7,196.1 148.7,187 149.8,187 
		154.7,194.2 154.8,194.2 154.8,187 155.9,187 	"/>
	<path class="st0" d="M164.3,189.9c-0.3-1.3-1.4-1.9-2.6-1.9c-1.7,0-3,1.3-3,3.6s1.3,3.6,3,3.6c1.2,0,2.3-0.7,2.6-1.9h1.1
		c-0.3,1.9-1.8,3-3.7,3c-2.3,0-4-1.8-4-4.7c0-2.9,1.7-4.7,4-4.7c1.8,0,3.3,1.1,3.7,3H164.3z"/>
	<polygon class="st0" points="167.3,187 169.8,191.3 169.9,191.3 172.5,187 173.7,187 170.4,192.4 170.4,196.1 169.3,196.1 
		169.3,192.4 166,187 	"/>
	<path class="st0" d="M30.9,248.1l1-0.8c2.8,3.7,7.2,6.4,12.6,6.4c6,0,11-3.9,11-9.3v-0.1c0-6.7-5.7-9.4-14-9.4h-1.3l-0.4-0.8
		l14.7-16.7H33v-1.1h23.1v0.9l-14.6,16.6c9.3,0.1,15.2,3.3,15.2,10.4v0.1c0,6.1-5.6,10.4-12.2,10.4C38.6,254.8,33.9,252,30.9,248.1"
		/>
	<path class="st0" d="M84.8,250.1l0.8-0.9c2.8,2.8,6.5,4.5,10.1,4.5c8.7,0,13.6-8.6,13.6-19.5v-0.1c0-1.2-0.1-3.3-0.1-4.6
		c-0.5,5.8-6,10.4-12.4,10.4c-7.5,0-13.2-4.7-13.2-11.8V228c0-6.8,5.7-12.2,12.9-12.2c4.1,0,7.2,1.6,9.4,3.8
		c2.9,2.9,4.5,7.6,4.5,14.5v0.1c0,11.8-5.4,20.6-14.8,20.6C91.7,254.8,87.7,253,84.8,250.1 M108.4,228.2v-0.1
		c0-6.3-5.3-11.2-11.9-11.2c-6.5,0-11.7,5.1-11.7,11.1v0.1c0,6.4,5.2,10.7,12,10.7C103.2,238.8,108.4,234.1,108.4,228.2"/>
	<path class="st0" d="M117.3,248.8l0.9-0.8c2.6,3.1,7.1,5.8,12,5.8c6.9,0,11.8-4.4,11.8-10.7V243c0-6-5.1-10.1-11.5-10.1
		c-3,0-6.4,0.6-10,2.5l-0.7-0.4l1.1-18.6H141v1.1h-19l-1,16.4c3-1.5,6.2-2.1,9.6-2.1c7.2,0,12.6,4.5,12.6,11.1v0.1
		c0,6.9-5.3,11.8-13,11.8C125.1,254.8,120,252.1,117.3,248.8"/>
	<polygon class="st0" points="513.5,172.1 520.3,172.1 520.3,173.1 517.5,173.1 517.5,181.2 516.3,181.2 516.3,173.1 513.5,173.1 	
		"/>
	<path class="st0" d="M521.9,172.1h3.1c2.1,0,3.1,1.2,3.1,2.8c0,1.2-0.5,2.2-1.7,2.6l2.1,3.8h-1.3l-1.9-3.6c-0.1,0-0.2,0-0.2,0h-2
		v3.6h-1.1V172.1z M525,176.7c1.5,0,2-0.7,2-1.8c0-1.1-0.6-1.8-2-1.8H523v3.6H525z"/>
	<path class="st0" d="M529.5,181.2l3.3-9.1h1.1l3.3,9.1h-1.2l-0.9-2.6h-3.7l-0.9,2.6H529.5z M534.9,177.7l-1.5-4.1h-0.1l-1.5,4.1
		H534.9z"/>
	<polygon class="st0" points="546,181.2 544.9,181.2 539.9,174.1 539.9,174.1 539.9,181.2 538.8,181.2 538.8,172.1 539.8,172.1 
		544.8,179.3 544.9,179.3 544.9,172.1 546,172.1 	"/>
	<path class="st0" d="M551.1,173c-1.2,0-2,0.6-2,1.5c0,1,1.1,1.3,1.8,1.5l0.9,0.2c0.9,0.2,2.6,0.8,2.6,2.5c0,1.5-1.2,2.6-3.3,2.6
		c-2,0-3.2-1-3.3-2.5h1.1c0.1,1,1,1.5,2.1,1.5c1.3,0,2.2-0.7,2.2-1.7c0-0.9-0.9-1.2-1.8-1.5l-1.1-0.3c-1.4-0.4-2.3-1.1-2.3-2.4
		c0-1.5,1.4-2.5,3.1-2.5c1.8,0,3,1,3.1,2.4h-1.1C553,173.5,552.2,173,551.1,173"/>
	<polygon class="st0" points="557.5,172.1 560.6,179.7 560.7,179.7 563.8,172.1 565.1,172.1 565.1,181.2 564.1,181.2 564.1,174.3 
		564,174.3 561.1,181.2 560.1,181.2 557.3,174.3 557.2,174.3 557.2,181.2 556.2,181.2 556.2,172.1 	"/>
	<rect x="567.3" y="172.1" class="st0" width="1.1" height="9.1"/>
	<path class="st0" d="M573.6,173c-1.2,0-2,0.6-2,1.5c0,1,1.1,1.3,1.8,1.5l0.9,0.2c0.9,0.2,2.6,0.8,2.6,2.5c0,1.5-1.2,2.6-3.3,2.6
		c-2,0-3.2-1-3.3-2.5h1.1c0.1,1,1.1,1.5,2.1,1.5c1.3,0,2.2-0.7,2.2-1.7c0-0.9-0.9-1.2-1.8-1.5l-1.1-0.3c-1.4-0.4-2.3-1.1-2.3-2.4
		c0-1.5,1.4-2.5,3.1-2.5c1.8,0,3,1,3.1,2.4h-1.1C575.5,173.5,574.7,173,573.6,173"/>
	<path class="st0" d="M581.6,173c-1.2,0-2,0.6-2,1.5c0,1,1.1,1.3,1.8,1.5l0.9,0.2c0.9,0.2,2.6,0.8,2.6,2.5c0,1.5-1.2,2.6-3.3,2.6
		c-2,0-3.2-1-3.3-2.5h1.1c0.1,1,1,1.5,2.1,1.5c1.3,0,2.2-0.7,2.2-1.7c0-0.9-0.9-1.2-1.8-1.5l-1.1-0.3c-1.4-0.4-2.3-1.1-2.3-2.4
		c0-1.5,1.4-2.5,3.1-2.5c1.8,0,3,1,3.1,2.4h-1.1C583.6,173.5,582.7,173,581.6,173"/>
	<rect x="586.7" y="172.1" class="st0" width="1.1" height="9.1"/>
	<path class="st0" d="M593.7,181.3c-2.3,0-4-1.8-4-4.7c0-2.9,1.7-4.7,4-4.7c2.3,0,4,1.8,4,4.7C597.7,179.6,596.1,181.3,593.7,181.3
		 M593.7,173c-1.7,0-3,1.3-3,3.7c0,2.4,1.3,3.7,3,3.7c1.7,0,3-1.3,3-3.7C596.7,174.3,595.4,173,593.7,173"/>
	<polygon class="st0" points="606.8,181.2 605.8,181.2 600.8,174.1 600.7,174.1 600.7,181.2 599.6,181.2 599.6,172.1 600.7,172.1 
		605.7,179.3 605.8,179.3 605.8,172.1 606.8,172.1 	"/>
	<polygon class="st0" points="514,187.1 519.5,187.1 519.5,188.1 515.1,188.1 515.1,191.2 519.2,191.2 519.2,192.2 515.1,192.2 
		515.1,195.3 519.6,195.3 519.6,196.3 514,196.3 	"/>
	<polygon class="st0" points="521.3,187.1 526.7,187.1 526.7,188.1 522.4,188.1 522.4,191.2 526.3,191.2 526.3,192.2 522.4,192.2 
		522.4,196.3 521.3,196.3 	"/>
	<polygon class="st0" points="528.4,187.1 533.9,187.1 533.9,188.1 529.5,188.1 529.5,191.2 533.5,191.2 533.5,192.2 529.5,192.2 
		529.5,196.3 528.4,196.3 	"/>
	<rect x="535.5" y="187.1" class="st0" width="1.1" height="9.1"/>
	<path class="st0" d="M545.1,190c-0.3-1.3-1.4-1.9-2.6-1.9c-1.7,0-3,1.3-3,3.6c0,2.4,1.3,3.6,3,3.6c1.2,0,2.3-0.7,2.6-1.9h1.1
		c-0.3,1.9-1.8,3-3.7,3c-2.3,0-4-1.8-4-4.7c0-2.9,1.7-4.7,4-4.7c1.8,0,3.3,1.1,3.7,3H545.1z"/>
	<rect x="548" y="187.1" class="st0" width="1.1" height="9.1"/>
	<polygon class="st0" points="551.4,187.1 556.9,187.1 556.9,188.1 552.5,188.1 552.5,191.2 556.6,191.2 556.6,192.2 552.5,192.2 
		552.5,195.3 557,195.3 557,196.3 551.4,196.3 	"/>
	<polygon class="st0" points="565.9,196.3 564.8,196.3 559.9,189.1 559.8,189.1 559.8,196.3 558.7,196.3 558.7,187.1 559.8,187.1 
		564.7,194.3 564.8,194.3 564.8,187.1 565.9,187.1 	"/>
	<path class="st0" d="M574.3,190c-0.3-1.3-1.4-1.9-2.6-1.9c-1.7,0-3,1.3-3,3.6c0,2.4,1.3,3.6,3,3.6c1.2,0,2.3-0.7,2.6-1.9h1.1
		c-0.3,1.9-1.8,3-3.7,3c-2.3,0-4-1.8-4-4.7c0-2.9,1.7-4.7,4-4.7c1.8,0,3.3,1.1,3.7,3H574.3z"/>
	<polygon class="st0" points="577.3,187.1 579.8,191.4 579.9,191.4 582.5,187.1 583.7,187.1 580.4,192.5 580.4,196.3 579.3,196.3 
		579.3,192.5 576,187.1 	"/>
	<path class="st0" d="M516.4,250.1l0.8-0.9c2.8,2.8,6.5,4.5,10.1,4.5c8.7,0,13.6-8.6,13.6-19.5v-0.1c0-1.2-0.1-3.3-0.1-4.6
		c-0.5,5.8-6,10.4-12.4,10.4c-7.5,0-13.2-4.7-13.2-11.8V228c0-6.8,5.7-12.2,13-12.2c4.1,0,7.2,1.6,9.4,3.8c2.9,2.9,4.5,7.6,4.5,14.5
		v0.1c0,11.8-5.4,20.6-14.8,20.6C523.3,254.8,519.3,253,516.4,250.1 M540.1,228.2v-0.1c0-6.3-5.3-11.2-11.9-11.2
		c-6.5,0-11.7,5.1-11.7,11.1v0.1c0,6.4,5.2,10.7,12,10.7C534.8,238.8,540.1,234.1,540.1,228.2"/>
	<polygon class="st0" points="570.6,217.5 547.4,217.5 547.4,216.4 571.9,216.4 571.9,217.1 553.3,254.2 552,254.2 	"/>
	<path class="st0" d="M581.9,248.8l0.9-0.8c2.6,3.1,7.1,5.8,12,5.8c6.9,0,11.8-4.4,11.8-10.7V243c0-6-5.1-10.1-11.5-10.1
		c-3,0-6.4,0.6-10,2.5l-0.7-0.4l1.1-18.6h20.1v1.1h-19l-1,16.4c3-1.5,6.2-2.1,9.6-2.1c7.2,0,12.6,4.5,12.6,11.1v0.1
		c0,6.9-5.3,11.8-13,11.8C589.7,254.8,584.6,252.1,581.9,248.8"/>
	<path class="st0" d="M490.5,153.3L490.5,153.3c0,0.5-0.4,0.9-0.9,0.9c-0.5,0-0.9-0.4-0.9-0.9v-0.1c0-0.5,0.4-0.9,0.9-0.9
		C490.1,152.4,490.5,152.8,490.5,153.3 M489.6,217.3c-0.5,0-0.9,0.4-0.9,0.9v0.1c0,0.5,0.4,0.9,0.9,0.9c0.5,0,0.9-0.4,0.9-0.9v-0.1
		C490.5,217.6,490.1,217.3,489.6,217.3 M489.6,224.5c-0.5,0-0.9,0.4-0.9,0.9v0.1c0,0.5,0.4,0.9,0.9,0.9c0.5,0,0.9-0.4,0.9-0.9v-0.1
		C490.5,224.9,490.1,224.5,489.6,224.5 M489.6,238.9c-0.5,0-0.9,0.4-0.9,0.9v0.1c0,0.5,0.4,0.9,0.9,0.9c0.5,0,0.9-0.4,0.9-0.9v-0.1
		C490.5,239.3,490.1,238.9,489.6,238.9 M489.6,231.7c-0.5,0-0.9,0.4-0.9,0.9v0.1c0,0.5,0.4,0.9,0.9,0.9c0.5,0,0.9-0.4,0.9-0.9v-0.1
		C490.5,232.1,490.1,231.7,489.6,231.7 M489.6,246.1c-0.5,0-0.9,0.4-0.9,0.9v0.1c0,0.5,0.4,0.9,0.9,0.9c0.5,0,0.9-0.4,0.9-0.9V247
		C490.5,246.5,490.1,246.1,489.6,246.1 M489.6,210c-0.5,0-0.9,0.4-0.9,0.9v0.1c0,0.5,0.4,0.9,0.9,0.9c0.5,0,0.9-0.4,0.9-0.9v-0.1
		C490.5,210.4,490.1,210,489.6,210 M489.6,195.6c-0.5,0-0.9,0.4-0.9,0.9v0.1c0,0.5,0.4,0.9,0.9,0.9c0.5,0,0.9-0.4,0.9-0.9v-0.1
		C490.5,196,490.1,195.6,489.6,195.6 M489.6,174c-0.5,0-0.9,0.4-0.9,0.9v0.1c0,0.5,0.4,0.9,0.9,0.9c0.5,0,0.9-0.4,0.9-0.9v-0.1
		C490.5,174.4,490.1,174,489.6,174 M489.6,166.8c-0.5,0-0.9,0.4-0.9,0.9v0.1c0,0.5,0.4,0.9,0.9,0.9c0.5,0,0.9-0.4,0.9-0.9v-0.1
		C490.5,167.2,490.1,166.8,489.6,166.8 M489.6,159.6c-0.5,0-0.9,0.4-0.9,0.9v0.1c0,0.5,0.4,0.9,0.9,0.9c0.5,0,0.9-0.4,0.9-0.9v-0.1
		C490.5,160,490.1,159.6,489.6,159.6 M490.5,131.7L490.5,131.7c0,0.5-0.4,0.9-0.9,0.9c-0.5,0-0.9-0.4-0.9-0.9v-0.1
		c0-0.5,0.4-0.9,0.9-0.9C490.1,130.8,490.5,131.2,490.5,131.7 M489.6,145.1c-0.5,0-0.9,0.4-0.9,0.9v0.1c0,0.5,0.4,0.9,0.9,0.9
		c0.5,0,0.9-0.4,0.9-0.9V146C490.5,145.5,490.1,145.1,489.6,145.1 M489.6,137.9c-0.5,0-0.9,0.4-0.9,0.9v0.1c0,0.5,0.4,0.9,0.9,0.9
		c0.5,0,0.9-0.4,0.9-0.9v-0.1C490.5,138.3,490.1,137.9,489.6,137.9 M489.6,188.4c-0.5,0-0.9,0.4-0.9,0.9v0.1c0,0.5,0.4,0.9,0.9,0.9
		c0.5,0,0.9-0.4,0.9-0.9v-0.1C490.5,188.8,490.1,188.4,489.6,188.4 M489.6,202.8c-0.5,0-0.9,0.4-0.9,0.9v0.1c0,0.5,0.4,0.9,0.9,0.9
		c0.5,0,0.9-0.4,0.9-0.9v-0.1C490.5,203.2,490.1,202.8,489.6,202.8 M489.6,181.2c-0.5,0-0.9,0.4-0.9,0.9v0.1c0,0.5,0.4,0.9,0.9,0.9
		c0.5,0,0.9-0.4,0.9-0.9v-0.1C490.5,181.6,490.1,181.2,489.6,181.2 M489.6,253.3c-0.5,0-0.9,0.4-0.9,0.9v0.1c0,0.5,0.4,0.9,0.9,0.9
		c0.5,0,0.9-0.4,0.9-0.9v-0.1C490.5,253.7,490.1,253.3,489.6,253.3"/>
	<path class="st0" d="M198.7,153.3L198.7,153.3c0,0.5-0.4,0.9-0.9,0.9c-0.5,0-0.9-0.4-0.9-0.9v-0.1c0-0.5,0.4-0.9,0.9-0.9
		C198.3,152.4,198.7,152.8,198.7,153.3 M197.8,231.7c-0.5,0-0.9,0.4-0.9,0.9v0.1c0,0.5,0.4,0.9,0.9,0.9c0.5,0,0.9-0.4,0.9-0.9v-0.1
		C198.7,232.1,198.3,231.7,197.8,231.7 M197.8,210c-0.5,0-0.9,0.4-0.9,0.9v0.1c0,0.5,0.4,0.9,0.9,0.9c0.5,0,0.9-0.4,0.9-0.9v-0.1
		C198.7,210.4,198.3,210,197.8,210 M197.8,224.5c-0.5,0-0.9,0.4-0.9,0.9v0.1c0,0.5,0.4,0.9,0.9,0.9c0.5,0,0.9-0.4,0.9-0.9v-0.1
		C198.7,224.9,198.3,224.5,197.8,224.5 M197.8,217.3c-0.5,0-0.9,0.4-0.9,0.9v0.1c0,0.5,0.4,0.9,0.9,0.9c0.5,0,0.9-0.4,0.9-0.9v-0.1
		C198.7,217.6,198.3,217.3,197.8,217.3 M197.8,246.1c-0.5,0-0.9,0.4-0.9,0.9v0.1c0,0.5,0.4,0.9,0.9,0.9c0.5,0,0.9-0.4,0.9-0.9V247
		C198.7,246.5,198.3,246.1,197.8,246.1 M197.8,238.9c-0.5,0-0.9,0.4-0.9,0.9v0.1c0,0.5,0.4,0.9,0.9,0.9c0.5,0,0.9-0.4,0.9-0.9v-0.1
		C198.7,239.3,198.3,238.9,197.8,238.9 M197.8,174c-0.5,0-0.9,0.4-0.9,0.9v0.1c0,0.5,0.4,0.9,0.9,0.9c0.5,0,0.9-0.4,0.9-0.9v-0.1
		C198.7,174.4,198.3,174,197.8,174 M197.8,166.8c-0.5,0-0.9,0.4-0.9,0.9v0.1c0,0.5,0.4,0.9,0.9,0.9c0.5,0,0.9-0.4,0.9-0.9v-0.1
		C198.7,167.2,198.3,166.8,197.8,166.8 M197.8,181.2c-0.5,0-0.9,0.4-0.9,0.9v0.1c0,0.5,0.4,0.9,0.9,0.9c0.5,0,0.9-0.4,0.9-0.9v-0.1
		C198.7,181.6,198.3,181.2,197.8,181.2 M197.8,159.6c-0.5,0-0.9,0.4-0.9,0.9v0.1c0,0.5,0.4,0.9,0.9,0.9c0.5,0,0.9-0.4,0.9-0.9v-0.1
		C198.7,160,198.3,159.6,197.8,159.6 M198.7,131.7L198.7,131.7c0,0.5-0.4,0.9-0.9,0.9c-0.5,0-0.9-0.4-0.9-0.9v-0.1
		c0-0.5,0.4-0.9,0.9-0.9C198.3,130.8,198.7,131.2,198.7,131.7 M197.8,145.1c-0.5,0-0.9,0.4-0.9,0.9v0.1c0,0.5,0.4,0.9,0.9,0.9
		c0.5,0,0.9-0.4,0.9-0.9V146C198.7,145.5,198.3,145.1,197.8,145.1 M197.8,137.9c-0.5,0-0.9,0.4-0.9,0.9v0.1c0,0.5,0.4,0.9,0.9,0.9
		c0.5,0,0.9-0.4,0.9-0.9v-0.1C198.7,138.3,198.3,137.9,197.8,137.9 M197.8,188.4c-0.5,0-0.9,0.4-0.9,0.9v0.1c0,0.5,0.4,0.9,0.9,0.9
		c0.5,0,0.9-0.4,0.9-0.9v-0.1C198.7,188.8,198.3,188.4,197.8,188.4 M197.8,202.8c-0.5,0-0.9,0.4-0.9,0.9v0.1c0,0.5,0.4,0.9,0.9,0.9
		c0.5,0,0.9-0.4,0.9-0.9v-0.1C198.7,203.2,198.3,202.8,197.8,202.8 M197.8,195.6c-0.5,0-0.9,0.4-0.9,0.9v0.1c0,0.5,0.4,0.9,0.9,0.9
		c0.5,0,0.9-0.4,0.9-0.9v-0.1C198.7,196,198.3,195.6,197.8,195.6 M197.8,253.3c-0.5,0-0.9,0.4-0.9,0.9v0.1c0,0.5,0.4,0.9,0.9,0.9
		c0.5,0,0.9-0.4,0.9-0.9v-0.1C198.7,253.7,198.3,253.3,197.8,253.3"/>
	<polygon class="st0" points="331.3,172.1 336.8,172.1 336.8,173.1 332.4,173.1 332.4,176.2 336.5,176.2 336.5,177.1 332.4,177.1 
		332.4,180.2 336.9,180.2 336.9,181.2 331.3,181.2 	"/>
	<path class="st0" d="M341.5,173c-1.2,0-2,0.6-2,1.5c0,1,1.1,1.3,1.8,1.5l0.9,0.2c0.9,0.2,2.6,0.8,2.6,2.5c0,1.5-1.2,2.6-3.3,2.6
		c-2,0-3.2-1-3.3-2.5h1.1c0.1,1,1.1,1.5,2.1,1.5c1.3,0,2.2-0.7,2.2-1.7c0-0.9-0.9-1.2-1.8-1.5l-1.1-0.3c-1.4-0.4-2.3-1.1-2.3-2.4
		c0-1.5,1.4-2.5,3.1-2.5c1.8,0,3,1,3.1,2.4h-1.1C343.5,173.5,342.6,173,341.5,173"/>
	<path class="st0" d="M349.5,173c-1.2,0-2,0.6-2,1.5c0,1,1.1,1.3,1.8,1.5l0.9,0.2c0.9,0.2,2.6,0.8,2.6,2.5c0,1.5-1.2,2.6-3.3,2.6
		c-2,0-3.2-1-3.3-2.5h1.1c0.1,1,1,1.5,2.1,1.5c1.3,0,2.2-0.7,2.2-1.7c0-0.9-0.9-1.2-1.8-1.5l-1.1-0.3c-1.4-0.4-2.3-1.1-2.3-2.4
		c0-1.5,1.4-2.5,3.1-2.5c1.8,0,3,1,3.1,2.4h-1.1C351.5,173.5,350.6,173,349.5,173"/>
	<polygon class="st0" points="309.1,187.1 314.6,187.1 314.6,188.1 310.2,188.1 310.2,191.2 314.4,191.2 314.4,192.2 310.2,192.2 
		310.2,195.3 314.7,195.3 314.7,196.3 309.1,196.3 	"/>
	<polygon class="st0" points="316.4,187.1 321.9,187.1 321.9,188.1 317.5,188.1 317.5,191.2 321.5,191.2 321.5,192.2 317.5,192.2 
		317.5,196.3 316.4,196.3 	"/>
	<polygon class="st0" points="323.6,187.1 329,187.1 329,188.1 324.7,188.1 324.7,191.2 328.6,191.2 328.6,192.2 324.7,192.2 
		324.7,196.3 323.6,196.3 	"/>
	<rect x="330.7" y="187.1" class="st0" width="1.1" height="9.1"/>
	<path class="st0" d="M340.3,190c-0.3-1.3-1.4-1.9-2.6-1.9c-1.7,0-3,1.3-3,3.6c0,2.4,1.3,3.6,3,3.6c1.2,0,2.3-0.7,2.6-1.9h1.1
		c-0.3,1.9-1.8,3-3.7,3c-2.3,0-4-1.8-4-4.7c0-2.9,1.7-4.7,4-4.7c1.8,0,3.3,1.1,3.7,3H340.3z"/>
	<rect x="343.2" y="187.1" class="st0" width="1.1" height="9.1"/>
	<polygon class="st0" points="346.6,187.1 352.1,187.1 352.1,188.1 347.7,188.1 347.7,191.2 351.8,191.2 351.8,192.2 347.7,192.2 
		347.7,195.3 352.1,195.3 352.1,196.3 346.6,196.3 	"/>
	<polygon class="st0" points="361.1,196.3 360,196.3 355,189.1 355,189.1 355,196.3 353.9,196.3 353.9,187.1 354.9,187.1 
		359.9,194.3 360,194.3 360,187.1 361.1,187.1 	"/>
	<path class="st0" d="M369.5,190c-0.3-1.3-1.4-1.9-2.6-1.9c-1.7,0-3,1.3-3,3.6c0,2.4,1.3,3.6,3,3.6c1.2,0,2.3-0.7,2.6-1.9h1.1
		c-0.3,1.9-1.8,3-3.7,3c-2.3,0-4-1.8-4-4.7c0-2.9,1.7-4.7,4-4.7c1.8,0,3.3,1.1,3.7,3H369.5z"/>
	<polygon class="st0" points="372.5,187.1 375,191.4 375.1,191.4 377.6,187.1 378.9,187.1 375.6,192.5 375.6,196.3 374.5,196.3 
		374.5,192.5 371.2,187.1 	"/>
	<path class="st0" d="M308,250.1l0.8-0.9c2.8,2.8,6.5,4.5,10.1,4.5c8.7,0,13.6-8.6,13.6-19.5v-0.1c0-1.2-0.1-3.3-0.1-4.6
		c-0.5,5.8-6,10.4-12.4,10.4c-7.5,0-13.2-4.7-13.2-11.8V228c0-6.8,5.7-12.2,13-12.2c4.1,0,7.2,1.6,9.4,3.8c2.9,2.9,4.5,7.6,4.5,14.5
		v0.1c0,11.8-5.4,20.6-14.8,20.6C314.9,254.8,310.9,253,308,250.1 M331.6,228.2v-0.1c0-6.3-5.3-11.2-11.9-11.2
		c-6.5,0-11.7,5.1-11.7,11.1v0.1c0,6.4,5.2,10.7,12,10.7C326.4,238.8,331.6,234.1,331.6,228.2"/>
	<polygon class="st0" points="362.2,217.5 339,217.5 339,216.4 363.5,216.4 363.5,217.1 344.9,254.2 343.6,254.2 	"/>
	<path class="st0" d="M262.3,8.7l3.2-8.6h1.1l3.2,8.6h-1.1l-0.9-2.4h-3.5l-0.9,2.4H262.3z M267.4,5.4L266,1.5H266l-1.4,3.9H267.4z"
		/>
	<path class="st0" d="M277.5,2.8C277.2,1.6,276.2,1,275,1c-1.6,0-2.8,1.2-2.8,3.4c0,2.2,1.2,3.4,2.8,3.4c1.1,0,2.2-0.6,2.4-1.8h1
		c-0.3,1.8-1.7,2.8-3.5,2.8c-2.2,0-3.8-1.7-3.8-4.4c0-2.7,1.6-4.4,3.8-4.4c1.7,0,3.1,1,3.5,2.8H277.5z"/>
	<path class="st0" d="M116.4,8.7V0.1h2.8c2.5,0,4,1.6,4,4.3c0,2.7-1.5,4.3-4.1,4.3H116.4z M119,7.8c2.1,0,3.2-1.3,3.2-3.4
		c0-2.1-1-3.4-3-3.4h-1.7v6.8H119z"/>
	<path class="st0" d="M131.7,2.8c-0.3-1.2-1.3-1.8-2.4-1.8c-1.6,0-2.8,1.2-2.8,3.4c0,2.2,1.2,3.4,2.8,3.4c1.1,0,2.2-0.6,2.4-1.8h1
		c-0.3,1.8-1.7,2.8-3.5,2.8c-2.2,0-3.8-1.7-3.8-4.4c0-2.7,1.6-4.4,3.8-4.4c1.7,0,3.1,1,3.5,2.8H131.7z"/>
	<path class="st0" d="M408.2,8.7l3.2-8.6h1.1l3.2,8.6h-1.1l-0.9-2.4h-3.5l-0.9,2.4H408.2z M413.3,5.4l-1.4-3.9h-0.1l-1.4,3.9H413.3z
		"/>
	<path class="st0" d="M423.4,2.8c-0.3-1.2-1.3-1.8-2.4-1.8c-1.6,0-2.8,1.2-2.8,3.4c0,2.2,1.2,3.4,2.8,3.4c1.1,0,2.2-0.6,2.4-1.8h1
		c-0.3,1.8-1.7,2.8-3.5,2.8c-2.2,0-3.8-1.7-3.8-4.4c0-2.7,1.6-4.4,3.8-4.4c1.7,0,3.1,1,3.5,2.8H423.4z"/>
	<path class="st0" d="M554.1,8.7l3.2-8.6h1.1l3.2,8.6h-1.1l-0.9-2.4h-3.5l-0.9,2.4H554.1z M559.2,5.4l-1.4-3.9h-0.1l-1.4,3.9H559.2z
		"/>
	<path class="st0" d="M569.3,2.8C569,1.6,568,1,566.8,1c-1.6,0-2.8,1.2-2.8,3.4c0,2.2,1.2,3.4,2.8,3.4c1.1,0,2.2-0.6,2.4-1.8h1
		c-0.3,1.8-1.7,2.8-3.5,2.8c-2.2,0-3.8-1.7-3.8-4.4c0-2.7,1.6-4.4,3.8-4.4c1.7,0,3.1,1,3.5,2.8H569.3z"/>
	<polygon class="st0" points="175.6,58.9 174.2,58.9 174.2,59.3 174.2,81.6 175.6,81.6 	"/>
	<polygon class="st0" points="200.5,81.6 200.8,81.6 200.8,58.9 199.5,58.9 199.5,79.1 183.3,58.9 182.6,58.9 182.2,58.9 
		182.2,59.3 182.2,81.6 183.6,81.6 183.6,61.4 199.7,81.6 	"/>
	<polygon class="st0" points="215.3,81.7 216,81.7 216.3,81.7 226.5,58.9 225.1,58.9 215.8,79.6 206.5,58.9 205,58.9 205.2,59.4 	
		"/>
	<path class="st0" d="M197.6,23.7c-27.5,0-49.8,22.3-49.8,49.8c0,27.5,22.3,49.8,49.8,49.8c27.5,0,49.8-22.3,49.8-49.8
		C247.4,46,225.1,23.7,197.6,23.7 M231.9,107.7c-8.8,8.8-20.9,14.2-34.2,14.2c-13.4,0-25.5-5.4-34.2-14.2
		c-8.8-8.8-14.2-20.9-14.2-34.2c0-13.4,5.4-25.5,14.2-34.2c8.8-8.8,20.9-14.2,34.2-14.2c13.4,0,25.5,5.4,34.2,14.2
		C240.6,48,246,60.1,246,73.5C246,86.9,240.6,98.9,231.9,107.7"/>
	<path class="st0" d="M47.2,63.7c-1.5-1.2-3.7-1.8-6.4-1.8h-8.1v0.3v22.3h1.4v-8.6h6.5c2.7,0,4.9-0.6,6.5-1.8c1.6-1.2,2.4-3,2.4-5.2
		v-0.1C49.5,66.7,48.7,64.9,47.2,63.7 M40.7,63.2c2.4,0,4.3,0.6,5.5,1.5c1.3,1,1.9,2.3,1.9,4.1v0.1c0,1.9-0.7,3.2-2,4.2
		c-1.3,1-3.2,1.5-5.5,1.5h-6.5V63.2H40.7z"/>
	<polygon class="st0" points="62.5,82.5 53.2,61.9 51.7,61.9 51.9,62.4 62,84.7 62.7,84.7 62.9,84.7 73.2,61.9 71.7,61.9 	"/>
	<path class="st0" d="M51.8,23.7C24.3,23.7,2.1,46,2.1,73.5c0,27.5,22.3,49.8,49.8,49.8c27.5,0,49.8-22.3,49.8-49.8
		C101.6,46,79.3,23.7,51.8,23.7 M86.1,107.7c-8.8,8.8-20.9,14.2-34.2,14.2c-13.4,0-25.5-5.4-34.2-14.2C8.9,98.9,3.4,86.9,3.4,73.5
		c0-13.4,5.4-25.5,14.2-34.2c8.8-8.8,20.9-14.2,34.2-14.2c13.4,0,25.5,5.4,34.2,14.2c8.8,8.8,14.2,20.9,14.2,34.2
		C100.2,86.9,94.8,98.9,86.1,107.7"/>
	<path class="st0" d="M635.1,23.7c-27.5,0-49.8,22.3-49.8,49.8c0,27.5,22.3,49.8,49.8,49.8c27.5,0,49.8-22.3,49.8-49.8
		C684.8,46,662.5,23.7,635.1,23.7 M669.3,107.7c-8.8,8.8-20.9,14.2-34.2,14.2c-13.4,0-25.5-5.4-34.2-14.2
		c-8.8-8.8-14.2-20.9-14.2-34.2c0-13.4,5.4-25.5,14.2-34.2c8.8-8.8,20.9-14.2,34.2-14.2c13.4,0,25.5,5.4,34.2,14.2
		c8.8,8.8,14.2,20.9,14.2,34.2C683.4,86.9,678,98.9,669.3,107.7"/>
	<polygon class="st0" points="600,64.2 598.7,64.2 598.7,64.6 598.7,85.4 612.6,85.4 612.6,84.1 600,84.1 	"/>
	<path class="st0" d="M623.1,63.9c-3.2,0-5.8,1.3-7.7,3.3c-1.8,2-2.9,4.7-2.9,7.6v0.1c0,2.9,1,5.6,2.9,7.6c1.8,2,4.5,3.3,7.7,3.3
		c3.2,0,5.8-1.3,7.7-3.3c1.8-2,2.9-4.7,2.9-7.6v-0.1c0-2.9-1-5.6-2.9-7.6C629,65.2,626.3,63.9,623.1,63.9 M632.3,74.9
		c0,2.5-0.9,5-2.5,6.7c-1.6,1.8-3.9,2.9-6.6,2.9c-2.8,0-5-1.1-6.7-2.9c-1.6-1.8-2.6-4.2-2.6-6.7v-0.1c0-2.6,0.9-5,2.5-6.7
		c1.6-1.8,3.9-2.9,6.6-2.9c2.8,0,5,1.1,6.7,2.9C631.4,69.9,632.3,72.3,632.3,74.9L632.3,74.9z"/>
	<path class="st0" d="M644.5,64.1h-0.2l-0.1,0.2l-10.1,21.1h1.4l2.9-6.1h12.6l2.9,6.1h0.9h0.6l-10.2-21.3H644.5z M650.5,78h-11.4
		l5.7-11.9L650.5,78z"/>
	<path class="st0" d="M658.1,64.2v0.3v20.8h6.9c3.3,0,6.1-1.1,8.1-3c2-1.9,3.1-4.5,3.1-7.5v-0.1c0-3-1.1-5.6-3.1-7.5
		c-2-1.9-4.8-3-8.1-3H658.1z M672.2,68.2c1.7,1.7,2.8,4,2.8,6.6v0.1c0,2.6-1,4.9-2.7,6.6c-1.7,1.7-4.2,2.7-7.1,2.7h-5.6V65.5h5.6
		C668,65.5,670.4,66.5,672.2,68.2"/>
	<path class="st0" d="M467.1,102.7c-0.4-0.3-0.9-0.4-1.5-0.5l2.3-2.6v-0.3v0l0.1-0.1h-0.1V99H463v0.5v0.3h3.6l-2.4,2.7l0.1,0.2
		l-0.1,0.1l0.2,0l0,0l0.1,0.2h0.4c0.7,0,1.3,0.1,1.7,0.4c0.2,0.1,0.3,0.3,0.4,0.4c0.1,0.2,0.1,0.4,0.1,0.6v0c0,0.4-0.2,0.7-0.5,1
		c-0.3,0.3-0.7,0.4-1.2,0.4c-0.9,0-1.6-0.4-2.1-1l-0.2-0.3l-0.4,0.3l-0.3,0.2l0.2,0.3c0.6,0.8,1.6,1.4,2.8,1.4
		c0.7,0,1.3-0.2,1.8-0.6c0.5-0.4,0.8-1,0.8-1.6v0C468,103.7,467.7,103.1,467.1,102.7"/>
	<path class="st0" d="M473.7,102.7c0.2-0.1,0.3-0.2,0.5-0.4c0.3-0.3,0.5-0.8,0.5-1.3v0c0-0.6-0.3-1.2-0.8-1.5
		c-0.5-0.4-1.1-0.6-1.8-0.6c-0.7,0-1.3,0.2-1.8,0.6c-0.5,0.4-0.8,0.9-0.8,1.5v0c0,0.5,0.2,1,0.5,1.3c0.1,0.1,0.3,0.2,0.4,0.3
		c-0.2,0.1-0.4,0.3-0.6,0.4c-0.4,0.4-0.6,0.9-0.6,1.4v0c0,0.6,0.3,1.2,0.8,1.6c0.5,0.4,1.2,0.6,2.1,0.6c0.9,0,1.6-0.2,2.1-0.6
		c0.5-0.4,0.8-1,0.8-1.6v0c0-0.5-0.2-1-0.6-1.4C474.1,102.9,473.9,102.8,473.7,102.7 M474.1,104.5c0,0.3-0.2,0.7-0.5,0.9
		c-0.3,0.2-0.8,0.4-1.5,0.4c-0.7,0-1.2-0.2-1.5-0.4c-0.3-0.3-0.5-0.6-0.5-0.9v0c0-0.4,0.2-0.7,0.5-0.9c0.4-0.3,0.9-0.4,1.4-0.4
		c0.6,0,1.1,0.2,1.5,0.4C473.9,103.8,474.1,104.1,474.1,104.5L474.1,104.5z M473.8,101c0,0.4-0.2,0.6-0.5,0.9
		c-0.3,0.2-0.7,0.4-1.2,0.4c-0.5,0-0.9-0.1-1.3-0.4c-0.3-0.2-0.5-0.5-0.5-0.9v0c0-0.3,0.2-0.6,0.5-0.9c0.3-0.2,0.7-0.4,1.2-0.4
		c0.5,0,1,0.2,1.3,0.4C473.6,100.4,473.8,100.7,473.8,101L473.8,101z"/>
	<path class="st0" d="M482.4,102.8c0-1-0.3-2-0.8-2.7c-0.5-0.7-1.4-1.2-2.4-1.2c-1,0-1.8,0.5-2.4,1.2c-0.5,0.7-0.8,1.7-0.8,2.7v0
		c0,1,0.3,2,0.8,2.7c0.5,0.7,1.4,1.2,2.4,1.2c1,0,1.8-0.5,2.4-1.2C482.1,104.8,482.4,103.8,482.4,102.8L482.4,102.8z M481.5,102.8
		c0,0.8-0.2,1.6-0.6,2.2c-0.4,0.6-0.9,0.9-1.7,0.9c-0.7,0-1.3-0.3-1.7-0.9c-0.4-0.6-0.6-1.3-0.6-2.2v0c0-0.8,0.2-1.6,0.6-2.2
		c0.4-0.6,0.9-0.9,1.7-0.9c0.7,0,1.3,0.3,1.7,0.9C481.3,101.2,481.5,102,481.5,102.8L481.5,102.8z"/>
	<polygon class="st0" points="488.5,98 488.3,98 488.2,98.2 483.3,107.9 484.1,107.9 484.3,107.9 489.3,98 	"/>
	<path class="st0" d="M494.5,98.9h-0.2v-0.3l-0.2,0.3H494h-0.2l-4.4,5.3l0.1,0.2l-0.1,0.1h0.2l0,0l0.1,0.2h4v1.8h0.5h0.3v-1.8h0.8
		h0.3v-0.5v-0.3h-1.1V98.9z M493.6,103.9h-2.8l2.8-3.4V103.9z"/>
	<path class="st0" d="M500.9,102.7c0.2-0.1,0.3-0.2,0.5-0.4c0.3-0.3,0.5-0.8,0.5-1.3v0c0-0.6-0.3-1.2-0.8-1.5
		c-0.5-0.4-1.1-0.6-1.8-0.6c-0.7,0-1.3,0.2-1.8,0.6c-0.5,0.4-0.8,0.9-0.8,1.5v0c0,0.5,0.2,1,0.5,1.3c0.1,0.1,0.3,0.2,0.4,0.3
		c-0.2,0.1-0.4,0.3-0.6,0.4c-0.4,0.4-0.6,0.9-0.6,1.4v0c0,0.6,0.3,1.2,0.8,1.6c0.5,0.4,1.2,0.6,2.1,0.6c0.9,0,1.6-0.2,2.1-0.6
		c0.5-0.4,0.8-1,0.8-1.6v0c0-0.5-0.2-1-0.6-1.4C501.3,102.9,501.1,102.8,500.9,102.7 M501.2,104.5c0,0.3-0.2,0.7-0.5,0.9
		c-0.3,0.2-0.8,0.4-1.5,0.4c-0.7,0-1.2-0.2-1.5-0.4c-0.3-0.3-0.5-0.6-0.5-0.9v0c0-0.4,0.2-0.7,0.5-0.9c0.4-0.3,0.9-0.4,1.4-0.4
		c0.6,0,1.1,0.2,1.5,0.4C501,103.8,501.2,104.1,501.2,104.5L501.2,104.5z M501,101c0,0.4-0.2,0.6-0.5,0.9c-0.3,0.2-0.7,0.4-1.2,0.4
		c-0.5,0-0.9-0.1-1.3-0.4c-0.3-0.2-0.5-0.5-0.5-0.9v0c0-0.3,0.2-0.6,0.5-0.9c0.3-0.2,0.7-0.4,1.2-0.4c0.5,0,1,0.2,1.3,0.4
		C500.8,100.4,500.9,100.7,501,101L501,101z"/>
	<path class="st0" d="M506.4,98.9c-1,0-1.8,0.5-2.4,1.2c-0.5,0.7-0.8,1.7-0.8,2.7v0c0,1,0.3,2,0.8,2.7c0.5,0.7,1.4,1.2,2.4,1.2
		c1,0,1.8-0.5,2.4-1.2c0.5-0.7,0.8-1.7,0.8-2.7v0c0-1-0.3-2-0.8-2.7C508.2,99.3,507.4,98.9,506.4,98.9 M508.7,102.8
		c0,0.8-0.2,1.6-0.6,2.2c-0.4,0.6-0.9,0.9-1.7,0.9c-0.7,0-1.3-0.3-1.7-0.9c-0.4-0.6-0.6-1.3-0.6-2.2v0c0-0.8,0.2-1.6,0.6-2.2
		c0.4-0.6,0.9-0.9,1.7-0.9c0.7,0,1.3,0.3,1.7,0.9C508.4,101.2,508.7,102,508.7,102.8L508.7,102.8z"/>
	<polygon class="st0" points="516.8,99 514,105.2 511.2,99 510.8,99 510.2,99 510.5,99.5 513.7,106.7 513.9,106.7 514,106.8 
		514.1,106.7 514.1,106.7 514.3,106.7 517.8,99 517,99 	"/>
	<path class="st0" d="M489.3,23.7c-27.5,0-49.8,22.3-49.8,49.8c0,27.5,22.3,49.8,49.8,49.8c27.5,0,49.8-22.3,49.8-49.8
		C539,46,516.7,23.7,489.3,23.7 M523.5,107.7c-8.8,8.8-20.9,14.2-34.2,14.2c-13.4,0-25.5-5.4-34.2-14.2
		c-8.8-8.8-14.2-20.9-14.2-34.2c0-13.4,5.4-25.5,14.2-34.2c8.8-8.8,20.9-14.2,34.2-14.2c13.4,0,25.5,5.4,34.2,14.2
		c8.8,8.8,14.2,20.9,14.2,34.2C537.6,86.9,532.2,98.9,523.5,107.7"/>
	<path class="st0" d="M497.9,57c-3.2,0-6.1,0.9-8.6,2.4c-2.5-1.5-5.5-2.4-8.6-2.4c-8.9,0-16.2,7.1-16.5,16h-14v1h14
		c0.3,8.9,7.6,16,16.5,16c3.2,0,6.1-0.9,8.6-2.4c2.5,1.5,5.5,2.4,8.6,2.4c8.9,0,16.2-7.1,16.5-16h14v-1h-14
		C514.1,64.1,506.8,57,497.9,57 M480.6,88.9c-4.3,0-8.1-1.7-10.9-4.5c-2.8-2.8-4.5-6.7-4.5-10.9c0-4.3,1.7-8.1,4.5-10.9
		c2.8-2.8,6.7-4.5,10.9-4.5c2.8,0,5.4,0.7,7.7,2c-4.2,3-6.9,7.9-6.9,13.4c0,5.5,2.7,10.4,6.9,13.4C486,88.2,483.4,88.9,480.6,88.9
		 M489.3,60.7c0.8,0.6,1.6,1.2,2.3,1.9c2.8,2.8,4.5,6.7,4.5,10.9c0,4.3-1.7,8.1-4.5,10.9c-0.7,0.7-1.5,1.3-2.3,1.9
		c-0.8-0.6-1.6-1.2-2.3-1.9c-2.8-2.8-4.5-6.7-4.5-10.9c0-4.3,1.7-8.1,4.5-10.9C487.6,61.9,488.4,61.2,489.3,60.7 M508.8,84.4
		c-2.8,2.8-6.7,4.5-10.9,4.5c-2.8,0-5.4-0.7-7.7-2c4.2-3,6.9-7.9,6.9-13.4c0-5.5-2.7-10.4-6.9-13.4c2.3-1.3,4.9-2,7.7-2
		c4.3,0,8.1,1.7,10.9,4.5c2.8,2.8,4.5,6.7,4.5,10.9C513.3,77.8,511.6,81.6,508.8,84.4"/>
	<polygon class="st0" points="480.8,50 481.7,50 482,50 482,34.8 487.6,34.8 487.6,34.1 487.6,33.7 475.2,33.7 475.2,34.5 
		475.2,34.8 480.8,34.8 	"/>
	<path class="st0" d="M492.2,50v-6.8h5.3l5.2,6.8h0.8h0.7l-5.2-6.9c1.3-0.2,2.4-0.6,3.3-1.3c1-0.8,1.6-2,1.5-3.4v0
		c0-1.3-0.4-2.4-1.2-3.1c-1-1-2.6-1.6-4.7-1.6H491v0.3V50h0.8H492.2z M502.5,38.5c0,1-0.4,1.9-1.2,2.5c-0.8,0.6-2.1,1.1-3.8,1.1
		h-5.3v-7.2h5.5c1.6,0,2.8,0.4,3.6,1C502,36.4,502.5,37.3,502.5,38.5L502.5,38.5z"/>
	<path class="st0" d="M626.5,3.9h-53.1v1h52.8l1.9,6.4h1l-2.1-7C626.9,4.1,626.7,3.9,626.5,3.9"/>
	<path class="st0" d="M480.8,3.9h-52.9v1h52.6l1.9,6.4h1l-2.1-7C481.2,4.1,481,3.9,480.8,3.9"/>
	<path class="st0" d="M404.9,4.9v-1h-52.6c-0.2,0-0.4,0.1-0.5,0.3l-2.1,7h1l1.9-6.4H404.9z"/>
	<path class="st0" d="M550.7,4.9v-1h-52.2c-0.2,0-0.4,0.1-0.5,0.3l-2.1,7h1l1.9-6.4H550.7z"/>
	<path class="st0" d="M112.1,4.9v-1H61.1c-0.2,0-0.4,0.1-0.5,0.3l-2.1,7h1l1.9-6.4H112.1z"/>
	<path class="st0" d="M189,3.9h-52.8v1h52.5l1.9,6.4h1l-2.1-7C189.4,4.1,189.2,3.9,189,3.9"/>
	<path class="st0" d="M258.4,4.9v-1h-51.7c-0.2,0-0.4,0.1-0.5,0.3l-2.1,7h1l1.9-6.4H258.4z"/>
	<path class="st0" d="M334.6,3.9h-52.4v1h52.1l1.9,6.4h1l-2.1-7C335,4.1,334.8,3.9,334.6,3.9"/>
	<path class="st1" d="M349.4,51.3c-1.1-0.8-2.7-1.3-4.9-1.3h-5.8v9.9h5.7c1.6,0,3-0.3,4-0.8c1-0.5,1.8-1.2,2.2-2.1
		c0.3-0.6,0.4-1.3,0.4-2.1v-0.1C351.1,53.3,350.5,52.2,349.4,51.3"/>
	<path class="st1" d="M343.4,22.7c-28.1,0-50.8,22.8-50.8,50.8c0,28.1,22.8,50.8,50.8,50.8c28.1,0,50.8-22.8,50.8-50.8
		C394.3,45.4,371.5,22.7,343.4,22.7 M331,99.3h-15.8V78.2v-0.7h15.7v2h-13.7v7.9h12.4v2h-12.4v8H331V99.3z M332,66.5
		c-0.9,1-2.1,1.9-3.5,2.6c-1.4,0.7-3.1,1.1-5,1.1c-3.1,0-5.8-1.3-7.7-3.3c-1.9-2-3-4.8-3-7.9v-0.1c0-3.1,1.1-5.9,3-7.9
		c1.9-2.1,4.6-3.4,7.7-3.4c2,0,3.6,0.4,4.9,1c1.3,0.6,2.4,1.5,3.3,2.4l0.5,0.5l-1.4,1.4l-0.5-0.5c-0.8-0.8-1.7-1.5-2.8-2
		c-1.1-0.5-2.4-0.9-4.1-0.9c-2.5,0-4.7,1.1-6.2,2.8c-1.5,1.7-2.5,4-2.5,6.5V59c0,2.5,0.9,4.9,2.5,6.5c1.6,1.7,3.7,2.7,6.2,2.7
		c3.1,0,5.4-1.5,6.9-3.1l0.5-0.5l1.5,1.4L332,66.5z M352.6,93.5c0,1.7-0.8,3.3-2.1,4.4c-1.4,1.1-3.3,1.7-5.6,1.7
		c-3.3,0-6.3-1.3-8.6-3.5l-0.5-0.5l1.5-1.5l0.5,0.5c2,1.9,4.4,3,7.2,3c1.8,0,3.2-0.5,4.1-1.2c0.9-0.8,1.4-1.7,1.4-2.9v-0.1
		c0-0.6-0.1-1-0.3-1.4c-0.2-0.4-0.4-0.7-0.9-1.1c-0.9-0.7-2.5-1.3-5-1.8c-1.9-0.4-3.4-0.9-4.6-1.5c-1.2-0.6-2-1.4-2.5-2.4
		c-0.3-0.7-0.4-1.4-0.4-2.2v-0.1c0-1.7,0.8-3.2,2.1-4.2c1.3-1.1,3.1-1.7,5.2-1.7c2.8,0,5.4,1,7.4,2.5l0.6,0.4l-1.3,1.6l-0.5-0.4
		c-1.7-1.3-3.8-2.1-6.2-2.1c-1.7,0-3,0.5-3.9,1.3c-0.9,0.7-1.4,1.7-1.4,2.7v0.1c0,0.5,0.1,1,0.3,1.4c0.2,0.4,0.4,0.7,0.9,1
		c0.9,0.7,2.4,1.2,4.9,1.7c2,0.4,3.6,0.9,4.8,1.5c1.2,0.6,2,1.5,2.4,2.5C352.5,91.9,352.6,92.7,352.6,93.5L352.6,93.5z M353.1,54.9
		c0,1.1-0.2,2.1-0.6,2.9c-0.4,0.9-1,1.6-1.8,2.2c-1.5,1.2-3.7,1.8-6.3,1.8h-5.7v8h-2V48.7V48h7.9c2.6,0,4.7,0.6,6.2,1.8
		C352.3,51,353.1,52.7,353.1,54.9L353.1,54.9z M375,93.5c0,1.7-0.8,3.3-2.1,4.4c-1.4,1.1-3.3,1.7-5.6,1.7c-3.3,0-6.3-1.3-8.6-3.5
		l-0.5-0.5l1.5-1.5l0.5,0.5c2,1.9,4.4,3,7.2,3c1.8,0,3.2-0.5,4.1-1.2c0.9-0.8,1.4-1.7,1.4-2.9v-0.1c0-0.6-0.1-1-0.3-1.4
		c-0.2-0.4-0.4-0.7-0.9-1.1c-0.9-0.7-2.5-1.3-5-1.8c-1.9-0.4-3.4-0.9-4.6-1.5c-1.2-0.6-2-1.4-2.5-2.4c-0.3-0.7-0.4-1.4-0.4-2.2v-0.1
		c0-1.7,0.8-3.2,2.1-4.2c1.3-1.1,3.1-1.7,5.2-1.7c2.8,0,5.4,1,7.4,2.5l0.6,0.4l-1.3,1.6l-0.5-0.4c-1.7-1.3-3.8-2.1-6.2-2.1
		c-1.7,0-3,0.5-3.9,1.3c-0.9,0.7-1.4,1.7-1.4,2.7v0.1c0,0.5,0.1,1,0.3,1.4s0.4,0.7,0.9,1c0.9,0.7,2.4,1.2,4.9,1.7
		c2,0.4,3.6,0.9,4.8,1.5c1.2,0.6,2,1.5,2.4,2.5C374.8,91.9,375,92.7,375,93.5L375,93.5z M374.5,66.5c-0.9,1-2.1,1.9-3.5,2.6
		c-1.4,0.7-3.1,1.1-5,1.1c-3.1,0-5.8-1.3-7.7-3.3c-1.9-2-3-4.8-3-7.9v-0.1c0-3.1,1.1-5.9,3-7.9c1.9-2.1,4.6-3.4,7.7-3.4
		c2,0,3.6,0.4,4.9,1c1.3,0.6,2.4,1.5,3.3,2.4l0.5,0.5l-1.4,1.4l-0.5-0.5c-0.8-0.8-1.7-1.5-2.8-2c-1.1-0.5-2.4-0.9-4.1-0.9
		c-2.5,0-4.7,1.1-6.2,2.8c-1.5,1.7-2.5,4-2.5,6.5V59c0,2.5,0.9,4.9,2.5,6.5c1.6,1.7,3.7,2.7,6.2,2.7c3.1,0,5.4-1.5,6.9-3.1l0.5-0.5
		L375,66L374.5,66.5z"/>
	<rect x="172.6" y="89.8" class="st0" width="1.1" height="7.3"/>
	<polygon class="st0" points="182.7,97.1 181.7,97.1 178,91.7 178,91.7 178,97.1 176.9,97.1 176.9,89.8 177.9,89.8 181.6,95.1 
		181.6,95.1 181.6,89.8 182.7,89.8 	"/>
	<polygon class="st0" points="188,95.7 188,95.7 190.1,89.8 191.3,89.8 188.6,97.1 187.4,97.1 184.8,89.8 185.9,89.8 	"/>
	<polygon class="st0" points="193.3,89.8 197.8,89.8 197.8,90.7 194.4,90.7 194.4,93 197.6,93 197.6,93.9 194.4,93.9 194.4,96.1 
		197.9,96.1 197.9,97.1 193.3,97.1 	"/>
	<path class="st0" d="M200.3,89.8h2.6c1.7,0,2.5,0.9,2.5,2.3c0,1-0.4,1.7-1.3,2l1.6,2.9h-1.2l-1.5-2.7h-0.1h-1.5v2.7h-1.1V89.8z
		 M202.8,93.4c1.1,0,1.5-0.5,1.5-1.3c0-0.8-0.4-1.3-1.5-1.3h-1.4v2.6H202.8z"/>
	<polygon class="st0" points="207.1,89.8 212.7,89.8 212.7,90.7 210.4,90.7 210.4,97.1 209.3,97.1 209.3,90.7 207.1,90.7 	"/>
	<polygon class="st0" points="214.6,89.8 219.2,89.8 219.2,90.7 215.7,90.7 215.7,93 219,93 219,93.9 215.7,93.9 215.7,96.1 
		219.2,96.1 219.2,97.1 214.6,97.1 	"/>
	<path class="st0" d="M221.7,89.8h2.6c1.7,0,2.5,0.9,2.5,2.3c0,1-0.4,1.7-1.3,2l1.6,2.9h-1.2l-1.5-2.7h-0.1h-1.5v2.7h-1.1V89.8z
		 M224.1,93.4c1.1,0,1.5-0.5,1.5-1.3c0-0.8-0.4-1.3-1.5-1.3h-1.4v2.6H224.1z"/>
</g>
</svg>
