<?xml version="1.0" encoding="utf-8"?>
<!-- Generator: Adobe Illustrator 23.0.1, SVG Export Plug-In . SVG Version: 6.00 Build 0)  -->
<svg version="1.1" id="圖層_1" xmlns="http://www.w3.org/2000/svg" xmlns:xlink="http://www.w3.org/1999/xlink" x="0px" y="0px"
	 viewBox="0 0 754 302" style="enable-background:new 0 0 754 302;" xml:space="preserve">
<style type="text/css">
	.st0{fill:#F7F7F7;}
	.st1{fill:#B7956B;}
	.st2{fill:#FFFFFF;}
	.st3{fill:#C8C9CA;}
</style>
<g>
	<polygon class="st0" points="15.1,223.4 15.1,221.3 19.6,221.3 16.1,220.1 19.6,219 15.1,219 15.1,216.9 26,216.9 26,219 
		22.6,220.2 26,221.4 26,223.4 	"/>
	<path class="st0" d="M15,230l0-3.1l1.7-1.7l7.5,0l1.7,1.7l0,3.1l-1.7,1.7l-7.5,0L15,230z M17.7,229.6l5.6,0l0.6-0.6l0-1.2l-0.6-0.6
		l-5.6,0l-0.6,0.6l0,1.2L17.7,229.6z"/>
	<path class="st0" d="M15,238.3l0-4.8l10.9,0.1l0,4.8l-1.7,1.7l-7.5,0L15,238.3z M17.7,237.9l5.6,0l0.6-0.6l0-1.8l-6.8,0l0,1.8
		L17.7,237.9z"/>
	<polygon class="st0" points="16.7,248.3 15,246.5 15,243.4 16.7,241.7 25.9,241.8 25.9,243.9 17.6,243.8 17,244.4 17,245.6 
		17.6,246.2 25.9,246.2 25.9,248.3 	"/>
	<polygon class="st0" points="14.9,255.2 14.9,250 25.9,250.1 25.9,252.1 17,252.1 17,255.3 	"/>
	<path class="st0" d="M14.9,261.4l0.8-0.1l0-2l-0.8-0.2l0-2.1l10.9,2.2l0,2.2l-11,2.1L14.9,261.4z M17.7,260.9l3-0.6l-3-0.6
		L17.7,260.9z"/>
	<path class="st0" d="M19.5,270.3l-4.7,1.3l0-2.2l4.4-1.2l0-0.9l-4.4,0l0-2.1l10.9,0.1l0,4.8l-1.7,1.7l-3.1,0L19.5,270.3z M22,269.8
		l1.2,0l0.6-0.6l0-1.8l-2.4,0l0,1.8L22,269.8z"/>
	<path class="st0" d="M0.2,221.6l0-4.8l10.9,0.1l0,4.8l-1.7,1.7l-7.5,0L0.2,221.6z M2.9,221.3l5.6,0l0.6-0.6l0-1.8l-6.8,0l0,1.8
		L2.9,221.3z"/>
	<polygon class="st0" points="0.1,231.6 0.2,225.1 11.1,225.2 11.1,231.7 9,231.7 9,227.2 6.7,227.2 6.7,230.1 4.6,230 4.6,227.2 
		2.2,227.2 2.2,231.7 	"/>
	<polygon class="st0" points="1.8,239.9 0.1,238.2 0.1,235.1 1.8,233.4 3.6,233.4 3.6,235.5 2.8,235.5 2.2,236.1 2.2,237.3 
		2.8,237.9 3.9,237.9 4.5,237.3 4.6,235.1 6.3,233.4 9.4,233.4 11.1,235.2 11.1,238.3 9.3,240 7.6,240 7.6,237.9 8.4,237.9 9,237.3 
		9,236.1 8.4,235.5 7.2,235.5 6.6,236.1 6.6,238.2 4.9,239.9 	"/>
	
		<rect x="4.5" y="237.3" transform="matrix(4.828301e-03 -1 1 4.828301e-03 -237.2066 247.123)" class="st0" width="2.1" height="10.9"/>
	<polygon class="st0" points="1.8,252.1 0,250.3 0.1,247.2 1.8,245.5 9.3,245.6 11,247.3 11,250.4 9.3,252.1 7.5,252.1 7.5,250 
		8.3,250 8.9,249.4 8.9,248.2 8.3,247.6 2.7,247.6 2.1,248.2 2.1,249.4 2.7,250 3.6,250 3.6,248.6 5.7,248.6 5.7,252.1 	"/>
	<polygon class="st0" points="0,260.3 0,258.3 5.4,255.9 0,255.9 0,253.8 11,253.9 11,255.9 5.6,258.2 11,258.3 10.9,260.3 	"/>
	<polygon class="st0" points="0.9,73.3 0.9,68.1 6.4,66.2 0.9,64.2 0.9,59 13.8,63.6 26.8,59.1 26.8,64.3 21.2,66.2 26.7,68.2 
		26.7,73.4 13.8,68.8 	"/>
	<polygon class="st0" points="21.7,89.9 21.7,85.3 0.8,85.2 0.8,80.4 21.8,80.5 21.8,75.9 26.7,75.9 26.6,89.9 	"/>
	<polygon class="st0" points="0.6,125.5 0.7,120.7 13.4,115.2 0.7,115.1 0.7,110.2 26.5,110.3 26.5,115.2 13.8,120.7 26.5,120.7 
		26.4,125.6 	"/>
	<polygon class="st0" points="4.6,143.4 0.6,139.4 0.6,132.1 4.7,128.1 8.8,128.1 8.7,133 6.9,133 5.5,134.4 5.5,137.2 6.9,138.6 
		9.6,138.6 11,137.2 11.1,132.2 15.2,128.1 22.4,128.1 26.4,132.2 26.4,139.5 22.3,143.5 18.2,143.5 18.3,138.7 20.1,138.7 
		21.5,137.2 21.5,134.4 20.1,133 17.4,133 15.9,134.4 15.9,139.5 11.9,143.5 	"/>
	
		<rect x="11" y="135.6" transform="matrix(4.708328e-03 -1 1 4.708328e-03 -135.0852 161.1811)" class="st0" width="4.9" height="25.8"/>
	<path class="st0" d="M0.4,164.7l0.1-11.3l25.8,0.1l-0.1,11.3l-4.1,4l-7.3,0l-1.6-1.6l-1.6,1.6l-7.2,0L0.4,164.7z M20,164l1.4-1.4
		l0-4.2l-5.6,0l0,4.2l1.4,1.4L20,164z M6.7,164l2.7,0l1.4-1.4l0-4.2l-5.6,0l0,4.2L6.7,164z"/>
	<polygon class="st0" points="0.4,183.6 0.4,171.3 26.2,171.4 26.2,176.3 5.3,176.2 5.2,183.7 	"/>
	<polygon class="st0" points="0.7,107.7 0.8,92.3 26.6,92.4 26.5,107.8 21.6,107.8 21.7,97.3 16.1,97.3 16.1,104 11.2,103.9 
		11.2,97.3 5.7,97.2 5.6,107.7 	"/>
	<polygon class="st0" points="0.3,201.6 0.3,186.2 26.2,186.3 26.1,201.7 21.2,201.7 21.2,191.2 15.7,191.1 15.6,197.8 10.8,197.8 
		10.8,191.1 5.2,191.1 5.2,201.6 	"/>
	<polygon class="st0" points="1,56.5 1,41.1 26.8,41.2 26.8,56.6 21.9,56.6 21.9,46.1 16.4,46.1 16.3,52.8 11.4,52.7 11.5,46 
		5.9,46 5.8,56.5 	"/>
	<polygon class="st0" points="98.5,164.1 98.5,162.1 103,162.1 99.6,160.9 103,159.7 98.6,159.7 98.6,157.6 109.5,157.7 
		109.5,159.8 106.1,160.9 109.5,162.1 109.5,164.2 	"/>
	
		<rect x="103" y="161.5" transform="matrix(4.828301e-03 -1 1 4.828301e-03 -63.478 270.1588)" class="st0" width="2.1" height="10.9"/>
	<polygon class="st0" points="98.5,175.8 98.5,173.6 100.8,172.8 98.5,171.9 98.5,169.7 104,171.7 109.5,169.8 109.5,172 
		107.1,172.8 109.5,173.6 109.4,175.8 104,173.9 	"/>
	
		<rect x="102.9" y="173.1" transform="matrix(4.828301e-03 -1 1 4.828301e-03 -75.1631 281.6788)" class="st0" width="2.1" height="10.9"/>
	<polygon class="st0" points="98.4,187.9 98.4,185.8 103.8,183.5 98.4,183.5 98.5,181.4 109.4,181.4 109.4,183.5 104,185.8 
		109.4,185.9 109.4,187.9 	"/>
	<polygon class="st0" points="100.1,196.2 98.4,194.5 98.4,191.4 100.1,189.7 107.6,189.7 109.4,191.4 109.3,194.5 107.6,196.2 
		105.9,196.2 105.9,194.1 106.7,194.2 107.3,193.6 107.3,192.4 106.7,191.8 101.1,191.7 100.5,192.3 100.5,193.5 101.1,194.1 
		102,194.1 102,192.7 104.1,192.7 104,196.2 	"/>
	<path class="st0" d="M98.3,206.7l0-4.8l10.9,0.1l0,4.8l-1.7,1.7l-7.5,0L98.3,206.7z M101,206.3l5.6,0l0.6-0.6l0-1.8l-6.8,0l0,1.8
		L101,206.3z"/>
	
		<rect x="102.7" y="205.7" transform="matrix(4.828301e-03 -1 1 4.828301e-03 -107.9237 313.976)" class="st0" width="2.1" height="10.9"/>
	<polygon class="st0" points="107.1,219.5 107.2,216.1 104.8,216.1 104.8,218.6 102.7,218.6 102.7,216.1 98.3,216.1 98.3,214 
		109.2,214 109.2,219.5 	"/>
	<polygon class="st0" points="107.1,226.8 107.1,223.4 104.8,223.4 104.8,225.8 102.7,225.8 102.7,223.3 98.3,223.3 98.3,221.3 
		109.2,221.3 109.2,226.8 	"/>
	<polygon class="st0" points="98.2,235 98.2,228.5 109.2,228.6 109.1,235.1 107.1,235.1 107.1,230.6 104.7,230.6 104.7,233.4 
		102.6,233.4 102.7,230.6 100.3,230.6 100.3,235 	"/>
	<path class="st0" d="M102.8,241.8l-4.7,1.3l0-2.2l4.4-1.2l0-0.9l-4.4,0l0-2.1l10.9,0.1l0,4.8l-1.7,1.7l-3.1,0L102.8,241.8z
		 M105.3,241.3l1.2,0l0.6-0.6l0-1.8l-2.4,0l0,1.8L105.3,241.3z"/>
	<polygon class="st0" points="98.1,251.6 98.2,245.1 109.1,245.1 109.1,251.7 107,251.6 107,247.2 104.7,247.2 104.6,250 102.6,250 
		102.6,247.2 100.2,247.2 100.2,251.6 	"/>
	<polygon class="st0" points="98.1,259.8 98.1,257.8 103.5,255.5 98.1,255.4 98.1,253.4 109.1,253.4 109.1,255.5 103.7,257.8 
		109,257.8 109,259.9 	"/>
	<polygon class="st0" points="106.9,267.6 106.9,265.7 98.1,265.6 98.1,263.5 106.9,263.6 106.9,261.6 109,261.7 109,267.6 	"/>
	<polygon class="st0" points="85.4,164.1 83.7,162.4 83.7,159.3 85.4,157.6 87.1,157.6 87.1,159.7 86.3,159.7 85.8,160.3 
		85.7,161.4 86.3,162.1 87.5,162.1 88.1,161.5 88.1,159.3 89.9,157.6 92.9,157.6 94.6,159.3 94.6,162.4 92.9,164.1 91.2,164.1 
		91.2,162.1 92,162.1 92.5,161.5 92.6,160.3 92,159.7 90.8,159.7 90.2,160.3 90.2,162.4 88.5,164.1 	"/>
	<path class="st0" d="M83.6,170.6l0-3.1l1.7-1.7l7.5,0l1.7,1.7l0,3.1l-1.7,1.7l-7.5,0L83.6,170.6z M86.3,170.3l5.6,0l0.6-0.6l0-1.2
		l-0.6-0.6l-5.6,0l-0.6,0.6l0,1.2L86.3,170.3z"/>
	<polygon class="st0" points="83.6,180.7 83.6,178.6 88,178.6 88,176.2 83.6,176.2 83.6,174.1 94.6,174.2 94.5,176.3 90.1,176.2 
		90.1,178.6 94.5,178.7 94.5,180.7 	"/>
	<path class="st0" d="M86.4,193.4l-0.5-0.5l-0.3,0.2l0,0.6l-2.1,0l0-1.6l0.9-0.7l-0.9-0.9l0-2.4l1.8-1.7l2.3,0l1.4,1.4l0.9-0.7
		l2.8,0l1.7,1.8l0,2.3l-1.8,1.7l-1.5,0l0-2.1l0.7,0l0.5-0.5l0-0.5l-0.5-0.5l-1.2,0l-3.1,2.4l0.9,1l0,1.2l-2.1,0L86.4,193.4z
		 M86.1,190.1l1.3-1l-0.6-0.6l-0.6,0l-0.5,0.5l0,0.7L86.1,190.1z"/>
	<polygon class="st0" points="92.3,205.3 92.3,203.4 83.5,203.4 83.5,201.3 92.4,201.3 92.4,199.4 94.4,199.4 94.4,205.3 	"/>
	<polygon class="st0" points="94.4,213.6 86.9,211.3 83.4,211.3 83.4,209.2 86.9,209.2 94.4,207.1 94.4,209.3 90.8,210.3 
		94.4,211.4 	"/>
	<path class="st0" d="M87.5,220.1l0-2.7l-4.1,0l0-2.1l10.9,0.1l0,4.8l-1.7,1.7l-3.4,0L87.5,220.1z M90.2,219.8l1.5,0l0.6-0.6l0-1.8
		l-2.7,0l0,1.8L90.2,219.8z"/>
	<polygon class="st0" points="83.3,230.1 83.4,223.5 94.3,223.6 94.3,230.1 92.2,230.1 92.2,225.7 89.9,225.6 89.9,228.5 
		87.8,228.5 87.8,225.6 85.4,225.6 85.4,230.1 	"/>
	<path class="st0" d="M83.3,240.5l0-4.8l10.9,0.1l0,4.8l-1.7,1.7l-3.1,0l-0.7-0.7l-0.7,0.7l-3.1,0L83.3,240.5z M91.6,240.2l0.6-0.6
		l0-1.8l-2.4,0l0,1.8l0.6,0.6L91.6,240.2z M86,240.2l1.2,0l0.6-0.6l0-1.8l-2.4,0l0,1.8L86,240.2z"/>
	<path class="st0" d="M83.3,248.3l0.8-0.1l0-2l-0.8-0.2l0-2.1l10.9,2.2l0,2.2l-11,2.1L83.3,248.3z M86.1,247.7l3-0.6l-3-0.6
		L86.1,247.7z"/>
	<polygon class="st0" points="92.1,257.3 92.1,255.3 83.2,255.3 83.2,253.2 92.1,253.3 92.1,251.3 94.2,251.3 94.2,257.3 	"/>
	<polygon class="st0" points="92.1,264.9 92.1,263 83.2,263 83.2,260.9 92.1,261 92.1,259 94.2,259 94.1,265 	"/>
	<polygon class="st0" points="83.1,273.2 83.2,266.7 94.1,266.7 94.1,273.2 92,273.2 92,268.8 89.7,268.8 89.7,271.6 87.6,271.6 
		87.6,268.8 85.2,268.8 85.2,273.2 	"/>
	<path class="st0" d="M87.8,280l-4.7,1.3l0-2.2l4.4-1.2l0-0.9l-4.4,0l0-2.1l10.9,0.1l0,4.8l-1.7,1.7l-3.1,0L87.8,280z M90.2,279.4
		l1.2,0l0.6-0.6l0-1.8l-2.4,0l0,1.8L90.2,279.4z"/>
	
		<rect x="87.5" y="278.8" transform="matrix(4.828301e-03 -1 1 4.828301e-03 -196.1617 371.4965)" class="st0" width="2.1" height="10.9"/>
	<polygon class="st0" points="83,293.6 83.1,287.1 94,287.1 94,293.7 91.9,293.7 91.9,289.2 89.6,289.2 89.6,292 87.5,292 
		87.5,289.2 85.1,289.2 85.1,293.6 	"/>
	<polygon class="st0" points="84.7,301.9 83,300.2 83,297.1 84.8,295.4 86.5,295.4 86.5,297.5 85.7,297.5 85.1,298 85.1,299.2 
		85.7,299.8 86.9,299.9 87.5,299.2 87.5,297.1 89.2,295.4 92.3,295.4 94,297.1 94,300.2 92.2,301.9 90.5,301.9 90.5,299.9 
		91.3,299.9 91.9,299.3 91.9,298.1 91.3,297.5 90.1,297.5 89.5,298.1 89.5,300.2 87.8,301.9 	"/>
	<polygon class="st0" points="84.2,56.9 84.2,52 94.6,52.1 94.7,46.4 84.2,46.4 84.2,41.5 110,41.6 110,46.5 99.6,46.5 99.5,52.1 
		110,52.1 110,57 	"/>
	<polygon class="st0" points="109.9,76.3 92.2,71 84.1,71 84.1,66.1 92.3,66.1 110,61.1 110,66.1 101.3,68.6 109.9,71.2 	"/>
	<path class="st0" d="M84,91.6l0.1-11.3l25.8,0.1l-0.1,11.3l-4.1,4l-7.3,0l-1.6-1.6l-1.6,1.6l-7.2,0L84,91.6z M103.5,90.8l1.4-1.4
		l0-4.2l-5.6,0l0,4.2l1.4,1.4L103.5,90.8z M90.3,90.8l2.7,0l1.4-1.4l0-4.2l-5.6,0l0,4.2L90.3,90.8z"/>
	<path class="st0" d="M94.9,111.5l-11,3l0-5.1l10.5-2.9l0-2l-10.5,0l0-4.9l25.8,0.1l-0.1,11.3l-4.1,4.1l-7.2,0L94.9,111.5z
		 M100.7,110.3l2.8,0l1.4-1.4l0-4.2l-5.6,0l0,4.2L100.7,110.3z"/>
	
		<rect x="94.3" y="108.7" transform="matrix(4.709269e-03 -1 1 4.709269e-03 -25.3191 217.8128)" class="st0" width="4.9" height="25.8"/>
	<path class="st0" d="M83.8,139.4l0.1-11.3l25.8,0.1l-0.1,11.3l-4.1,4l-17.7-0.1L83.8,139.4z M90.1,138.6l13.2,0.1l1.4-1.4l0-4.2
		l-16-0.1l0,4.2L90.1,138.6z"/>
	<polygon class="st0" points="57.1,164 57.1,161.9 61.5,161.9 61.5,159.5 57.1,159.5 57.1,157.4 68.1,157.5 68,159.6 63.6,159.6 
		63.6,161.9 68,162 68,164 	"/>
	
		<rect x="61.5" y="161.3" transform="matrix(4.828301e-03 -1 1 4.828301e-03 -104.5769 228.5402)" class="st0" width="2.1" height="10.9"/>
	<polygon class="st0" points="58.7,176.1 57,174.4 57,171.3 58.8,169.6 66.3,169.6 68,171.4 68,174.5 66.3,176.2 64.5,176.2 
		64.5,174.1 65.3,174.1 65.9,173.5 65.9,172.3 65.3,171.7 59.7,171.7 59.1,172.3 59.1,173.5 59.7,174.1 60.6,174.1 60.6,172.6 
		62.7,172.6 62.7,176.2 	"/>
	<polygon class="st0" points="57,184.4 57,182.4 61.4,182.4 61.4,180 57,180 57,177.9 68,177.9 67.9,180 63.5,180 63.5,182.4 
		67.9,182.4 67.9,184.5 	"/>
	
		<rect x="59.2" y="187.4" transform="matrix(4.703385e-03 -1 1 4.703385e-03 -127.2712 249.0009)" class="st0" width="4.5" height="2.1"/>
	<polygon class="st0" points="56.9,198.9 56.9,192.4 67.9,192.5 67.9,199 65.8,199 65.8,194.5 63.4,194.5 63.4,197.4 61.4,197.4 
		61.4,194.5 59,194.5 59,199 	"/>
	<polygon class="st0" points="65.7,206.2 65.8,202.8 63.4,202.8 63.4,205.3 61.3,205.3 61.3,202.8 56.9,202.8 56.9,200.7 
		67.8,200.8 67.8,206.3 	"/>
	<polygon class="st0" points="65.7,213.5 65.7,210.1 63.4,210.1 63.4,212.5 61.3,212.5 61.3,210.1 56.9,210 56.9,208 67.8,208 
		67.8,213.5 	"/>
	
		<rect x="61.3" y="210.8" transform="matrix(4.828301e-03 -1 1 4.828301e-03 -154.2771 277.5374)" class="st0" width="2.1" height="10.9"/>
	<polygon class="st0" points="58.5,225.6 56.8,223.9 56.8,220.8 58.5,219.1 66,219.1 67.8,220.8 67.7,223.9 66,225.6 64.3,225.6 
		64.3,223.6 65.1,223.6 65.7,223 65.7,221.8 65.1,221.2 59.5,221.1 58.9,221.7 58.9,222.9 59.5,223.5 60.2,223.5 60.2,225.6 	"/>
	
		<rect x="61.2" y="222.9" transform="matrix(4.828301e-03 -1 1 4.828301e-03 -166.4732 289.5611)" class="st0" width="2.1" height="10.9"/>
	<polygon class="st0" points="56.7,237.7 56.8,231.2 67.7,231.3 67.7,237.8 65.6,237.8 65.6,233.3 63.3,233.3 63.2,236.1 
		61.2,236.1 61.2,233.3 58.8,233.3 58.8,237.7 	"/>
	<polygon class="st0" points="56.7,246 56.7,243.9 62.1,241.6 56.7,241.6 56.7,239.5 67.7,239.5 67.7,241.6 62.3,243.9 67.6,243.9 
		67.6,246 	"/>
	<polygon class="st0" points="58.4,254.3 56.7,252.6 56.7,249.5 58.4,247.8 65.9,247.8 67.6,249.5 67.6,252.6 65.9,254.3 
		64.1,254.3 64.2,252.2 64.9,252.2 65.5,251.6 65.5,250.5 64.9,249.9 59.3,249.8 58.7,250.4 58.7,251.6 59.3,252.2 60.1,252.2 
		60.1,254.3 	"/>
	<polygon class="st0" points="67.6,262.3 60.1,260.1 56.6,260.1 56.6,258 60.1,258 67.6,255.9 67.6,258 63.9,259.1 67.6,260.2 	"/>
	<polygon class="st0" points="51.1,163.4 51.1,161.4 42.2,161.4 42.2,159.3 51.1,159.4 51.1,157.4 53.2,157.4 53.1,163.4 	"/>
	<path class="st0" d="M46.8,170.1l-4.7,1.3l0-2.2l4.4-1.2l0-0.9l-4.4,0l0-2.1l10.9,0.1l0,4.8l-1.7,1.7l-3.1,0L46.8,170.1z
		 M49.3,169.6l1.2,0L51,169l0-1.8l-2.4,0l0,1.8L49.3,169.6z"/>
	<path class="st0" d="M42.1,177.7l0.8-0.1l0-2l-0.8-0.2l0-2.1l10.9,2.2l0,2.2l-11,2.1L42.1,177.7z M45,177.1l3-0.6l-3-0.6L45,177.1z
		"/>
	<polygon class="st0" points="42.1,188 42.1,186 47.5,183.7 42.1,183.6 42.1,181.6 53.1,181.6 53.1,183.6 47.7,186 53,186 53,188.1 
			"/>
	<polygon class="st0" points="43.8,196.3 42.1,194.6 42.1,191.5 43.8,189.8 45.5,189.8 45.5,191.9 44.7,191.9 44.1,192.5 
		44.1,193.7 44.7,194.3 45.9,194.3 46.5,193.7 46.5,191.5 48.2,189.8 51.3,189.8 53,191.6 53,194.7 51.3,196.4 49.6,196.4 
		49.6,194.3 50.4,194.3 50.9,193.7 50.9,192.5 50.3,191.9 49.2,191.9 48.6,192.5 48.6,194.6 46.8,196.3 	"/>
	<polygon class="st0" points="42,204.6 42,202.5 46.5,202.5 43.1,201.3 46.5,200.2 42,200.2 42,198.1 53,198.1 53,200.2 49.5,201.3 
		53,202.5 53,204.6 	"/>
	
		<rect x="46.4" y="201.9" transform="matrix(4.828301e-03 -1 1 4.828301e-03 -160.1633 253.8712)" class="st0" width="2.1" height="10.9"/>
	<polygon class="st0" points="43.7,216.7 42,215 42,211.9 43.7,210.2 45.4,210.2 45.4,212.3 44.6,212.3 44,212.8 44,214 44.6,214.6 
		45.8,214.7 46.4,214 46.4,211.9 48.1,210.2 51.2,210.2 52.9,211.9 52.9,215 51.2,216.7 49.5,216.7 49.5,214.7 50.3,214.7 
		50.8,214.1 50.8,212.9 50.3,212.3 49.1,212.3 48.5,212.9 48.5,215 46.7,216.7 	"/>
	<polygon class="st0" points="43.6,225 41.9,223.3 41.9,220.2 43.7,218.5 45.4,218.5 45.4,220.5 44.6,220.5 44,221.1 44,222.3 
		44.6,222.9 45.8,222.9 46.4,222.3 46.4,220.2 48.1,218.5 51.2,218.5 52.9,220.2 52.9,223.3 51.1,225 49.4,225 49.4,222.9 50.2,223 
		50.8,222.3 50.8,221.2 50.2,220.6 49.1,220.6 48.4,221.1 48.4,223.3 46.7,225 	"/>
	
		<rect x="46.3" y="222.3" transform="matrix(4.830861e-03 -1 1 4.830861e-03 -180.6449 274.0629)" class="st0" width="2.1" height="10.9"/>
	<path class="st0" d="M41.9,235.4l0-3.1l1.7-1.7l7.5,0l1.7,1.7l0,3.1l-1.7,1.7l-7.5,0L41.9,235.4z M44.5,235l5.6,0l0.6-0.6l0-1.2
		l-0.6-0.6l-5.6,0l-0.6,0.6l0,1.2L44.5,235z"/>
	<polygon class="st0" points="41.8,245.4 41.8,243.3 47.2,241 41.8,240.9 41.8,238.9 52.8,238.9 52.8,241 47.4,243.3 52.8,243.3 
		52.8,245.4 	"/>
	<path class="st0" d="M58.2,117.9l7.8,0l2.3,2.3l0,5.7l-2.3,2.3l-7.8,0l-2.3-2.3l0-5.7L58.2,117.9z M59.4,125l5.3,0l0.9-0.9l0-2.1
		l-0.9-0.9l-5.3,0l-0.9,0.9l0,2.1L59.4,125z M42.6,121.6L68,135.8l0,3.7l-25.4-14.2L42.6,121.6z M52.4,143.3l-7.8,0l-2.3-2.3l0-5.7
		l2.3-2.3l7.8,0l2.3,2.3l0,5.7L52.4,143.3z M51.2,136.1l-5.3,0L45,137l0,2.1l0.9,0.9l5.3,0l0.9-0.9l0-2.1L51.2,136.1z"/>
	<path class="st0" d="M47,58.1l-4.3-4.3l0-8.3l4.3-4.3l3.7,0l0,5.2l-1.5,0l-1.2,1.3l0,4l1.2,1.2l3.9,0l0-7.3l4.4-4.3l6.9,0l4.3,4.3
		l0,8.3l-4.3,4.3L47,58.1z M59.6,46.5l-1.3,1.3l0,5.2l3.9,0l1.2-1.2l0-4l-1.2-1.3L59.6,46.5z"/>
	<polygon class="st0" points="42.7,65.3 63.3,73.9 63.3,67.9 60.5,67.9 60.5,62.7 68.5,62.7 68.4,79.5 63.2,79.5 42.6,70.9 	"/>
	
		<rect x="42.6" y="82.5" transform="matrix(4.641214e-03 -1 1 4.641214e-03 -40.1634 129.8566)" class="st0" width="5.2" height="5.2"/>
	<polygon class="st0" points="56.9,95.3 68.4,95.4 68.3,112.2 63.1,112.2 63.1,100.6 59,100.5 58,101.5 58,107.8 53.6,112.2 
		46.7,112.1 42.5,107.8 42.5,99.6 46.8,95.3 50.5,95.3 50.5,100.5 48.9,100.5 47.6,101.7 47.6,105.7 48.9,107 51.5,107 52.8,105.6 
		52.8,99.4 	"/>
	<polygon class="st1" points="20.7,0.1 27,6.5 27.1,0.1 	"/>
	<polygon class="st1" points="23.6,25.9 26.9,26 27,22.6 4.6,0 1.2,0 1.2,3.3 	"/>
	<polygon class="st1" points="12.2,25.9 18.9,25.9 1.2,8.1 1.2,14.7 	"/>
	<polygon class="st1" points="27,17.9 27,17.9 27,11.2 16,0.1 9.3,0 	"/>
	<polygon class="st1" points="7.5,25.9 1.1,19.4 1.1,25.8 	"/>
	<polygon class="st1" points="104.2,0.5 110.5,6.9 110.6,0.5 	"/>
	<polygon class="st1" points="107.1,26.3 110.4,26.4 110.4,23 88.1,0.4 84.7,0.4 84.7,3.7 	"/>
	<polygon class="st1" points="95.7,26.3 102.4,26.3 84.7,8.4 84.7,8.5 84.6,15.1 	"/>
	<polygon class="st1" points="110.5,18.3 110.5,18.3 110.5,11.6 99.4,0.5 92.8,0.4 	"/>
	<polygon class="st1" points="91,26.3 84.6,19.8 84.6,19.8 84.6,26.2 	"/>
	<polygon class="st1" points="62.4,0.3 68.8,6.7 68.8,0.3 	"/>
	<polygon class="st1" points="65.4,26.1 68.7,26.2 68.7,22.8 46.3,0.2 43,0.2 43,3.5 	"/>
	<polygon class="st1" points="54,26.1 60.6,26.1 42.9,8.3 42.9,14.9 	"/>
	<polygon class="st1" points="68.7,18.1 68.7,18.1 68.8,11.4 57.7,0.3 51,0.2 	"/>
	<polygon class="st1" points="49.2,26.1 42.9,19.6 42.9,19.6 42.8,26 	"/>
	<path class="st2" d="M364.2,28.1l-5.7-9.8h-4.7v9.8h-3.4V2.8h12l4,4V14l-4.1,4.1l5.8,10H364.2z M360.7,6h-6.9v9.1h6.9l2.3-2.3V8.3
		L360.7,6z"/>
	<polygon class="st2" points="376.6,16.8 376.6,24.9 388.3,24.9 388.3,28.1 373.1,28.1 373.1,2.8 388.3,2.8 388.3,6 376.6,6 
		376.6,13.6 387.1,13.6 387.1,16.8 	"/>
	<path class="st2" d="M397.2,28.1h-3.4V2.8h12.4l4,4v8.6l-4,4h-7.5l-1.5-1.1V28.1z M404.5,6h-7.2v10.4h7.2l2.3-2.3V8.3L404.5,6z"/>
	<polygon class="st2" points="433.3,2.8 433.3,24 429.3,28.1 419.8,28.1 415.8,24 415.8,2.8 419.2,2.8 419.2,22.6 421.5,24.9 
		427.8,24.9 430.1,22.6 430.1,2.8 	"/>
	<path class="st2" d="M453.2,28.1l-5.7-9.8h-4.7v9.8h-3.4V2.8h12l4,4V14l-4.1,4.1l5.8,10H453.2z M449.7,6h-6.9v9.1h6.9l2.3-2.3V8.3
		L449.7,6z"/>
	<path class="st2" d="M465.6,28.1h-3.4V2.8h12.4l4,4v8.6l-4,4h-7.5l-1.5-1.1V28.1z M472.8,6h-7.2v10.4h7.2l2.3-2.3V8.3L472.8,6z"/>
	<path class="st2" d="M502.1,24l-4,4h-10l-4-4V6.9l4-4h10l4,4V24z M487.4,8.3v14.3l2.3,2.3h6.6l2.3-2.3V8.3L496.3,6h-6.6L487.4,8.3z
		"/>
	<polygon class="st2" points="511.1,8.3 511.1,11.5 513.4,13.8 521.2,13.8 525.2,17.8 525.2,24 521.2,28.1 510.9,28.1 507.1,24.4 
		509.5,22 512.6,24.9 519.5,24.9 521.8,22.6 521.8,19.2 519.5,16.9 511.7,16.9 507.7,12.9 507.7,6.9 511.7,2.8 521.1,2.8 524.5,6.2 
		522.1,8.6 519.4,6 513.4,6 	"/>
	<polygon class="st2" points="529.8,6 529.8,2.8 541.4,2.8 541.4,6 537.3,6 537.3,24.9 541.4,24.9 541.4,28.1 529.8,28.1 
		529.8,24.9 533.9,24.9 533.9,6 	"/>
	<polygon class="st2" points="564.1,28.1 559.9,28.1 551.2,10.9 550.1,8 549.9,8 549.9,28.1 546.7,28.1 546.7,2.8 551.1,2.8 
		559.7,20 560.7,22.9 560.9,22.9 560.9,2.8 564.1,2.8 	"/>
	<polygon class="st2" points="578.8,18 578.8,14.8 588,14.8 588,24 584,28.1 574,28.1 570,24 570,6.9 574,2.8 584,2.8 587.5,6.3 
		585.1,8.7 582.3,6 575.7,6 573.4,8.3 573.4,22.6 575.7,24.9 582.3,24.9 584.6,22.6 584.6,18 	"/>
	<path class="st2" d="M624.6,12.4l-2.3,2.3l3.1,3.1V24l-4,4h-13.2V2.8h12.4l4,4V12.4z M618.9,6h-7.2v7.5h7.4l2.1-2.1V8.3L618.9,6z
		 M611.6,24.9h8l2.3-2.3v-3.7l-2.3-2.3h-8V24.9z"/>
	<path class="st2" d="M644.6,28.1l-1.9-6.2h-8.4l-1.9,6.2h-3.4l7.7-25.2h3.6l7.9,25.2H644.6z M637.8,10l-2.6,8.8h6.5l-2.8-8.8
		l-0.5-2.7h-0.2L637.8,10z"/>
	<polygon class="st2" points="665.8,6 658.5,6 658.5,28.1 655.1,28.1 655.1,6 647.8,6 647.8,2.8 665.8,2.8 	"/>
	<polygon class="st2" points="687.6,6 680.3,6 680.3,28.1 676.8,28.1 676.8,6 669.6,6 669.6,2.8 687.6,2.8 	"/>
	<polygon class="st2" points="695.9,16.8 695.9,24.9 707.6,24.9 707.6,28.1 692.4,28.1 692.4,2.8 707.6,2.8 707.6,6 695.9,6 
		695.9,13.6 706.4,13.6 706.4,16.8 	"/>
	<path class="st2" d="M727.1,28.1l-5.7-9.8h-4.7v9.8h-3.4V2.8h12l4,4V14l-4.1,4.1l5.8,10H727.1z M723.6,6h-6.9v9.1h6.9l2.3-2.3V8.3
		L723.6,6z"/>
	<polygon class="st2" points="737.6,2.8 742.4,12.8 743.3,15.5 743.4,15.5 744.3,12.8 748.8,2.8 752.6,2.8 745,18.6 745,28.1 
		741.3,28.1 741.3,18.6 733.6,2.8 	"/>
	<path class="st3" d="M350.3,44v-1.7h5.9v13.9h-1.9V44H350.3z M360.2,44h-2.8v-1.7h2.8V44z"/>
	<polygon class="st3" points="366.8,44.5 366.8,53.9 369,56.1 371.2,56.1 371.2,54.4 370,54.4 368.7,53.1 368.7,45.3 370,44 
		371.2,44 371.2,42.3 369,42.3 	"/>
	<polygon class="st3" points="374.5,42.3 372.4,42.3 372.4,44 373.6,44 374.8,45.3 374.8,53.1 373.6,54.4 372.4,54.4 372.4,56.1 
		374.5,56.1 376.7,53.9 376.7,44.5 	"/>
	<path class="st3" d="M383.3,44v-1.7h5.9v13.9h-1.9V44H383.3z M393.2,44h-2.8v-1.7h2.8V44z"/>
	<path class="st3" d="M403.3,42.3l-4.2,13.9h-1.8l4.2-13.9H403.3z M404.2,51l-1.2-3.8l1-3.2l3.8,12.2h-2l-1.1-3.4h-3.4l0.5-1.7
		H404.2z"/>
	<path class="st3" d="M416.4,56.1h-1.9V42.3h1.9V56.1z M422.8,56.1h-5.2v-1.7h5.2V56.1z"/>
	<path class="st3" d="M439.2,56.1h-1.9V42.3h1.9L439.2,56.1z M443.2,44h-2.8v-1.7h3.7l2.2,2.2v4.7l-2.2,2.2h-3.7v-1.7h2.8l1.3-1.3
		v-3.2L443.2,44z"/>
	<polygon class="st3" points="453.5,44.5 453.5,53.9 455.7,56.1 457.9,56.1 457.9,54.4 456.7,54.4 455.4,53.1 455.4,45.3 456.7,44 
		457.9,44 457.9,42.3 455.7,42.3 	"/>
	<polygon class="st3" points="461.2,42.3 459.1,42.3 459.1,44 460.3,44 461.5,45.3 461.5,53.1 460.3,54.4 459.1,54.4 459.1,56.1 
		461.2,56.1 463.4,53.9 463.4,44.5 	"/>
	<path class="st3" d="M474.8,56.1H473l-2.9-13.9h2L474.8,56.1z M475.8,55.9l-0.8-4.3l1.5-7.7l0.9,4.5L475.8,55.9z M481.8,56.1h-1.8
		l-2.8-13.9h1.8L481.8,56.1z M481.9,51.5l1.8-9.2h1.8l-2.8,13.5L481.9,51.5z"/>
	<path class="st3" d="M494.3,54.4h6.4v1.7h-8.3V42.3h8.3V44h-6.4V54.4z M500.1,49.9h-4.6v-1.7h4.6V49.9z"/>
	<path class="st3" d="M508,56.1V42.3h1.9l0,13.9H508z M513.7,44h-2.6v-1.7h3.5l2.2,2.2v3.9l-2.2,2.2l3.2,5.5h-2.2l-3.1-5.4h-1.4V49
		h2.6l1.3-1.3v-2.5L513.7,44z"/>
	<polygon class="st2" points="185.7,57.2 185.7,0 195.4,0 195.4,2.4 188.3,2.4 188.3,54.7 195.4,54.7 195.4,57.2 	"/>
	<path class="st2" d="M212.8,36.1h13.9v2.6h-17V36l20.4-28.7h3L212.8,36.1z M233.2,49.4h-2.8V16.3l2.8-3.9v23.7h4.3v2.7h-4.3V49.4z"
		/>
	<polygon class="st2" points="264.6,27.1 269.2,22.5 269.2,14 262.4,7.3 258.4,7.3 258.4,9.8 261,9.8 266.4,15.2 266.4,21.5 
		261.9,26 258.4,26 258.4,28.6 262.3,28.6 267.7,34 267.7,41.4 262.3,46.8 258.4,46.8 258.4,49.4 263.7,49.4 270.5,42.6 270.5,32.9 
			"/>
	<polygon class="st2" points="244,14 244,22.5 248.6,27.1 242.7,32.9 242.7,42.6 249.5,49.4 254.7,49.4 254.7,46.8 250.8,46.8 
		245.5,41.4 245.5,34 250.8,28.6 254.7,28.6 254.7,26 251.3,26 246.8,21.5 246.8,15.2 252.1,9.8 254.7,9.8 254.7,7.3 250.8,7.3 	"/>
	<path class="st2" d="M285.1,33.7l-9.2,15.7h-3.3l11-18.6L285.1,33.7z M297.9,49.4L273.7,7.3h3.3l24.2,42.1H297.9z M290.4,24.2
		l-1.5-2.7l7.8-14.2h3.3L290.4,24.2z"/>
	<polygon class="st2" points="325.9,0 325.9,57.2 316,57.2 316,54.7 323.2,54.7 323.2,2.4 316,2.4 316,0 	"/>
	<rect x="462.3" y="264" class="st1" width="17.4" height="18.3"/>
	<polygon class="st1" points="590.2,219.9 590.2,105.6 569.7,135.4 569.7,282.3 590.2,282.3 590.2,238.5 605.8,238.5 605.8,219.9 	
		"/>
	<polygon class="st1" points="479.7,238.5 479.7,218.4 563.1,99.6 587.9,99.6 504.9,220.2 564.1,220.2 564.1,238.5 	"/>
	<polygon class="st1" points="666.3,230.2 654.4,254.6 669.3,282.3 656.2,282.3 644.3,259.4 637.6,259.4 637.6,282.3 625.7,282.3 
		625.7,209.9 637.6,209.9 637.6,250.3 645.2,250.3 654.6,230.2 	"/>
	<polygon class="st1" points="731.8,259.3 740.8,209.9 753.1,209.9 738.6,282.3 720.4,282.3 713,240.3 711.5,229.1 710.7,229.1 
		709.2,240.3 701,282.3 682.7,282.3 668.1,209.9 682.6,209.9 691.3,259.3 692.3,267.7 693.3,267.7 694.4,259.3 703.4,209.9 
		719.9,209.9 728.8,259.3 729.8,267.7 730.7,267.7 	"/>
	<polygon class="st1" points="241.9,214.3 241.9,196 225.6,196 206.9,177.3 206.9,136.6 225.6,117.9 241.9,117.9 241.9,99.6 
		214.9,99.6 186.5,128 186.5,185.9 214.9,214.3 	"/>
	<polygon class="st1" points="241.9,264 219.9,264 200.6,245.1 186.2,259.6 209.2,282.3 241.9,282.3 	"/>
	<polygon class="st1" points="278,99.6 247.5,99.6 247.5,117.9 267.4,117.9 286,136.6 286,177.3 267.4,196 247.5,196 247.5,214.3 
		271.3,214.3 286,199.5 286,245.4 267.4,264 247.5,264 247.5,282.3 278,282.3 306.5,253.9 306.5,128 	"/>
	<polygon class="st1" points="338.5,282.3 442.3,282.3 442.3,264 356.8,264 	"/>
	<polygon class="st1" points="363.8,117.9 380.7,117.9 380.7,99.6 353,99.6 327,125.9 341.4,140.3 	"/>
	<path class="st1" d="M404,188.1c-0.2-0.2-0.4-0.3-0.6-0.3c-0.2,0-0.4,0.1-0.6,0.3l-0.7,0.7l4.2,4.2l0.7-0.7
		c0.2-0.2,0.3-0.4,0.3-0.6c0-0.2-0.1-0.4-0.3-0.6L404,188.1z"/>
	<polygon class="st1" points="376.4,216.4 374.8,218 377.3,220.4 378.9,218.8 378.9,217.7 377.5,216.3 	"/>
	<path class="st1" d="M413.8,99.6h-27.5v18.3h16.9l18.6,18.6v24.9l-95.3,95.3v25.5h5.2L441,173l1.3-1.3V128L413.8,99.6z
		 M377.8,230.9l-2.8,2.8H372l-6.7-6.7v-3.1l2.8-2.8l3.1,0l1.6,1.6l-1.9,1.9l-0.7-0.7l-1.1,0l-1.1,1.1v1.1l5,5h1.1l1.1-1.1l0-1.1
		l-0.7-0.7l1.9-1.9l1.6,1.6L377.8,230.9z M380.9,227.8l-9.8-9.8l4.3-4.3h3.1l3.1,3.1l0,3.1l-2.5,2.5l3.7,3.7L380.9,227.8z
		 M392.5,216.2l-2.8,2.8h-3.1l-6.7-6.7v-3.1l2.8-2.8l3.1,0l1.6,1.6l-1.9,1.9l-0.7-0.7l-1.1,0l-1.1,1.1v1.1l5,5h1.1l1.1-1.1l0-1.1
		l-0.7-0.7l1.9-1.9l1.6,1.6L392.5,216.2z M393.4,207.5l-6-6l0.9-0.9l6,6L393.4,207.5z M395.9,210l-1-1l1-1V210z M398,210.7l-0.7,0.7
		l-0.3-0.3v-4.3l1-1L398,210.7z M397.9,203l-5.4-2.3l3.9,3.9l-0.9,0.9l-6-5.9l0.8-0.8l5.6,2.4l-4-4l0.9-0.9l5.9,6L397.9,203z
		 M400.2,208.5l-1,1l0-4.8l1-1L400.2,208.5z M402.3,206.4l-1,1v-4.8l1-1V206.4z M402.3,198.5c-0.1,0.4-0.4,0.7-0.7,1
		c-0.4,0.4-0.7,0.6-1.1,0.7c-0.4,0.1-0.7,0.1-1.1,0c-0.4-0.1-0.7-0.4-1.1-0.7l0.9-0.9c0.2,0.2,0.5,0.4,0.7,0.4
		c0.2,0,0.5-0.1,0.7-0.3c0.2-0.2,0.3-0.4,0.3-0.7c0-0.2-0.1-0.4-0.3-0.6l-0.4-0.4c-0.1-0.1-0.3-0.2-0.5-0.2c-0.2,0-0.3,0-0.5,0.1
		c-0.2,0.1-0.4,0.1-0.7,0.3c0,0,0,0,0,0c0,0,0,0,0,0l-0.1,0c-0.4,0.2-0.7,0.3-1,0.3s-0.6,0.1-0.9,0s-0.7-0.3-1-0.6l-0.3-0.3
		c-0.3-0.3-0.5-0.6-0.6-1c-0.1-0.3-0.1-0.7,0-1.1c0.1-0.4,0.4-0.7,0.7-1c0.3-0.3,0.7-0.6,1-0.7c0.3-0.1,0.7-0.1,1,0
		c0.4,0.1,0.7,0.4,1.1,0.7l-0.9,0.9c-0.2-0.2-0.5-0.4-0.7-0.4s-0.4,0.1-0.6,0.3c-0.2,0.2-0.3,0.4-0.3,0.6c0,0.2,0.1,0.4,0.2,0.6
		l0.3,0.3c0.1,0.1,0.3,0.2,0.5,0.2c0.2,0,0.3,0,0.5,0c0.2-0.1,0.4-0.1,0.7-0.3c0,0,0.1,0,0.1,0c0,0,0.1,0,0.1,0c0,0,0,0,0,0
		c0,0,0,0,0,0c0.4-0.2,0.7-0.3,0.9-0.3s0.6-0.1,0.9,0c0.3,0.1,0.6,0.3,0.9,0.6l0.4,0.4c0.3,0.3,0.5,0.7,0.6,1
		C402.4,197.8,402.4,198.1,402.3,198.5 M404.4,204.3l-1,1v-4.8l1-1V204.3z M404.2,196.8l-6-6l0.9-0.9l6,6L404.2,196.8z M406.6,202.1
		l-1,1v-4.8l1-1V202.1z M406.8,194.2l-0.6,0.6l-6-6l0.6-0.6l0.3-0.3l0.7-0.7c0.3-0.3,0.6-0.5,1-0.6c0.3-0.1,0.7-0.1,1,0
		c0.3,0.1,0.7,0.3,1,0.6l3,3c0.3,0.3,0.5,0.6,0.6,1c0.1,0.3,0.1,0.7,0,1c-0.1,0.3-0.3,0.7-0.6,1l-0.7,0.7L406.8,194.2z M408.7,200
		l-1,1v-4.8l1-1L408.7,200z M410.8,197.9l-1,1v-4.8l1-1V197.9z M413,195.7l-1,1v-4.8l1-1L413,195.7z M411.4,189.5l-0.5,0.5l-0.4,0.4
		l-6-6l0.4-0.4l0.5-0.5l1.9-1.9l0.9,0.9l-1.9,1.9l1.7,1.7l1.7-1.7l0.9,0.9l-1.7,1.7l1.6,1.6l1.9-1.9l0.9,0.9L411.4,189.5z
		 M415.1,193.6l-1,1v-4.8l0.7-0.7l0.3,0.3V193.6z M416.3,192.4L416.3,192.4v-1.9l1,1L416.3,192.4z"/>
</g>
</svg>
