<?xml version="1.0" encoding="utf-8"?>
<!-- Generator: Adobe Illustrator 23.0.1, SVG Export Plug-In . SVG Version: 6.00 Build 0)  -->
<svg version="1.1" id="phone" xmlns="http://www.w3.org/2000/svg" xmlns:xlink="http://www.w3.org/1999/xlink" x="0px" y="0px"
	 viewBox="0 0 82 82" style="enable-background:new 0 0 82 82;" xml:space="preserve">
<style type="text/css">
	.st0{fill:none;stroke:#000000;stroke-linecap:round;stroke-linejoin:round;stroke-miterlimit:10;}
	.st1{display:none;}
</style>
<g>
	<path class="st0" d="M67.8,11.3C60.7,4.9,51.3,1,41,1C18.9,1,1,18.9,1,41c0,10.3,3.9,19.7,10.3,26.8"/>
	<path class="st0" d="M14.2,70.7C21.3,77.1,30.7,81,41,81c22.1,0,40-17.9,40-40c0-10.3-3.9-19.7-10.3-26.8"/>
</g>
<path class="st1" d="M22.3,48.2L22.3,48.2h0.1h5.8c0.8,0,1.5-0.7,1.5-1.5v-0.1c0-0.8-0.7-1.5-1.5-1.5H24v-9.7c0-0.8-0.7-1.5-1.5-1.5
	h-0.1c-0.8,0-1.5,0.7-1.5,1.5v11.4C20.8,47.5,21.5,48.2,22.3,48.2L22.3,48.2z M59.1,41.1L59.1,41.1c0-0.9-0.7-1.6-1.5-1.6h-4.3V37
	h4.3c0.8,0,1.5-0.7,1.5-1.5v-0.1c0-0.8-0.7-1.5-1.5-1.5h-5.8l0,0h-0.1c-0.8,0-1.5,0.7-1.5,1.5v11.4c0,0.8,0.7,1.5,1.5,1.5h0.1l0,0
	h5.8c0.8,0,1.5-0.7,1.5-1.5v-0.1c0-0.8-0.7-1.5-1.5-1.5h-4.3v-2.4h4.3C58.4,42.6,59.1,41.9,59.1,41.1L59.1,41.1z M47.7,47.8
	L47.7,47.8c0.3-0.3,0.4-0.7,0.4-1.1V35.3c0-0.8-0.7-1.5-1.5-1.5h-0.1c-0.8,0-1.5,0.7-1.5,1.5V42l-5.5-7.4c-0.3-0.5-0.8-0.8-1.3-0.8
	H38c-0.8,0-1.5,0.7-1.5,1.5v11.4c0,0.8,0.7,1.5,1.5,1.5h0.1c0.8,0,1.5-0.7,1.5-1.5v-6.8l5.6,7.6c0,0.1,0.1,0.1,0.1,0.2l0,0
	c0.2,0.2,0.4,0.4,0.6,0.4c0.2,0.1,0.4,0.1,0.6,0.1h0.1c0.3,0,0.5-0.1,0.7-0.2C47.5,48,47.6,47.9,47.7,47.8L47.7,47.8z M32.6,48.2
	L32.6,48.2c0.9,0,1.6-0.7,1.6-1.5V35.3c0-0.8-0.7-1.5-1.5-1.5h-0.1c-0.8,0-1.5,0.7-1.5,1.5v11.4C31.1,47.5,31.7,48.2,32.6,48.2z"/>
<g>
	<path d="M24.5,49h-6.6c-0.5,0-0.9-0.4-0.9-0.9V35.5c0-0.3,0.2-0.5,0.5-0.5s0.5,0.2,0.5,0.5V48h6.5c0.3,0,0.5,0.2,0.5,0.5
		S24.8,49,24.5,49z"/>
</g>
<g>
	<path d="M31.5,49c-0.3,0-0.5-0.2-0.5-0.5v-13c0-0.3,0.2-0.5,0.5-0.5s0.5,0.2,0.5,0.5v13C32,48.8,31.8,49,31.5,49z"/>
</g>
<g>
	<path d="M50.1,49.1c-0.3,0-0.5-0.1-0.7-0.3L40,36.2v12.3c0,0.3-0.2,0.5-0.5,0.5S39,48.8,39,48.5V35.8c0-0.4,0.2-0.7,0.6-0.8
		c0.4-0.1,0.7,0,1,0.3L50,47.8V35.5c0-0.3,0.2-0.5,0.5-0.5s0.5,0.2,0.5,0.5v12.7c0,0.4-0.2,0.7-0.6,0.8
		C50.3,49.1,50.2,49.1,50.1,49.1z"/>
</g>
<g>
	<path d="M65.5,49h-8c-0.3,0-0.5-0.2-0.5-0.5v-13c0-0.3,0.2-0.5,0.5-0.5h8c0.3,0,0.5,0.2,0.5,0.5S65.8,36,65.5,36H58v12h7.5
		c0.3,0,0.5,0.2,0.5,0.5S65.8,49,65.5,49z"/>
</g>
<g>
	<path d="M64.5,42.5h-5c-0.3,0-0.5-0.2-0.5-0.5s0.2-0.5,0.5-0.5h5c0.3,0,0.5,0.2,0.5,0.5S64.8,42.5,64.5,42.5z"/>
</g>
</svg>
