<?xml version="1.0" encoding="utf-8"?>
<!-- Generator: Adobe Illustrator 21.0.0, SVG Export Plug-In . SVG Version: 6.00 Build 0)  -->
<svg version="1.1" id="圖層_1" xmlns="http://www.w3.org/2000/svg" xmlns:xlink="http://www.w3.org/1999/xlink" x="0px" y="0px"
	 viewBox="0 0 74 45" style="enable-background:new 0 0 74 45;" xml:space="preserve">
<g>
	<path d="M13.4,14.6c0-2.5-1.4-4-2.5-4.5c0.9-0.4,2.3-1.8,2.3-3.9C13.2,3,11.1,1,7.5,1H0v19h7.8C11.1,20,13.4,18.1,13.4,14.6z
		 M9.8,14.6c0,1.3-0.8,2.3-2.4,2.3H4V12h3.4C9,12,9.8,13.3,9.8,14.6z M9.6,6.3c0,1.3-0.9,2.2-2.4,2.2H4V4h3.1C8.7,4,9.6,5.1,9.6,6.3
		z"/>
	<path d="M33.1,2.8c-1.3-1.4-3-2.2-5.1-2.2l0,0l0,0l0,0l0,0c-2.2,0-3.8,0.7-5.1,2.2c-2,2-1.9,4.4-1.9,7.7s-0.1,5.8,1.9,7.8
		c1.3,1.3,3,2.2,5.1,2.2l0,0l0,0l0,0l0,0c2.2,0,3.8-0.8,5.1-2.2c2-2,1.9-4.4,1.9-7.8C35,7.2,35.1,4.7,33.1,2.8z M30.4,16.1
		c-0.5,0.6-1.4,1.1-2.4,1.1c-0.9,0-1.9-0.4-2.4-1.1c-0.7-0.9-0.9-1.8-0.9-5.7s0.2-4.8,0.9-5.6C26.1,4.2,27,3.7,28,3.7
		c0.9,0,1.9,0.4,2.4,1.1c0.7,0.9,0.9,1.8,0.9,5.6C31.3,14.3,31.1,15.3,30.4,16.1z"/>
	<path d="M54,5V1H40v4h5v15h4V5H54z"/>
	<path d="M74,20V1h-3.9v7H64V1h-4v19h3.9v-8H70v8H74z"/>
</g>
</svg>
