<?xml version="1.0" encoding="utf-8"?>
<!-- Generator: Adobe Illustrator 21.0.0, SVG Export Plug-In . SVG Version: 6.00 Build 0)  -->
<svg version="1.1" id="圖層_1" xmlns="http://www.w3.org/2000/svg" xmlns:xlink="http://www.w3.org/1999/xlink" x="0px" y="0px"
	 viewBox="0 0 74 40" style="enable-background:new 0 0 74 40;" xml:space="preserve">
<path d="M12.1,13.2c0-2.3-1.3-3.6-2.3-4.1c0.8-0.4,2.1-1.6,2.1-3.5C11.9,2.8,10,1,6.8,1H0v17.1h7C10,18.1,12.1,16.3,12.1,13.2z
	 M8.8,13.2c0,1.2-0.7,2.1-2.2,2.1H3.5v-4.4h3.2C8.1,10.9,8.8,12,8.8,13.2z M8.6,5.7c0,1.2-0.8,2-2.2,2H3.5v-4h2.9
	C7.8,3.7,8.6,4.6,8.6,5.7z"/>
<path d="M29.2,2.6c-1.2-1.4-2.7-2-4.7-2s-3.5,0.6-4.7,2c-1.9,1.8-1.8,4-1.8,6.9c0,2.9-0.1,5.2,1.8,7c1.2,1.2,2.8,2,4.7,2
	s3.5-0.8,4.7-2c1.9-1.8,1.8-4.1,1.8-7C31,6.6,31.1,4.4,29.2,2.6z M26.6,14.6c-0.5,0.6-1.3,1-2.1,1s-1.6-0.4-2.1-1
	c-0.6-0.8-0.8-1.6-0.8-5.1s0.2-4.3,0.8-5c0.4-0.5,1.3-1,2.1-1s1.7,0.5,2.1,1c0.6,0.7,0.8,1.5,0.8,5S27.2,13.8,26.6,14.6z"/>
<path d="M48,5V1H36v4h4v13h4V5H48z"/>
<path d="M67,18V1h-4v6h-5V1h-4v17h4v-7h5v7H67z"/>
</svg>
