<?xml version="1.0" encoding="utf-8"?>
<!-- Generator: Adobe Illustrator 21.0.0, SVG Export Plug-In . SVG Version: 6.00 Build 0)  -->
<svg version="1.1" id="圖層_1" xmlns="http://www.w3.org/2000/svg" xmlns:xlink="http://www.w3.org/1999/xlink" x="0px" y="0px"
	 viewBox="0 0 74 18" style="enable-background:new 0 0 74 18;" xml:space="preserve">
<path d="M7.49,7.761c-1.069,0-1.769-0.277-2.438-0.968l0.52-0.536c0.59,0.608,1.14,0.804,1.939,0.804
	c1.04,0,1.679-0.505,1.679-1.359c0-0.381-0.11-0.711-0.34-0.917s-0.41-0.268-0.93-0.35L7.09,4.301c-0.56-0.093-1-0.278-1.309-0.557
	c-0.36-0.33-0.54-0.783-0.54-1.37c0-1.247,0.869-2.07,2.278-2.07c0.91,0,1.509,0.237,2.119,0.803l-0.49,0.505
	C8.709,1.201,8.24,0.984,7.49,0.984c-0.949,0-1.499,0.546-1.499,1.359c0,0.361,0.1,0.649,0.32,0.845
	C6.531,3.384,6.9,3.528,7.27,3.59L8.05,3.714c0.67,0.103,1,0.247,1.299,0.515c0.39,0.34,0.6,0.845,0.6,1.452
	C9.948,6.968,8.969,7.761,7.49,7.761z"/>
<path d="M19.88,1.067V7.7H19.12V1.067h-2.059V0.366h4.877v0.701H19.88z"/>
<path d="M32.511,7.761c-1.439,0-2.479-1.02-2.479-2.482V0.366h0.759v4.851c0,1.112,0.68,1.844,1.719,1.844s1.729-0.731,1.729-1.844
	V0.366H35v4.913C35,6.742,33.95,7.761,32.511,7.761z"/>
<path d="M47.238,7.02c-0.431,0.442-1.06,0.68-1.8,0.68H43V0.366h2.438c0.74,0,1.369,0.237,1.8,0.68
	c0.739,0.762,0.699,1.885,0.699,2.905S47.978,6.257,47.238,7.02z M46.708,1.602c-0.37-0.391-0.85-0.535-1.399-0.535H43.76v5.933
	h1.549c0.55,0,1.029-0.145,1.399-0.536c0.49-0.525,0.47-1.616,0.47-2.513C47.178,3.055,47.198,2.127,46.708,1.602z"/>
<path d="M55.12,7.7V0.366h0.76V7.7H55.12z"/>
<path d="M68.307,6.999c-0.479,0.494-1.109,0.762-1.819,0.762c-0.709,0-1.339-0.268-1.818-0.762c-0.67-0.69-0.67-1.411-0.67-2.966
	c0-1.556,0-2.276,0.67-2.966c0.479-0.495,1.109-0.762,1.818-0.762c0.71,0,1.34,0.268,1.819,0.762c0.67,0.69,0.67,1.411,0.67,2.966
	C68.977,5.588,68.977,6.309,68.307,6.999z M67.717,1.53c-0.31-0.33-0.76-0.525-1.229-0.525s-0.919,0.196-1.229,0.525
	c-0.449,0.474-0.499,0.968-0.499,2.503s0.05,2.029,0.499,2.502c0.311,0.33,0.76,0.525,1.229,0.525s0.92-0.195,1.229-0.525
	c0.45-0.474,0.5-0.968,0.5-2.502S68.167,2.004,67.717,1.53z"/>
</svg>
